<svg width="500" height="513" viewBox="0 0 500 513" fill="none" xmlns="http://www.w3.org/2000/svg">
<path d="M429.834 67.002H177.553C169.562 67.002 162.098 73.6756 160.693 81.842L103.44 433.087C102.123 441.253 107.48 447.927 115.47 447.927H367.752C375.743 447.927 383.206 441.253 384.611 433.087L441.864 81.842C443.181 73.5878 437.825 67.002 429.834 67.002Z" fill="#0E2549"/>
<path d="M367.751 448.454H115.47C111.519 448.454 108.094 446.873 105.723 444.151C103.176 441.166 102.211 437.214 102.913 432.999L160.166 81.7546C161.571 73.3248 169.386 66.3877 177.64 66.3877H429.922C433.873 66.3877 437.298 67.9683 439.669 70.6904C442.215 73.676 443.181 77.6275 442.479 81.8424L385.226 433.087C383.821 441.605 376.006 448.454 367.751 448.454ZM177.553 67.617C169.913 67.617 162.625 74.0273 161.307 81.9303L104.055 433.175C103.44 437.038 104.318 440.727 106.601 443.361C108.709 445.907 111.87 447.312 115.47 447.312H367.751C375.391 447.312 382.679 440.902 383.996 432.999L441.249 81.7546C441.864 77.891 440.986 74.2029 438.703 71.5685C436.595 69.022 433.434 67.617 429.834 67.617H177.553Z" fill="#0E2549"/>
<path d="M421.755 67.002H169.474C161.483 67.002 154.019 73.6756 152.614 81.9298L95.3612 435.457C94.044 443.712 99.4004 450.385 107.391 450.385H359.673C367.663 450.385 375.127 443.712 376.532 435.457L433.785 81.9298C435.102 73.6756 429.746 67.002 421.755 67.002Z" fill="#FEFEFE"/>
<path d="M359.673 450.913H218.121C217.77 450.913 217.507 450.649 217.507 450.298C217.507 449.947 217.77 449.683 218.121 449.683H359.673C367.312 449.683 374.601 443.185 375.918 435.282L433.171 81.7546C433.785 77.8031 432.907 74.2029 430.624 71.4807C428.517 68.9342 425.355 67.617 421.843 67.617H169.562C161.922 67.617 154.634 74.1151 153.317 82.0181L128.817 233.053C128.729 233.404 128.466 233.58 128.115 233.58C127.763 233.492 127.588 233.229 127.588 232.878L152.087 81.8424C153.492 73.3248 161.307 66.3877 169.562 66.3877H421.843C425.707 66.3877 429.219 67.9683 431.59 70.6904C434.136 73.676 435.102 77.7153 434.488 82.0181L377.235 435.546C375.742 443.976 367.927 450.913 359.673 450.913Z" fill="#0E2549"/>
<path d="M181.591 90.7119L129.168 409.993L349.837 412.101L401.909 90.7119H181.591Z" fill="#FEFEFE"/>
<path d="M349.838 412.628H210.657C210.306 412.628 210.042 412.364 210.042 412.013C210.042 411.662 210.306 411.398 210.657 411.398H349.311L401.207 91.2391H182.118L167.19 183.441C167.103 183.792 166.839 183.968 166.488 183.968C166.137 183.88 165.961 183.616 165.961 183.265L180.977 90.5366C181.065 90.2732 181.24 90.0098 181.591 90.0098H401.909C402.085 90.0098 402.261 90.0976 402.348 90.1854C402.436 90.361 402.524 90.5366 402.524 90.7123L350.452 412.101C350.452 412.452 350.189 412.628 349.838 412.628Z" fill="#0E2549"/>
<path d="M365.731 150.424H198.626C198.451 150.424 198.275 150.336 198.187 150.248C198.1 150.072 198.012 149.897 198.012 149.721L199.592 139.798C199.68 139.535 199.856 139.271 200.207 139.271H367.312C367.487 139.271 367.663 139.359 367.751 139.447C367.838 139.623 367.926 139.798 367.926 139.974L366.346 149.897C366.258 150.248 365.994 150.424 365.731 150.424ZM199.329 149.194H365.204L366.609 140.501H200.734L199.329 149.194Z" fill="#0E2549"/>
<path d="M318.928 170.006H195.465C195.29 170.006 195.114 169.918 195.026 169.83C194.938 169.654 194.851 169.479 194.851 169.303L196.431 159.38C196.519 159.117 196.695 158.854 197.046 158.854H320.508C320.684 158.854 320.86 158.941 320.947 159.029C321.035 159.205 321.123 159.38 321.123 159.556L319.542 169.479C319.455 169.83 319.191 170.006 318.928 170.006ZM196.168 168.776H318.401L319.806 160.083H197.573L196.168 168.776Z" fill="#0E2549"/>
<path d="M357.126 203.549H196.52C196.169 203.549 195.905 203.285 195.905 202.934C195.905 202.583 196.169 202.319 196.52 202.319H356.6L358.005 193.626H195.466C195.115 193.626 194.852 193.362 194.852 193.011C194.852 192.66 195.115 192.396 195.466 192.396H358.795C358.971 192.396 359.146 192.484 359.234 192.572C359.322 192.748 359.41 192.923 359.41 193.099L357.829 203.022C357.741 203.285 357.478 203.549 357.126 203.549Z" fill="#0E2549"/>
<path d="M310.323 223.131H200.032C199.681 223.131 199.417 222.867 199.417 222.516C199.417 222.165 199.681 221.901 200.032 221.901H309.796L311.201 213.208H193.973C193.622 213.208 193.358 212.944 193.358 212.593C193.358 212.242 193.622 211.979 193.973 211.979H311.903C312.079 211.979 312.255 212.066 312.342 212.154C312.43 212.33 312.518 212.505 312.518 212.681L310.938 222.604C310.85 222.867 310.586 223.131 310.323 223.131Z" fill="#0E2549"/>
<path d="M348.52 256.588H181.416C181.24 256.588 181.064 256.5 180.976 256.412C180.889 256.236 180.801 256.061 180.801 255.885L182.381 245.962C182.469 245.699 182.645 245.436 182.996 245.436H350.188C350.364 245.436 350.54 245.523 350.628 245.611C350.715 245.787 350.803 245.962 350.803 246.138L349.222 256.061C349.135 256.412 348.871 256.588 348.52 256.588ZM182.118 255.358H347.993L349.398 246.665H183.523L182.118 255.358Z" fill="#0E2549"/>
<path d="M301.717 276.17H178.254C178.079 276.17 177.903 276.082 177.815 275.994C177.727 275.818 177.64 275.643 177.64 275.467L179.22 265.544C179.308 265.281 179.484 265.018 179.835 265.018H303.297C303.473 265.018 303.649 265.105 303.737 265.193C303.824 265.369 303.912 265.544 303.912 265.72L302.331 275.643C302.244 275.994 301.98 276.17 301.717 276.17ZM178.957 274.94H301.19L302.595 266.247H180.362L178.957 274.94Z" fill="#0E2549"/>
<path d="M339.915 309.713H172.81C172.634 309.713 172.459 309.625 172.371 309.537C172.283 309.361 172.195 309.186 172.195 309.01L173.776 299.087C173.864 298.824 174.039 298.561 174.391 298.561H341.495C341.671 298.561 341.846 298.648 341.934 298.736C342.022 298.912 342.11 299.087 342.11 299.263L340.529 309.186C340.529 309.449 340.266 309.713 339.915 309.713ZM173.6 308.483H339.476L340.88 299.79H175.005L173.6 308.483Z" fill="#0E2549"/>
<path d="M293.111 329.295H169.649C169.473 329.295 169.298 329.207 169.21 329.119C169.122 328.943 169.034 328.768 169.034 328.592L170.615 318.669C170.703 318.406 170.878 318.143 171.229 318.143H294.692C294.868 318.143 295.043 318.23 295.131 318.318C295.219 318.494 295.307 318.669 295.307 318.845L293.726 328.768C293.638 329.031 293.375 329.295 293.111 329.295ZM170.351 328.065H292.584L293.989 319.372H171.756L170.351 328.065Z" fill="#0E2549"/>
<path d="M363.888 109.327H220.756C214.96 109.327 211.009 104.41 211.974 98.3508L214.521 82.5448C216.716 68.7585 229.361 57.6064 242.621 57.6064H358.795C372.054 57.6064 381.099 68.7585 378.816 82.5448L376.269 98.3508C375.215 104.41 369.683 109.327 363.888 109.327Z" fill="#0E2549"/>
<path d="M363.888 109.942H220.756C217.858 109.942 215.223 108.801 213.467 106.693C211.535 104.498 210.833 101.512 211.36 98.2634L213.906 82.4574C216.189 68.4076 229.098 56.9922 242.621 56.9922H358.795C365.205 56.9922 370.825 59.5387 374.776 64.1049C378.903 69.0223 380.572 75.6081 379.43 82.633L376.884 98.439C375.83 104.761 370.035 109.942 363.888 109.942ZM242.621 58.2215C229.624 58.2215 217.331 69.1979 215.136 82.633L212.589 98.439C212.15 101.249 212.765 103.883 214.433 105.815C216.014 107.659 218.209 108.625 220.756 108.625H363.888C369.42 108.625 374.688 103.971 375.654 98.1756L378.201 82.3696C379.255 75.696 377.762 69.4614 373.81 64.8074C370.122 60.5046 364.854 58.1337 358.795 58.1337H242.621V58.2215Z" fill="#0E2549"/>
<path d="M360.287 109.327H217.155C211.359 109.327 207.408 104.41 208.374 98.3508L210.92 82.5448C213.116 68.7585 225.76 57.6064 239.02 57.6064H355.194C368.454 57.6064 377.498 68.7585 375.215 82.5448L372.669 98.3508C371.703 104.41 366.17 109.327 360.287 109.327Z" fill="#FEFEFE"/>
<path d="M360.287 109.942H217.155C214.257 109.942 211.623 108.801 209.867 106.693C207.935 104.498 207.232 101.512 207.759 98.2634L210.306 82.4574C212.589 68.4076 225.497 56.9922 239.02 56.9922H355.194C361.604 56.9922 367.224 59.5387 371.176 64.1049C375.303 69.0223 376.971 75.6081 375.83 82.633L373.283 98.439C372.229 104.761 366.434 109.942 360.287 109.942ZM239.02 58.2215C226.024 58.2215 213.73 69.1979 211.535 82.633L208.988 98.439C208.549 101.249 209.164 103.883 210.833 105.815C212.413 107.659 214.608 108.625 217.155 108.625H360.287C365.819 108.625 371.088 103.971 372.054 98.1756L374.6 82.3696C375.654 75.696 374.161 69.4614 370.21 64.8074C366.522 60.5046 361.253 58.1337 355.194 58.1337H239.02V58.2215Z" fill="#0E2549"/>
<path d="M308.302 2.8125C293.374 2.8125 279.149 15.3695 276.69 30.8243L269.577 74.5542C268.787 79.4716 272.036 83.5109 276.778 83.5109H313.659C318.4 83.5109 322.967 79.4716 323.757 74.5542L330.87 30.8243C333.328 15.3695 323.23 2.8125 308.302 2.8125ZM303.385 33.3708C298.731 33.3708 295.57 29.5071 296.36 24.6775C297.15 19.8479 301.541 15.9842 306.195 15.9842C310.849 15.9842 314.01 19.8479 313.22 24.6775C312.429 29.4193 308.039 33.3708 303.385 33.3708Z" fill="#0E2549"/>
<path d="M313.659 84.126H276.778C274.408 84.126 272.212 83.1601 270.719 81.4039C269.139 79.5598 268.524 77.1011 268.963 74.4668L276.076 30.7369C278.622 15.0187 293.111 2.19824 308.303 2.19824C315.503 2.19824 321.825 5.0082 326.216 10.1891C330.87 15.6333 332.714 23.0973 331.485 31.0003L324.372 74.7302C323.494 79.8233 318.752 84.126 313.659 84.126ZM308.303 3.42761C293.638 3.42761 279.764 15.809 277.305 30.9125L270.193 74.6424C269.841 76.9255 270.368 79.033 271.685 80.6136C272.915 82.1064 274.759 82.8967 276.778 82.8967H313.659C318.137 82.8967 322.352 79.1208 323.143 74.4668L330.255 30.7369C331.485 23.1851 329.729 16.1602 325.25 10.9794C321.123 6.06193 315.152 3.42761 308.303 3.42761ZM303.385 33.9859C301.014 33.9859 298.907 33.0199 297.502 31.3515C296.009 29.5075 295.394 27.1366 295.746 24.5023C296.536 19.4092 301.278 15.2821 306.195 15.2821C308.566 15.2821 310.674 16.248 312.079 17.9164C313.571 19.7605 314.186 22.1314 313.835 24.7657C312.957 29.7709 308.303 33.9859 303.385 33.9859ZM306.195 16.5115C301.804 16.5115 297.677 20.1995 296.975 24.6779C296.624 26.8732 297.151 28.9806 298.468 30.4734C299.697 31.8784 301.453 32.6687 303.385 32.6687C307.776 32.6687 311.903 28.9806 312.605 24.5023C312.957 22.307 312.43 20.1995 311.113 18.7067C309.971 17.3018 308.215 16.5115 306.195 16.5115Z" fill="#0E2549"/>
<path d="M306.021 2.8125C291.093 2.8125 276.868 15.3695 274.409 30.8243L267.296 74.5542C266.506 79.4716 269.755 83.5109 274.497 83.5109H311.377C316.119 83.5109 320.685 79.4716 321.476 74.5542L328.588 30.8243C331.047 15.3695 320.949 2.8125 306.021 2.8125ZM301.016 33.3708C296.362 33.3708 293.201 29.5071 293.991 24.6775C294.781 19.8479 299.172 15.9842 303.826 15.9842C308.48 15.9842 311.641 19.8479 310.85 24.6775C310.148 29.4193 305.67 33.3708 301.016 33.3708Z" fill="#FEFEFE"/>
<path d="M311.377 84.126H274.496C272.125 84.126 269.93 83.1601 268.437 81.4039C266.857 79.5598 266.242 77.1011 266.681 74.4668L273.794 30.7369C276.34 15.0187 290.829 2.19824 306.02 2.19824C313.221 2.19824 319.543 5.0082 323.934 10.1891C328.588 15.6333 330.432 23.0973 329.203 31.0003L322.09 74.7302C321.212 79.8233 316.47 84.126 311.377 84.126ZM306.02 3.42761C291.356 3.42761 277.482 15.809 275.023 30.9125L267.91 74.6424C267.559 76.9255 268.086 79.033 269.403 80.6136C270.632 82.1064 272.477 82.8967 274.496 82.8967H311.377C315.855 82.8967 320.07 79.1208 320.861 74.4668L327.973 30.7369C329.202 23.1851 327.446 16.1602 322.968 10.9794C318.841 6.06193 312.782 3.42761 306.02 3.42761ZM301.015 33.9859C298.644 33.9859 296.537 33.0199 295.132 31.3515C293.639 29.5075 293.024 27.1366 293.376 24.5023C294.166 19.4092 298.908 15.2821 303.825 15.2821C306.196 15.2821 308.303 16.248 309.708 17.9164C311.201 19.7605 311.816 22.1314 311.465 24.7657C310.674 29.7709 306.02 33.9859 301.015 33.9859ZM303.913 16.5115C299.522 16.5115 295.395 20.1995 294.693 24.6779C294.342 26.8732 294.868 28.9806 296.185 30.4734C297.415 31.8784 299.171 32.6687 301.103 32.6687C305.494 32.6687 309.621 28.9806 310.323 24.5023C310.674 22.307 310.147 20.1995 308.83 18.7067C307.601 17.3018 305.845 16.5115 303.913 16.5115Z" fill="#0E2549"/>
<path d="M481.554 289.693L484.803 439.938L443.708 461.891C443.532 461.979 443.269 461.891 443.269 461.803L441.073 310.944C440.986 310.856 481.028 289.693 481.554 289.693Z" fill="#FEFEFE"/>
<path d="M443.532 462.505C443.357 462.505 443.181 462.505 443.005 462.417C442.742 462.242 442.654 462.066 442.654 461.803L440.459 310.943C440.459 310.68 440.547 310.504 440.81 310.416C480.94 289.166 481.467 289.166 481.642 289.166C481.818 289.166 481.994 289.254 482.081 289.342C482.169 289.429 482.257 289.605 482.257 289.781L485.506 440.026C485.506 440.289 485.418 440.465 485.155 440.552L444.059 462.505C443.796 462.505 443.62 462.505 443.532 462.505ZM441.688 311.207L443.884 461.012L484.189 439.499L481.028 290.571C476.725 292.766 455.914 303.655 441.688 311.207Z" fill="#0E2549"/>
<path d="M446.43 459.169L445.025 306.816L354.316 266.862L265.451 308.221L267.295 461.54C267.295 463.647 269.139 465.403 271.334 465.403L441.6 463.998C444.323 463.998 446.518 461.891 446.43 459.169Z" fill="#FEFEFE"/>
<path d="M294.518 393.397H280.38C279.59 393.397 278.8 393.046 278.273 392.519C277.746 391.904 277.395 391.202 277.395 390.324L277.658 369.951C277.658 368.283 279.063 366.966 280.731 366.966H294.781C295.571 366.966 296.362 367.317 296.889 367.844C297.415 368.459 297.767 369.161 297.767 369.951L297.591 390.324C297.591 391.992 296.186 393.397 294.518 393.397ZM280.731 368.195C279.765 368.195 278.975 368.985 278.887 369.951L278.624 390.324C278.624 390.85 278.8 391.29 279.151 391.641C279.502 391.992 279.941 392.168 280.38 392.168H294.518C295.484 392.168 296.274 391.377 296.362 390.324L296.537 369.951C296.537 369.512 296.362 368.985 296.01 368.722C295.659 368.371 295.22 368.195 294.781 368.195H280.731Z" fill="#0E2549"/>
<path d="M316.47 393.398H302.86C301.981 393.398 301.191 393.047 300.576 392.432C299.962 391.817 299.61 390.939 299.61 390.061L299.786 370.128C299.786 368.372 301.279 366.879 303.035 366.879H316.558C317.436 366.879 318.226 367.23 318.841 367.845C319.456 368.459 319.807 369.25 319.807 370.128L319.719 390.061C319.719 391.905 318.314 393.398 316.47 393.398ZM303.123 368.196C301.981 368.196 301.103 369.074 301.103 370.216L300.928 390.149C300.928 390.676 301.103 391.203 301.542 391.642C301.894 391.993 302.42 392.256 302.947 392.256H316.558C317.699 392.256 318.578 391.378 318.578 390.237L318.666 370.304C318.666 369.777 318.49 369.25 318.051 368.899C317.699 368.547 317.173 368.284 316.646 368.284H303.123V368.196Z" fill="#0E2549"/>
<path d="M294.957 421.673H279.414C278.799 421.673 278.185 421.41 277.746 420.971C277.306 420.532 277.043 419.917 277.043 419.302L277.306 397.349C277.306 396.032 278.36 394.979 279.677 394.979H295.132C295.747 394.979 296.361 395.242 296.8 395.681C297.24 396.12 297.503 396.735 297.503 397.349L297.327 419.302C297.327 420.619 296.274 421.673 294.957 421.673ZM279.765 396.208C279.151 396.208 278.624 396.735 278.624 397.349L278.36 419.302C278.36 419.566 278.448 419.917 278.712 420.092C278.887 420.268 279.15 420.444 279.502 420.444H295.044C295.659 420.444 296.186 419.917 296.186 419.302L296.361 397.349C296.361 397.086 296.274 396.735 296.01 396.559C295.835 396.383 295.571 396.208 295.22 396.208H279.765Z" fill="#0E2549"/>
<path d="M316.294 421.673H302.771C301.893 421.673 301.015 421.322 300.401 420.707C299.786 420.093 299.435 419.214 299.435 418.336L299.61 398.403C299.61 396.559 301.103 395.066 302.947 395.066H316.47C317.348 395.066 318.226 395.418 318.841 396.032C319.456 396.647 319.807 397.525 319.807 398.403L319.719 418.336C319.631 420.18 318.05 421.673 316.294 421.673ZM302.947 396.208C301.805 396.208 300.84 397.174 300.84 398.315L300.664 418.249C300.664 418.863 300.84 419.39 301.279 419.741C301.63 420.18 302.157 420.356 302.771 420.356H316.294C317.436 420.356 318.402 419.39 318.402 418.249L318.49 398.315C318.49 397.789 318.314 397.174 317.875 396.823C317.524 396.471 316.997 396.208 316.382 396.208H302.947Z" fill="#0E2549"/>
<path d="M410.164 393.399H396.026C394.358 393.399 393.041 392.082 392.953 390.326L392.777 369.953C392.777 369.163 393.041 368.373 393.655 367.846C394.182 367.319 394.973 366.968 395.763 366.968H409.813C411.481 366.968 412.798 368.285 412.886 369.953L413.062 390.326C413.062 391.116 412.798 391.906 412.184 392.521C411.745 393.048 410.954 393.399 410.164 393.399ZM395.851 368.197C395.412 368.197 394.973 368.373 394.621 368.724C394.27 369.075 394.095 369.514 394.095 369.953L394.27 390.326C394.27 391.291 395.06 392.17 396.114 392.17H410.252C410.691 392.17 411.13 391.994 411.481 391.643C411.832 391.291 412.008 390.852 412.008 390.326L411.832 369.953C411.832 368.987 411.042 368.197 410.076 368.197H395.851Z" fill="#0E2549"/>
<path d="M432.117 393.399H418.506C416.75 393.399 415.257 391.906 415.257 390.15L415.081 370.217C415.081 369.339 415.432 368.548 416.047 367.934C416.662 367.319 417.452 366.968 418.33 366.968H431.853C433.609 366.968 435.102 368.461 435.102 370.217L435.366 390.15C435.366 391.028 435.014 391.818 434.4 392.521C433.785 393.048 432.995 393.399 432.117 393.399ZM418.242 368.197C417.715 368.197 417.189 368.373 416.837 368.812C416.486 369.163 416.223 369.69 416.223 370.217L416.398 390.15C416.398 391.291 417.364 392.17 418.418 392.17H432.029C432.556 392.17 433.082 391.994 433.434 391.555C433.785 391.204 434.048 390.677 434.048 390.15L433.785 370.217C433.785 369.075 432.819 368.197 431.765 368.197H418.242Z" fill="#0E2549"/>
<path d="M411.13 421.674H395.587C394.27 421.674 393.217 420.62 393.217 419.303L393.041 397.35C393.041 396.736 393.304 396.121 393.744 395.682C394.183 395.243 394.797 394.979 395.412 394.979H410.867C412.184 394.979 413.238 396.033 413.238 397.35L413.413 419.303C413.413 419.918 413.15 420.533 412.711 420.972C412.359 421.411 411.745 421.674 411.13 421.674ZM395.412 396.209C395.148 396.209 394.885 396.297 394.622 396.56C394.446 396.736 394.27 397.087 394.27 397.35L394.446 419.303C394.446 419.918 394.973 420.445 395.587 420.445H411.13C411.393 420.445 411.657 420.357 411.92 420.093C412.096 419.918 412.272 419.567 412.272 419.303L412.096 397.35C412.096 396.736 411.569 396.209 410.954 396.209H395.412Z" fill="#0E2549"/>
<path d="M432.38 421.674H418.857C417.013 421.674 415.52 420.181 415.52 418.337L415.345 398.404C415.345 397.526 415.696 396.648 416.311 396.033C416.925 395.419 417.803 395.067 418.682 395.067H432.204C434.048 395.067 435.541 396.56 435.541 398.404L435.805 418.337C435.805 419.215 435.453 420.094 434.839 420.708C434.136 421.323 433.258 421.674 432.38 421.674ZM418.594 396.209C418.067 396.209 417.54 396.385 417.101 396.824C416.662 397.263 416.486 397.79 416.486 398.316L416.662 418.25C416.662 419.391 417.628 420.357 418.769 420.357H432.292C432.819 420.357 433.346 420.181 433.785 419.742C434.224 419.303 434.4 418.776 434.4 418.25L434.136 398.316C434.136 397.175 433.17 396.209 432.029 396.209H418.594Z" fill="#0E2549"/>
<path d="M353.79 312.35H341.233C340.442 312.35 339.652 311.999 339.125 311.472C338.598 310.945 338.247 310.155 338.247 309.364V293.997C338.247 292.329 339.564 291.012 341.233 291.012H353.702C355.37 291.012 356.687 292.329 356.687 293.997V309.364C356.687 310.155 356.336 310.945 355.809 311.472C355.282 311.999 354.58 312.35 353.79 312.35ZM341.233 292.241C340.267 292.241 339.477 293.031 339.477 293.997V309.364C339.477 309.803 339.652 310.242 340.003 310.594C340.355 310.945 340.794 311.12 341.233 311.12H353.79C354.229 311.12 354.668 310.945 355.019 310.594C355.37 310.242 355.546 309.803 355.546 309.364V293.997C355.546 293.031 354.756 292.241 353.79 292.241H341.233Z" fill="#0E2549"/>
<path d="M373.81 312.35H361.78C360.024 312.35 358.531 310.945 358.531 309.101V294.173C358.531 293.295 358.883 292.504 359.497 291.89C360.112 291.275 360.902 290.924 361.78 290.924H373.81C375.567 290.924 377.059 292.329 377.059 294.085L377.147 309.013C377.147 309.891 376.796 310.681 376.181 311.296C375.479 311.999 374.688 312.35 373.81 312.35ZM361.693 292.241C361.166 292.241 360.639 292.417 360.287 292.856C359.936 293.207 359.673 293.734 359.673 294.261V309.189C359.673 310.242 360.551 311.208 361.693 311.208H373.723C374.249 311.208 374.776 311.033 375.127 310.594C375.479 310.242 375.742 309.715 375.742 309.189L375.654 294.261C375.654 293.207 374.776 292.329 373.635 292.329H361.693V292.241Z" fill="#0E2549"/>
<path d="M354.404 334.828H340.53C339.915 334.828 339.301 334.565 338.862 334.126C338.423 333.687 338.159 333.072 338.159 332.457V315.598C338.159 314.368 339.213 313.314 340.442 313.314H354.316C355.634 313.314 356.6 314.368 356.6 315.598V332.457C356.6 333.072 356.336 333.687 355.897 334.126C355.634 334.565 355.019 334.828 354.404 334.828ZM340.53 314.544C339.915 314.544 339.476 314.983 339.476 315.598V332.457C339.476 332.721 339.564 332.984 339.828 333.248C340.003 333.423 340.267 333.599 340.618 333.599H354.58C354.843 333.599 355.107 333.511 355.37 333.248C355.546 333.072 355.721 332.809 355.721 332.457V315.598C355.721 314.983 355.195 314.544 354.668 314.544H340.53Z" fill="#0E2549"/>
<path d="M373.81 334.828H361.868C360.024 334.828 358.531 333.335 358.531 331.491V316.563C358.531 315.685 358.883 314.895 359.497 314.28C360.112 313.666 360.99 313.314 361.868 313.314H373.81C375.654 313.314 377.147 314.807 377.147 316.563L377.235 331.491C377.235 332.369 376.884 333.16 376.269 333.862C375.567 334.477 374.688 334.828 373.81 334.828ZM361.78 314.544C361.253 314.544 360.727 314.719 360.287 315.158C359.936 315.51 359.673 316.037 359.673 316.563V331.491C359.673 332.633 360.639 333.599 361.78 333.599H373.723C374.249 333.599 374.776 333.423 375.215 332.984C375.567 332.633 375.83 332.106 375.83 331.491L375.742 316.563C375.742 315.422 374.776 314.544 373.635 314.544H361.78Z" fill="#0E2549"/>
<path d="M271.335 466.106C268.788 466.106 266.769 464.086 266.769 461.627L264.925 308.309C264.925 308.046 265.1 307.87 265.276 307.782L354.141 266.423C354.317 266.335 354.492 266.335 354.668 266.423L445.289 303.567C445.552 303.655 445.64 303.919 445.64 304.182L445.552 361.171C445.552 361.523 445.289 361.786 444.938 361.786C444.586 361.786 444.323 361.523 444.323 361.171L444.411 304.621L354.404 267.74L266.154 308.836L267.91 461.803C267.91 463.559 269.403 465.052 271.247 465.052L441.513 463.647C442.654 463.647 443.796 463.208 444.586 462.33C445.377 461.54 445.728 460.486 445.728 459.432L444.674 390.061C444.674 389.71 444.938 389.447 445.289 389.447C445.64 389.447 445.904 389.71 445.904 390.061L446.957 459.432C446.957 460.837 446.43 462.242 445.464 463.208C444.411 464.262 443.006 464.876 441.513 464.876L271.335 466.106Z" fill="#0E2549"/>
<path d="M378.113 466.106H336.315C333.769 466.106 331.749 463.998 331.749 461.452L332.1 365.211C332.1 362.752 334.12 360.732 336.579 360.732H377.674C380.133 360.732 382.153 362.752 382.153 365.211L382.592 461.452C382.679 463.998 380.572 466.106 378.113 466.106Z" fill="#0E2549"/>
<path d="M376.972 462.33H337.545C335.877 462.33 334.472 460.925 334.472 459.256L334.735 366.615C334.735 364.947 336.052 363.63 337.721 363.63H376.533C378.202 363.63 379.519 364.947 379.519 366.615L379.958 459.256C380.045 460.925 378.641 462.33 376.972 462.33Z" fill="#FEFEFE"/>
<path d="M376.972 462.945H337.545C336.579 462.945 335.701 462.593 334.998 461.891C334.296 461.188 333.944 460.223 333.944 459.257L334.208 366.616C334.208 364.596 335.876 363.016 337.808 363.016H376.621C378.64 363.016 380.221 364.684 380.221 366.616L380.66 459.257C380.66 460.223 380.309 461.188 379.606 461.891C378.904 462.593 377.938 462.945 376.972 462.945ZM337.808 364.157C336.491 364.157 335.437 365.211 335.437 366.528L335.174 459.169C335.174 459.871 335.437 460.486 335.876 460.925C336.315 461.364 336.93 461.628 337.545 461.628H376.972C377.586 461.628 378.201 461.364 378.64 460.925C379.079 460.486 379.343 459.783 379.343 459.169L378.904 366.528C378.904 365.211 377.85 364.157 376.533 364.157H337.808Z" fill="#0E2549"/>
<path d="M378.817 462.945H335.613C335.087 462.945 334.648 462.769 334.296 462.418C333.945 462.066 333.77 461.627 333.77 461.101L334.033 364.684C334.033 363.718 334.823 362.928 335.877 362.928H378.378C379.344 362.928 380.134 363.718 380.222 364.684L380.397 413.068C380.397 413.419 380.134 413.683 379.782 413.683C379.431 413.683 379.168 413.419 379.168 413.068L378.992 364.684C378.992 364.421 378.729 364.157 378.465 364.157H335.965C335.614 364.157 335.438 364.421 335.438 364.684L335.174 461.101C335.174 461.276 335.262 461.364 335.35 461.54C335.438 461.627 335.614 461.715 335.789 461.715H378.992C379.168 461.715 379.256 461.627 379.431 461.54C379.519 461.452 379.607 461.276 379.607 461.101L379.431 428.171C379.431 427.82 379.695 427.557 380.046 427.557C380.397 427.557 380.661 427.82 380.661 428.171L380.836 461.101C380.836 461.627 380.661 462.066 380.309 462.418C379.783 462.769 379.344 462.945 378.817 462.945Z" fill="#0E2549"/>
<path d="M388.123 464.875H326.392C325.163 464.875 324.197 463.909 324.285 462.68V457.763C324.285 456.533 325.251 455.567 326.48 455.567H388.123C389.353 455.567 390.319 456.533 390.319 457.763V462.68C390.319 463.909 389.353 464.875 388.123 464.875Z" fill="#FEFEFE"/>
<path d="M388.124 465.49H326.393C325.69 465.49 324.988 465.227 324.461 464.7C323.934 464.173 323.671 463.471 323.671 462.68V457.763C323.671 456.182 324.9 454.953 326.481 454.953H388.124C389.617 454.953 390.934 456.182 390.934 457.763V462.68C390.934 463.471 390.671 464.173 390.144 464.7C389.529 465.227 388.827 465.49 388.124 465.49ZM326.481 456.183C325.603 456.183 324.9 456.885 324.9 457.763V462.68C324.9 463.12 325.076 463.471 325.339 463.822C325.603 464.086 326.042 464.261 326.393 464.261H388.124C388.563 464.261 388.914 464.086 389.178 463.822C389.441 463.559 389.617 463.12 389.617 462.68V457.763C389.617 456.885 388.915 456.183 388.036 456.183H326.481Z" fill="#0E2549"/>
<path d="M277.482 349.404C277.131 349.404 276.867 349.141 276.867 348.789C276.867 348.438 277.131 348.175 277.482 348.175L432.117 346.945C432.469 346.945 432.732 347.209 432.732 347.56C432.732 347.911 432.469 348.175 432.117 348.175L277.482 349.404Z" fill="#0E2549"/>
<path d="M493.058 289.868L414.73 245.787C413.764 245.26 412.623 245.084 411.569 245.172L357.565 255.621L252.982 305.498C252.28 305.849 252.192 306.815 252.807 307.254L258.251 311.118C259.129 311.733 260.358 311.908 261.412 311.469L357.741 270.549L449.416 312.611C450.469 313.138 451.786 313.138 452.84 312.611L464.695 306.903H464.607L492.707 293.732C494.463 293.029 494.551 290.746 493.058 289.868Z" fill="#FEFEFE"/>
<path d="M451.172 313.578C450.469 313.578 449.855 313.402 449.24 313.139L357.741 271.165L261.676 311.997C260.446 312.524 259.041 312.348 257.9 311.646L252.455 307.782C252.016 307.431 251.753 306.904 251.753 306.377C251.841 305.763 252.192 305.323 252.719 305.06L357.302 255.183C357.39 255.183 357.39 255.183 357.478 255.096L411.481 244.646C412.711 244.47 413.94 244.734 415.082 245.261L493.409 289.342C494.375 289.869 494.902 290.835 494.814 291.976C494.726 293.03 494.112 293.908 493.146 294.259L465.397 307.255C465.31 307.343 465.31 307.343 465.222 307.431L453.367 313.139C452.577 313.402 451.874 313.578 451.172 313.578ZM357.829 269.848C357.917 269.848 358.004 269.848 358.092 269.936L449.767 311.997C450.733 312.436 451.787 312.436 452.665 311.997L464.256 306.465C464.344 306.377 464.344 306.377 464.432 306.289L492.531 293.118C493.058 292.854 493.409 292.415 493.497 291.888C493.497 291.274 493.234 290.747 492.707 290.483L414.379 246.402C413.501 245.963 412.535 245.788 411.657 245.875L357.829 256.325L253.333 306.202C253.158 306.289 253.07 306.465 253.07 306.553C253.07 306.641 253.07 306.816 253.246 306.904L258.69 310.768C259.393 311.295 260.358 311.382 261.236 311.031L357.565 270.111C357.653 269.848 357.741 269.848 357.829 269.848Z" fill="#0E2549"/>
<path d="M460.83 306.641C460.743 306.641 460.655 306.641 460.567 306.553L360.814 257.554C360.55 257.378 360.375 257.027 360.55 256.764C360.726 256.5 361.077 256.325 361.34 256.5L461.006 305.499C461.269 305.675 461.445 306.026 461.27 306.289C461.27 306.465 461.006 306.641 460.83 306.641Z" fill="#0E2549"/>
<path d="M25.1133 502.107L40.3045 500.878L39.6899 499.21C38.2849 495.346 37.6703 491.307 37.8459 487.267L37.9337 484.809L27.1329 486.828L25.1133 502.107Z" fill="#FEFEFE"/>
<path d="M25.1128 502.723C24.9372 502.723 24.7615 502.635 24.6737 502.547C24.5859 502.371 24.498 502.196 24.498 502.02L26.5177 486.741C26.5177 486.477 26.7812 486.302 27.0446 486.214L37.8454 484.194C38.021 484.194 38.1966 484.194 38.3722 484.37C38.5479 484.458 38.6356 484.633 38.5478 484.897L38.46 487.356C38.2844 491.395 38.8991 495.259 40.2163 499.034L40.8309 500.703C40.9187 500.878 40.8309 501.054 40.7431 501.23C40.6553 501.405 40.4797 501.493 40.304 501.493L25.1128 502.723ZM27.7471 487.268L25.903 501.405L39.5137 500.264L39.1626 499.386C37.7576 495.434 37.1428 491.395 37.3184 487.18L37.4063 485.424L27.7471 487.268Z" fill="#0E2549"/>
<path d="M41.4456 493.413C42.3237 494.291 43.2019 495.169 43.9922 496.135C46.4509 499.209 53.1245 502.633 54.4416 503.072C55.4075 503.423 56.637 503.95 57.6029 504.653C58.6566 505.443 59.1835 506.76 59.0957 508.077L59.0079 508.692C58.9201 509.482 58.481 510.185 57.7785 510.536C56.2857 511.326 53.3001 512.468 48.2948 512.38C40.6553 512.292 33.6304 511.151 28.8008 510.975C23.9712 510.712 20.9856 510.009 19.6684 508.165C18.4391 506.497 20.7222 497.628 22.654 495.081C23.0053 494.642 23.5321 494.555 23.9712 494.642C24.8493 494.906 26.5178 495.52 27.7471 496.925C28.8887 498.243 31.6108 499.296 34.0695 499.56C36.0013 499.823 37.6698 498.418 37.8454 496.486C37.9332 495.872 38.021 495.169 38.021 494.467C38.1966 492.974 40.2163 492.184 41.4456 493.413Z" fill="#FEFEFE"/>
<path d="M48.7339 512.996C48.5583 512.996 48.3827 512.996 48.2949 512.996C43.5531 512.908 39.1626 512.469 35.2111 512.117C32.7524 511.854 30.6449 511.678 28.8009 511.591C23.3566 511.327 20.6344 510.449 19.2294 508.517C17.7366 506.41 20.2832 497.277 22.215 494.731C22.6541 494.116 23.4444 493.853 24.2347 494.116C25.2006 494.38 26.9569 495.082 28.274 496.575C29.2399 497.716 31.7864 498.77 34.1573 499.034C34.8598 499.121 35.6502 498.946 36.177 498.419C36.7917 497.98 37.1429 497.277 37.2307 496.487C37.3185 495.872 37.4064 495.17 37.4064 494.467C37.4942 493.501 38.1967 492.623 39.1626 492.272C40.1285 491.921 41.1823 492.184 41.8847 492.887C42.5872 493.589 43.641 494.643 44.4313 495.697C46.7144 498.595 53.2124 501.931 54.6174 502.458C55.9345 502.897 57.076 503.424 57.9541 504.127C59.1835 505.005 59.7982 506.585 59.6225 508.166L59.5348 508.781C59.4469 509.834 58.8322 510.712 57.9541 511.151C56.2857 511.942 53.3879 512.996 48.7339 512.996ZM23.62 495.258C23.4444 495.258 23.2688 495.345 23.0931 495.521C21.0735 498.155 19.2294 506.673 20.1075 507.815C21.2491 509.395 23.7956 510.098 28.7131 510.361C30.5571 510.449 32.8402 510.712 35.2111 510.888C39.0748 511.239 43.5531 511.678 48.2071 511.766C53.1245 511.854 56.0223 510.712 57.3395 510.01C57.8663 509.747 58.2176 509.22 58.3054 508.605L58.3932 507.99C58.481 506.849 58.042 505.707 57.1639 505.093C56.4614 504.566 55.4077 504.039 54.1783 503.6C52.8611 503.161 46.0118 499.648 43.3775 496.487C42.7628 495.697 41.8848 494.819 40.9188 493.853C40.5676 493.501 39.9528 493.326 39.5138 493.501C38.9869 493.677 38.6357 494.116 38.6357 494.643C38.5479 495.345 38.4601 495.96 38.4601 496.575C38.3723 497.629 37.8455 498.682 36.9673 499.297C36.0892 499.999 35.0355 500.263 33.9817 500.175C31.2596 499.824 28.5375 498.682 27.3081 497.277C26.1666 495.96 24.6738 495.433 23.8835 495.17C23.7956 495.258 23.7078 495.258 23.62 495.258Z" fill="#0E2549"/>
<path d="M46.0996 509.484C35.6501 509.484 23.7078 507.377 23.0054 507.201C22.6541 507.113 22.4785 506.85 22.4785 506.499C22.5663 506.147 22.8297 505.972 23.1809 505.972C23.4444 505.972 45.6606 510.011 55.9345 507.201C56.2858 507.113 56.637 507.289 56.7249 507.64C56.8127 507.991 56.637 508.343 56.2858 508.43C53.4758 509.221 49.8755 509.484 46.0996 509.484Z" fill="#0E2549"/>
<path d="M75.8672 498.509L90.4438 497.28L89.8292 495.699C88.512 492.011 87.8973 488.148 88.073 484.196L88.1607 481.825L77.7112 483.757L75.8672 498.509Z" fill="#FEFEFE"/>
<path d="M75.8676 499.122C75.6919 499.122 75.5163 499.035 75.4285 498.947C75.3407 498.771 75.2529 498.596 75.2529 498.42L77.1847 483.668C77.1847 483.404 77.4481 483.229 77.7116 483.141L88.1611 481.209C88.3367 481.209 88.5123 481.209 88.688 481.385C88.8636 481.472 88.9515 481.648 88.8637 481.911L88.7759 484.282C88.6002 488.146 89.2149 491.922 90.5321 495.522L91.1467 497.103C91.2345 497.278 91.2346 497.454 91.0589 497.63C90.9711 497.805 90.7955 497.893 90.6199 497.893L75.8676 499.122ZM78.3263 484.282L76.5701 497.805L89.5661 496.664L89.3027 495.873C87.8977 492.098 87.2831 488.146 87.4587 484.107L87.5465 482.438L78.3263 484.282Z" fill="#0E2549"/>
<path d="M92.6389 489.64C93.517 490.518 94.483 491.396 95.2733 492.362C97.8198 495.435 104.757 498.772 106.162 499.211C107.216 499.562 108.445 500.001 109.411 500.704C110.552 501.494 111.079 502.811 110.991 504.216L110.904 504.919C110.816 505.709 110.377 506.499 109.674 506.851C108.182 507.729 105.108 508.87 100.103 508.958C92.2877 509.046 85.0872 508.08 80.1698 507.992C75.2524 507.904 72.179 507.202 70.774 505.358C69.5447 503.689 71.5643 494.645 73.4962 491.923C73.7596 491.484 74.3743 491.308 74.8133 491.484C75.7792 491.747 77.4477 492.362 78.677 493.767C79.9064 495.084 82.7163 496.138 85.175 496.313C87.1068 496.489 88.8631 494.996 88.9509 493.064C89.0387 492.45 89.0387 491.747 89.1265 491.045C89.3899 489.288 91.4096 488.498 92.6389 489.64Z" fill="#FEFEFE"/>
<path d="M99.313 509.573C94.7468 509.573 90.5318 509.221 86.7559 508.958C84.2094 508.782 82.1019 508.607 80.1701 508.519C74.638 508.343 71.7403 507.553 70.3353 505.621C68.7547 503.514 71.1256 494.206 73.0574 491.484C73.4965 490.869 74.2867 490.605 75.077 490.781C76.0429 491.044 77.887 491.659 79.292 493.24C80.3457 494.381 82.8923 495.347 85.351 495.611C86.1413 495.698 86.8438 495.435 87.4585 494.908C88.0731 494.381 88.4243 493.679 88.5122 492.889C88.6 492.274 88.5999 491.571 88.6877 490.869C88.7755 489.815 89.4781 489.025 90.3562 488.586C91.3221 488.235 92.3759 488.41 93.1662 489.113C93.9565 489.815 95.0102 490.869 95.8883 491.923C98.347 494.82 105.021 498.157 106.426 498.596C107.831 499.035 108.972 499.562 109.85 500.177C111.08 501.055 111.782 502.636 111.694 504.216L111.607 504.919C111.519 505.972 110.904 506.851 110.026 507.377C108.27 508.343 105.196 509.485 100.103 509.573C99.8398 509.573 99.5764 509.573 99.313 509.573ZM74.5502 491.923C74.3745 491.923 74.1111 492.01 74.0233 492.186C72.0037 494.996 70.3353 503.689 71.2134 504.919C72.355 506.499 74.9893 507.202 80.0823 507.29C82.0142 507.377 84.2972 507.553 86.7559 507.729C90.7074 507.992 95.2736 508.343 100.015 508.343C105.108 508.255 108.006 507.026 109.323 506.324C109.85 506.06 110.202 505.446 110.289 504.831L110.377 504.128C110.465 502.987 109.938 501.845 109.06 501.143C108.27 500.616 107.216 500.089 105.987 499.738C104.669 499.299 97.5567 495.962 94.8345 492.713C94.2198 491.923 93.254 491.044 92.2881 490.079C91.849 489.727 91.3221 489.552 90.7952 489.815C90.2684 489.991 89.9171 490.43 89.9171 491.045C89.8293 491.747 89.8293 492.449 89.7415 493.064C89.6537 494.206 89.1268 495.172 88.2487 495.874C87.3706 496.577 86.3169 496.928 85.2632 496.84C82.4532 496.577 79.6432 495.435 78.4139 494.03C77.1845 492.713 75.6918 492.186 74.8136 491.923C74.638 492.01 74.638 491.923 74.5502 491.923Z" fill="#0E2549"/>
<path d="M96.0643 505.885C84.9123 505.885 73.409 503.777 72.7065 503.601C72.3553 503.514 72.1797 503.25 72.1797 502.899C72.2675 502.548 72.5309 502.372 72.8821 502.372C73.0577 502.372 94.3958 506.324 107.128 503.601C107.48 503.514 107.831 503.777 107.831 504.041C107.831 504.304 107.655 504.743 107.392 504.743C104.055 505.621 100.104 505.885 96.0643 505.885Z" fill="#0E2549"/>
<path d="M59.4473 371.446C61.0279 376.012 66.9113 406.746 68.5797 418.776C70.0725 429.752 72.4433 476.556 72.8824 484.371C72.8824 485.073 73.497 485.6 74.1995 485.6H91.7617C92.4642 485.6 92.9911 485.074 93.0789 484.459C93.8692 476.292 98.8745 424.22 98.0842 402.18C97.2939 378.12 86.4053 349.405 84.3857 341.502C82.2782 333.599 79.7317 314.896 79.7317 314.896L28.0987 322.623C28.0987 322.623 21.6007 376.715 20.7226 387.515C19.8445 398.316 18.2639 433.265 20.3714 451.969C21.6885 464.087 22.7422 481.473 23.1813 485.688C23.4447 487.62 25.0253 489.113 27.045 489.113H40.7435C41.446 489.113 41.9729 488.586 42.0607 487.883C42.1485 482.878 42.8509 457.15 46.1 440.729C49.8758 421.586 54.003 391.73 56.1104 379.7C56.8129 375.749 57.4276 371.182 57.8667 366.792C57.9545 366.88 57.9545 366.88 59.4473 371.446Z" fill="#FEFEFE"/>
<path d="M40.8313 489.815H27.1328C24.8497 489.815 22.9179 488.146 22.6544 485.863C22.4788 484.195 22.2154 480.682 21.8641 476.116C21.3372 469.091 20.6348 459.52 19.8445 452.144C17.7371 433.528 19.4054 398.316 20.1957 387.603C20.986 376.89 27.484 323.237 27.5718 322.622C27.5718 322.359 27.8353 322.096 28.0987 322.096L79.7317 314.368C79.9073 314.368 80.0829 314.368 80.1707 314.456C80.3463 314.544 80.4342 314.719 80.4342 314.895C80.4342 315.071 83.0685 333.599 85.0881 341.414C85.5272 342.995 86.2297 345.365 87.1956 348.439C91.0593 360.469 98.0842 382.861 98.7866 402.179C99.5769 425.8 93.7814 483.931 93.7814 484.546C93.6936 485.512 92.9034 486.215 91.8496 486.215H74.2874C73.3215 486.215 72.4433 485.424 72.3555 484.458C72.2677 483.405 72.18 481.473 72.0921 479.102C71.3018 463.91 69.3699 428.259 68.0527 418.863C66.3843 406.658 60.5011 376.187 58.9205 371.621C58.657 370.831 58.3936 370.216 58.2179 369.601C57.7789 373.465 57.2521 376.89 56.7252 379.787C56.0227 384.002 55.0567 390.325 53.9152 397.613C51.8077 411.312 49.1734 428.347 46.7147 440.816C43.1145 458.993 42.6754 487.532 42.6754 487.883C42.7632 489.024 41.885 489.815 40.8313 489.815ZM28.7134 323.237C28.0987 328.594 22.2154 377.504 21.4251 387.69C20.6348 398.403 18.9663 433.44 21.0738 451.968C21.8641 459.432 22.6544 469.004 23.0935 476.028C23.4447 480.595 23.7082 484.107 23.8838 485.776C24.0594 487.444 25.4644 488.673 27.1328 488.673H40.8313C41.1825 488.673 41.5338 488.41 41.5338 488.059C41.5338 487.795 41.9729 459.081 45.5731 440.816C48.0318 428.347 50.6661 411.312 52.6858 397.613C53.8273 390.325 54.7933 383.915 55.4958 379.787C56.1105 376.275 56.7252 371.972 57.252 366.967C57.252 366.616 57.6032 366.352 57.9545 366.44C58.2179 366.44 58.3936 366.616 58.4814 366.879C58.4814 366.967 58.657 367.494 60.062 371.445C61.6426 376.012 67.5259 406.658 69.1943 418.951C70.5115 428.435 72.4433 464.086 73.2336 479.277C73.3214 481.648 73.4971 483.492 73.4971 484.634C73.4971 484.985 73.8483 485.249 74.1995 485.249H91.7618C92.113 485.249 92.3765 484.985 92.4643 484.634C92.5521 484.019 98.3476 425.976 97.4695 402.443C96.767 383.3 89.7421 360.996 85.9662 348.966C85.0003 345.892 84.21 343.521 83.771 341.941C81.9269 334.916 79.6439 319.198 79.2048 315.949L28.7134 323.237Z" fill="#0E2549"/>
<path d="M58.3051 370.831C58.2173 370.831 58.2173 370.831 58.3051 370.831C57.866 370.831 57.6904 370.48 57.6904 370.128C58.0417 367.055 58.3051 364.245 58.4808 362.138C58.832 358.098 60.9395 354.41 64.1885 351.952C64.4519 351.776 64.891 351.776 65.0666 352.039C65.2422 352.303 65.2421 352.742 64.9787 352.917C61.9931 355.113 60.0613 358.537 59.71 362.225C59.5344 364.333 59.2711 367.143 58.9198 370.216C58.832 370.567 58.5685 370.831 58.3051 370.831Z" fill="#0E2549"/>
<path d="M28.098 346.594C27.7468 346.594 27.4834 346.331 27.4834 345.98C27.4834 345.628 27.7468 345.365 28.098 345.365C34.5082 345.189 37.4939 338.867 38.4598 336.145C38.5476 335.794 38.8989 335.618 39.2501 335.794C39.6014 335.881 39.777 336.233 39.6014 336.584C38.5476 339.482 35.2107 346.419 28.098 346.594Z" fill="#0E2549"/>
<path d="M82.8044 345.541C82.7165 345.541 82.7165 345.541 82.8044 345.541C74.6379 344.663 74.9014 335.355 74.9014 335.267C74.9014 334.916 75.2526 334.652 75.516 334.652C75.8672 334.652 76.1307 334.916 76.1307 335.267C76.1307 335.618 75.9551 343.521 82.8921 344.312C83.2434 344.312 83.5068 344.663 83.419 345.014C83.3312 345.365 83.0678 345.541 82.8044 345.541Z" fill="#0E2549"/>
<path d="M20.0193 330.963C19.9315 332.982 20.8096 340.446 21.2487 344.925C21.5121 347.383 22.3024 349.754 23.7073 351.862C24.322 352.828 24.5855 353.442 24.9367 353.881C25.3758 354.408 25.0246 355.111 24.3221 355.199L21.5121 355.638C21.5121 355.638 19.5803 353.969 19.5803 354.233C20.8974 374.166 9.74546 366.351 10.1845 354.672C10.3601 350.808 12.9066 348.964 12.9944 347.383C13.2579 344.222 11.9407 341.324 11.6773 337.022C11.5016 334.387 20.2828 326.923 20.0193 330.963Z" fill="#FEFEFE"/>
<path d="M16.1555 367.14C15.6287 367.14 15.014 366.965 14.3993 366.613C11.9406 365.208 9.39407 360.554 9.6575 354.671C9.74532 352.124 10.7991 350.368 11.5894 349.139C12.0285 348.436 12.3797 347.822 12.3797 347.383C12.4675 345.802 12.204 344.221 11.8528 342.377C11.5015 340.885 11.2382 339.128 11.0626 337.197C10.8869 335.089 14.4872 331.489 16.9459 329.996C18.263 329.206 19.3168 328.942 20.0193 329.381C20.3705 329.557 20.7218 329.996 20.7218 330.962C20.634 332.367 21.073 336.758 21.512 340.621C21.6876 342.114 21.8633 343.607 21.9511 344.924C22.2145 347.295 23.0049 349.578 24.322 351.598C24.6733 352.124 24.8488 352.476 25.0245 352.827C25.2001 353.178 25.3757 353.442 25.4635 353.617C25.8148 354.056 25.9026 354.583 25.6392 355.11C25.4636 355.549 24.9367 355.9 24.4098 355.9L21.5999 356.339C21.4243 356.339 21.2486 356.339 21.073 356.164C20.8095 355.9 20.4583 355.637 20.1948 355.461C20.4583 361.608 19.4924 365.472 17.4727 366.701C17.1215 366.965 16.5946 367.14 16.1555 367.14ZM19.2289 330.435C18.9655 330.435 18.4386 330.523 17.5605 331.05C15.014 332.63 12.204 335.792 12.2918 337.109C12.3796 339.041 12.7309 340.621 13.0822 342.202C13.4334 344.046 13.7847 345.802 13.6969 347.558C13.6091 348.349 13.17 349.051 12.6431 349.841C11.8528 351.071 10.9747 352.564 10.8869 354.759C10.7113 359.852 12.8188 364.242 15.0141 365.56C15.7166 365.999 16.419 365.999 16.9459 365.647C17.5605 365.296 19.5802 363.277 19.0534 354.32C19.0534 354.056 19.229 353.793 19.4046 353.705C19.7559 353.529 19.9314 353.442 21.7755 355.022L24.322 354.583H24.4098C24.4976 354.583 24.5854 354.495 24.5854 354.495C24.5854 354.408 24.5854 354.408 24.5854 354.32C24.4098 354.056 24.2342 353.705 23.9708 353.354C23.7951 353.003 23.6195 352.651 23.2682 352.212C21.8633 350.017 20.9852 347.558 20.7218 345.012C20.634 343.782 20.4584 342.29 20.2827 340.797C19.8437 336.67 19.4046 332.455 19.4924 330.962C19.4924 330.611 19.4046 330.523 19.4046 330.435C19.3168 330.435 19.3167 330.435 19.2289 330.435Z" fill="#0E2549"/>
<path d="M41.182 270.725C38.8111 271.427 32.7521 270.812 28.0103 277.135C22.3026 284.774 22.0391 306.551 22.3026 315.859C22.4782 322.357 24.0589 330.173 23.7954 333.509C23.4442 337.724 20.2829 340.622 16.068 341.237C16.068 341.237 9.6578 342.466 5.96974 333.509C3.07197 326.309 -0.87951 305.849 0.174223 285.477C1.31577 263.348 22.3904 237.795 50.0509 245.259L41.182 270.725Z" fill="#0E2549"/>
<path d="M72.7059 276.696C78.238 281.613 85.7019 297.595 87.3703 307.078C88.5119 313.664 88.951 321.655 89.6535 325.08C91.0585 331.578 95.9759 332.368 95.9759 332.368C100.366 333.071 105.196 331.49 105.899 326.924C106.952 319.548 106.338 296.629 104.581 287.584C99.1371 260.187 77.9746 234.986 54.3534 242.801L50.9287 262.822C51.0165 262.822 61.8173 267.124 72.7059 276.696Z" fill="#0E2549"/>
<path d="M96.5907 345.89C96.5907 346.593 96.6786 347.471 97.1176 348.788L100.454 358.798C100.718 359.501 101.508 359.94 102.211 359.764C103.001 359.501 103.44 358.711 103.177 357.92L101.947 353.969C101.596 353.179 102.298 352.388 103.177 352.652C105.723 353.354 108.796 358.096 108.796 358.096C108.796 358.096 109.762 360.028 110.64 360.291L110.904 360.379C111.782 360.642 112.66 359.764 112.485 358.798L110.64 349.491C110.377 348.261 109.762 347.207 108.884 346.505L104.757 343.168C102.298 340.885 103.528 332.367 103.528 332.367C104.23 329.733 100.893 328.504 99.0494 328.065C97.2054 327.626 95.1858 328.504 94.5711 330.348C94.4833 330.699 94.3954 331.05 94.3076 331.489L96.5907 345.89Z" fill="#FEFEFE"/>
<path d="M111.255 360.994C111.079 360.994 110.904 360.994 110.728 360.906L110.464 360.818C109.411 360.467 108.445 358.799 108.269 358.359C107.391 357.13 104.932 353.793 103.001 353.266C102.825 353.179 102.649 353.354 102.649 353.354C102.561 353.442 102.474 353.53 102.561 353.793L103.791 357.745C103.966 358.272 103.879 358.799 103.615 359.325C103.352 359.852 102.913 360.204 102.386 360.291C101.332 360.643 100.191 360.028 99.8394 358.974L96.5025 348.964C96.0634 347.647 95.9757 346.768 95.9757 345.89L93.8682 331.489V331.401C93.8682 330.962 93.956 330.523 94.1316 330.084C94.8341 328.065 97.205 326.835 99.4003 327.45C103.088 328.416 104.845 330.26 104.318 332.455C103.966 334.738 103.527 340.973 105.371 342.641L109.411 345.89C110.465 346.768 111.079 347.91 111.343 349.227L113.099 358.535C113.187 359.238 113.011 359.94 112.484 360.379C112.133 360.818 111.694 360.994 111.255 360.994ZM102.913 352.037C103.088 352.037 103.176 352.037 103.352 352.125C106.074 352.915 109.147 357.569 109.323 357.745C109.323 357.745 109.323 357.745 109.323 357.833C109.762 358.623 110.465 359.589 110.816 359.677L110.991 359.764C111.255 359.852 111.518 359.677 111.606 359.589C111.782 359.413 111.869 359.15 111.869 358.886L110.113 349.578C109.938 348.525 109.411 347.559 108.62 346.944L104.493 343.607C101.859 341.149 102.913 333.158 103.001 332.28C103.001 332.28 103.001 332.28 103.001 332.192C103.527 330.084 100.717 329.031 98.9613 328.592C97.3807 328.152 95.7122 329.031 95.1853 330.436C95.0975 330.699 95.0098 331.05 95.0098 331.314L97.1172 345.627V345.715C97.1172 346.505 97.2051 347.207 97.5563 348.437L100.981 358.535C101.156 358.974 101.596 359.15 102.035 359.062C102.21 358.974 102.386 358.886 102.561 358.623C102.649 358.447 102.649 358.184 102.649 358.008L101.42 354.057C101.156 353.53 101.332 352.915 101.771 352.388C102.035 352.213 102.474 352.037 102.913 352.037Z" fill="#0E2549"/>
<path d="M7.28711 264.579C7.28711 264.579 25.1127 232.44 67.0865 241.045C109.06 249.651 84.034 330.876 84.034 330.876L23.3566 330.7L7.28711 264.579Z" fill="#0E2549"/>
<path d="M24.4102 333.071C24.0589 333.071 23.7955 332.808 23.7955 332.457C23.7955 329.647 23.2686 323.588 22.7417 318.231C22.5661 316.739 22.4783 315.246 22.3027 313.929C21.2489 302.601 22.3027 291.537 25.2005 282.053C25.2883 281.702 25.6396 281.526 25.9908 281.614C26.3421 281.702 26.5177 282.053 26.4299 282.404C23.5321 291.8 22.5661 302.689 23.6198 313.841C23.7077 315.158 23.8833 316.563 24.0589 318.056C24.5858 323.412 25.2005 329.559 25.1127 332.457C25.0249 332.808 24.7614 333.071 24.4102 333.071Z" fill="#FEFEFE"/>
<path d="M45.0458 304.884C44.8702 304.884 44.6946 304.796 44.6068 304.62C44.4312 304.357 44.4311 304.006 44.6946 303.742C52.2463 297.42 59.0078 288.902 64.1887 278.98C64.3643 278.716 64.7156 278.541 65.0668 278.716C65.3303 278.892 65.5058 279.243 65.3302 279.594C59.9737 289.605 53.1245 298.298 45.4849 304.708C45.3093 304.796 45.2215 304.884 45.0458 304.884Z" fill="#FEFEFE"/>
<path d="M44.9585 222.079C44.9585 222.343 44.7829 232.09 44.4317 235.778C44.1682 237.885 43.4657 239.817 42.3242 241.573L40.1289 244.822C42.2364 245.525 45.0463 245.964 49.5247 245.612C54.0908 245.261 57.5155 243.856 59.5351 242.803C59.1839 242.276 58.5692 241.661 57.7789 241.046C56.5496 240.08 55.3203 239.729 54.53 239.554C55.0568 236.831 55.1446 226.733 55.6714 223.923L44.9585 222.079Z" fill="#FEFEFE"/>
<path d="M46.5388 246.314C43.9923 246.314 41.797 246.05 39.953 245.436C39.7773 245.348 39.6018 245.26 39.6018 245.084C39.514 244.909 39.6018 244.733 39.6896 244.558L41.8849 241.309C43.0264 239.64 43.7288 237.796 43.9045 235.776C44.2557 232.966 44.3436 226.732 44.4314 223.746C44.4314 222.166 44.4314 222.166 44.5192 222.078C44.5192 221.902 44.607 221.814 44.7826 221.639C44.9582 221.551 45.046 221.463 45.2216 221.551L55.8469 223.483C56.0225 223.483 56.1981 223.571 56.2859 223.746C56.3737 223.922 56.3737 224.01 56.3737 224.185C56.1103 225.503 55.9346 228.752 55.759 231.913C55.5833 234.81 55.4956 237.62 55.2321 239.201C56.2859 239.464 57.2518 239.991 58.1299 240.606C58.8324 241.133 59.4471 241.748 59.9739 242.45C60.0618 242.626 60.1495 242.801 60.0617 242.977C60.0617 243.153 59.8861 243.328 59.7105 243.416C56.5493 245.084 53.1247 245.963 49.5244 246.314C48.4707 246.314 47.4169 246.314 46.5388 246.314ZM41.0946 244.47C43.3776 245.084 46.012 245.26 49.4366 244.997C52.5978 244.733 55.6712 243.943 58.4812 242.626C58.13 242.274 57.7787 241.923 57.3396 241.572C56.4615 240.869 55.4077 240.43 54.354 240.167C54.0028 240.079 53.8271 239.816 53.915 239.464C54.1784 238.147 54.3541 234.898 54.5297 231.737C54.7053 228.839 54.7931 226.029 55.0565 224.449L45.6607 222.78C45.6607 223.044 45.6607 223.307 45.6607 223.658C45.5729 226.644 45.4851 232.966 45.1338 235.864C44.8704 238.06 44.0801 240.167 42.9386 241.923L41.0946 244.47Z" fill="#0E2549"/>
<path d="M54.1783 209.257C53.3002 208.115 52.2465 207.149 51.0171 206.622C50.139 206.271 49.173 206.096 48.2071 205.92C46.8021 205.744 45.3093 205.656 43.9044 205.832C43.2897 205.92 42.5872 206.183 42.0603 206.271C41.4457 206.271 40.7432 205.832 40.1285 205.656C39.1626 205.305 38.1089 205.305 37.1429 205.569C36.177 205.832 35.2989 206.535 34.9477 207.5C34.4208 208.73 34.772 210.223 34.5964 211.54C34.333 213.296 33.1914 215.14 33.7183 216.808C34.0695 217.774 34.8599 218.477 35.6502 219.092C36.6161 219.882 37.582 220.848 38.8114 221.462C40.9188 222.516 43.2019 222.077 45.3972 222.341C47.3291 222.604 48.5584 224.185 49.5243 225.677C49.8755 226.204 49.9634 226.819 50.139 227.434C50.4903 228.751 50.7536 230.156 51.8074 231.122C53.0367 232.263 56.198 233.054 61.5545 231.034C62.3448 230.683 62.8716 229.892 62.696 229.014C62.5203 227.873 62.2569 226.38 61.8179 224.975C61.8179 222.341 60.0617 219.531 58.6567 217.423C57.3395 215.579 56.637 213.472 55.5833 211.452C55.1442 210.662 54.7052 209.871 54.1783 209.257Z" fill="#FEFEFE"/>
<path d="M55.6706 232.791C53.1241 232.791 51.8069 231.913 51.3678 231.474C50.3141 230.508 49.9629 229.191 49.6995 227.961L49.6116 227.522C49.6116 227.435 49.5238 227.259 49.5238 227.171C49.436 226.732 49.2604 226.293 49.0848 225.942C48.2067 224.537 47.0652 223.132 45.3967 222.868C44.6943 222.781 43.904 222.781 43.1137 222.693C41.6209 222.693 40.0402 222.605 38.5474 221.903C37.5815 221.463 36.7034 220.673 35.9131 220.058C35.7375 219.883 35.4741 219.707 35.2985 219.532C34.5082 218.917 33.63 218.127 33.191 216.985C32.7519 215.668 33.191 214.439 33.5422 213.209C33.7179 212.595 33.9813 211.98 33.9813 211.365C34.0691 210.926 34.0691 210.399 33.9813 209.872C33.9813 208.994 33.8935 208.028 34.3326 207.15C34.7716 206.097 35.7375 205.218 36.9669 204.867C38.0206 204.516 39.1621 204.604 40.3914 204.955C40.5671 205.043 40.8305 205.131 41.094 205.218C41.4452 205.394 41.8842 205.57 42.1477 205.57C42.4111 205.57 42.6745 205.482 43.0258 205.394C43.2892 205.306 43.6405 205.218 43.9918 205.218C45.3968 205.043 46.8017 205.131 48.3823 205.306C49.2604 205.394 50.4019 205.657 51.3678 206.009C52.5972 206.536 53.7388 207.501 54.7925 208.906C55.3194 209.521 55.7584 210.311 56.1974 211.102C56.5487 211.804 56.9 212.507 57.2512 213.209C57.8659 214.526 58.4805 215.844 59.2708 216.985C60.7636 219.18 62.5199 221.99 62.6077 224.8C62.9589 226.117 63.2224 227.61 63.398 228.84C63.5736 229.981 62.9589 231.123 61.8174 231.562C59.183 232.44 57.1634 232.791 55.6706 232.791ZM38.4596 205.921C38.1084 205.921 37.7571 206.009 37.3181 206.097C36.4399 206.36 35.7375 206.975 35.474 207.677C35.2106 208.292 35.2107 209.082 35.2107 209.872C35.2107 210.399 35.2106 210.926 35.1228 211.541C35.035 212.243 34.7716 212.946 34.5959 213.56C34.2447 214.614 33.8934 215.58 34.2447 216.546C34.5081 217.336 35.1228 217.863 35.9131 218.566C36.1765 218.741 36.3522 218.917 36.5278 219.093C37.3181 219.795 38.0206 220.41 38.8987 220.761C40.1281 221.376 41.533 221.376 42.938 221.463C43.7283 221.463 44.5186 221.551 45.3089 221.639C47.5042 221.99 48.9092 223.747 49.8751 225.239C50.2263 225.766 50.3141 226.293 50.4897 226.82L50.6654 227.61C50.9288 228.752 51.1923 229.806 51.9826 230.508C53.2119 231.562 56.1975 232.089 61.115 230.332C61.6418 230.157 61.993 229.542 61.9052 229.015C61.7295 227.786 61.4662 226.381 61.115 225.064C61.115 224.976 61.115 224.976 61.115 224.888C61.115 222.429 59.4465 219.707 58.0416 217.688C57.1635 216.458 56.5488 215.053 55.9341 213.736C55.5828 213.034 55.3194 212.331 54.9682 211.716C54.5291 210.926 54.1779 210.224 53.651 209.697C52.7729 208.467 51.8069 207.677 50.7532 207.238C49.8751 206.887 48.997 206.711 48.1189 206.623C46.6261 206.448 45.2211 206.36 43.9918 206.536C43.8162 206.536 43.5527 206.623 43.2893 206.711C42.938 206.799 42.4989 206.887 42.1477 206.975C41.6208 206.975 41.094 206.711 40.5671 206.536C40.3915 206.448 40.2159 206.36 40.0403 206.272C39.6012 206.009 39.0743 205.921 38.4596 205.921Z" fill="#0E2549"/>
<path d="M49.963 214C50.0509 214.439 51.0168 215.054 51.368 215.317C51.368 215.317 52.3339 221.728 53.1242 223.923C53.9145 226.118 60.8516 224.186 60.8516 224.186L60.9394 221.991L62.3444 221.289C62.6078 221.113 62.6957 220.762 62.5201 220.498C61.3785 218.742 60.4126 216.722 59.8857 214.703C59.2711 212.507 59.3589 210.224 58.6564 208.117C58.1295 206.449 57.1636 204.78 55.6708 203.814C54.178 202.848 52.4218 202.497 50.5778 202.409C46.6263 202.234 43.9041 203.287 41.3576 206.273C41.182 206.448 41.0064 206.712 40.9186 206.975C40.7429 207.502 41.1819 208.029 41.621 208.205C42.3235 208.468 43.2017 208.293 43.992 208.205C45.2213 208.029 46.5384 208.029 47.8556 208.117C48.8215 208.205 49.6996 208.468 50.4899 208.995C51.2802 209.522 51.8071 210.4 51.8071 211.366C51.8071 211.981 51.5437 212.507 51.1924 212.947C51.0168 213.122 50.0508 213.737 50.0508 213.825C49.963 214 49.963 214 49.963 214Z" fill="#FEFEFE"/>
<path d="M55.847 225.678C54.2664 225.678 52.8614 225.327 52.5101 224.186C51.8076 222.166 51.0173 216.897 50.7539 215.668C50.7539 215.668 50.6661 215.58 50.5783 215.58C49.8758 215.053 49.349 214.614 49.2611 214.175C49.2611 213.999 49.2611 213.912 49.2611 213.824C49.349 213.56 49.4367 213.473 49.9636 213.121C50.1392 213.034 50.4904 212.77 50.4904 212.682C50.666 212.419 50.9296 211.98 51.0174 211.453C51.0174 210.838 50.6661 210.136 49.9636 209.697C49.3489 209.345 48.6464 209.082 47.5927 208.906C46.3634 208.731 45.1339 208.731 43.9046 208.906H43.6412C42.9387 208.994 42.0605 209.17 41.2702 208.819C40.3921 208.467 39.9531 207.589 40.2166 206.799C40.3044 206.448 40.5678 206.184 40.7434 205.921C43.3777 202.847 46.2755 201.618 50.4026 201.794C52.7735 201.882 54.4419 202.408 55.7591 203.287C57.6031 204.516 58.5691 206.536 59.0082 207.94C59.3594 209.17 59.535 210.399 59.7106 211.629C59.8862 212.682 59.9741 213.648 60.2375 214.614C60.7644 216.458 61.6424 218.39 62.784 220.234C62.9596 220.497 63.0475 220.849 62.9597 221.112C62.8718 221.463 62.6962 221.727 62.3449 221.815L61.2912 222.429L61.2034 224.273C61.2034 224.537 61.0278 224.8 60.7644 224.8C60.2375 225.064 57.9544 225.678 55.847 225.678ZM50.7539 214.087C50.9295 214.263 51.2808 214.526 51.4564 214.614C51.632 214.702 51.7198 214.79 51.8076 214.878C51.8954 214.965 51.9833 215.141 51.9833 215.229C51.9833 215.317 52.9492 221.639 53.6517 223.746C54.0029 224.8 57.5154 224.449 60.2375 223.746L60.3253 222.078C60.3253 221.902 60.501 221.639 60.6766 221.551L61.9938 220.849C60.7644 218.917 59.8863 216.897 59.3594 214.965C59.096 213.912 58.9203 212.858 58.8325 211.892C58.6568 210.663 58.4813 209.521 58.13 208.467C57.691 207.238 56.9007 205.482 55.4079 204.428C54.2664 203.638 52.7736 203.199 50.6661 203.111C46.8902 202.935 44.3437 203.989 41.9728 206.799C41.7972 206.975 41.7093 207.15 41.6215 207.238C41.5337 207.501 41.9728 207.677 41.9728 207.677C42.4996 207.853 43.1143 207.765 43.729 207.677H43.9925C45.3096 207.501 46.6268 207.501 47.944 207.589C48.7343 207.677 49.8758 207.853 50.8417 208.555C51.8954 209.258 52.5101 210.399 52.4223 211.453C52.4223 212.068 52.1589 212.77 51.632 213.385C51.5442 213.56 51.2808 213.736 50.7539 214.087Z" fill="#0E2549"/>
<path d="M50.5775 219.794C50.5775 219.794 48.8212 215.754 47.3284 216.808C45.7478 217.862 47.8553 222.34 50.5775 219.794Z" fill="#FEFEFE"/>
<path d="M62.432 219.357C62.2564 219.357 62.1686 219.269 61.993 219.182C61.7295 218.918 61.7295 218.567 61.993 218.304C62.0808 218.216 62.1685 218.128 62.2563 218.04C62.871 217.338 64.0126 216.284 64.0126 215.142C64.0126 214.176 63.837 213.298 63.4857 212.596C63.2223 212.069 62.9588 211.806 62.6954 211.806C62.2563 211.806 61.6416 212.684 61.466 214.176C61.466 214.528 61.1148 214.791 60.7636 214.703C60.4123 214.703 60.1489 214.352 60.2367 214.001C60.5002 211.893 61.4661 210.576 62.6076 210.576C63.3979 210.576 64.0125 211.103 64.5394 212.069C64.9785 212.859 65.1541 214.001 65.1541 215.142C65.1541 216.723 63.837 218.128 63.0467 218.918C62.9588 219.006 62.871 219.094 62.7832 219.182C62.6954 219.269 62.6076 219.357 62.432 219.357Z" fill="#0E2549"/>
<path d="M56.8116 220.324C55.9335 220.324 55.1432 219.798 54.5285 218.832C54.0016 217.954 53.6504 216.812 53.6504 215.583C53.6504 212.948 54.9676 210.841 56.7238 210.841C57.6019 210.841 58.48 211.368 59.0946 212.334C59.6215 213.212 59.9727 214.353 59.9727 215.583C59.9727 218.217 58.6556 220.237 56.8116 220.324ZM56.8116 212.07C55.7578 212.07 54.8797 213.739 54.8797 215.583C54.8797 216.549 55.1431 217.514 55.5822 218.129C55.7578 218.48 56.2847 219.007 56.8116 219.007C57.8653 219.007 58.7434 217.339 58.6556 215.495C58.6556 214.529 58.3921 213.651 57.953 212.948C57.8652 212.685 57.4262 212.07 56.8116 212.07Z" fill="#0E2549"/>
<path d="M54.4408 214.44H51.1918C50.8405 214.44 50.5771 214.177 50.5771 213.826C50.5771 213.474 50.8405 213.211 51.1918 213.211H54.4408C54.792 213.211 55.0555 213.474 55.0555 213.826C55.0555 214.177 54.792 214.44 54.4408 214.44Z" fill="#0E2549"/>
<path d="M151.033 198.544C147.696 195.822 145.852 192.398 149.979 189.061C154.194 185.636 160.165 187.656 163.502 191.344C165.785 193.89 168.683 203.989 162.8 204.164C161.922 204.164 161.043 203.901 160.165 203.637C157.882 202.759 153.931 200.915 151.033 198.544Z" fill="#FEFEFE"/>
<path d="M162.712 204.778C161.746 204.778 160.78 204.514 159.99 204.163C157.444 203.285 153.404 201.353 150.594 199.07C148.136 197.05 146.906 195.119 146.906 193.187C146.906 191.518 147.784 190.026 149.541 188.621C154.019 185.02 160.341 187.04 163.942 190.992C165.698 192.923 167.893 199.07 166.4 202.495C165.786 203.988 164.556 204.778 162.8 204.778C162.8 204.778 162.8 204.778 162.712 204.778ZM151.385 198.104C154.107 200.299 157.97 202.144 160.429 203.022C161.132 203.285 162.01 203.549 162.8 203.549C164.029 203.549 164.82 203.022 165.259 201.968C166.488 199.07 164.556 193.45 163.064 191.782C159.902 188.269 154.282 186.513 150.331 189.587C148.838 190.728 148.136 191.957 148.136 193.187C148.223 194.68 149.277 196.348 151.385 198.104Z" fill="#0E2549"/>
<path d="M174.918 217.774C175.621 217.071 176.323 216.457 177.113 215.842C180.187 213.471 183.963 211.978 186.685 209.256C190.022 205.919 190.197 201.705 186.948 198.192C183.963 195.031 179.133 193.626 174.479 193.538C171.845 193.538 168.859 193.977 166.664 195.382C164.469 196.875 164.03 199.509 161.659 200.826C159.288 202.144 155.688 201.441 153.053 201.792C148.75 202.319 145.765 205.744 144.272 209.256C142.779 213.032 145.062 215.052 148.487 217.159C152.878 219.794 154.634 224.096 158.849 226.731C163.766 229.804 167.893 227.784 170.176 223.745C171.406 221.55 172.986 219.53 174.918 217.774Z" fill="#FEFEFE"/>
<path d="M163.591 228.838C162.01 228.838 160.254 228.311 158.586 227.258C156.39 225.941 154.897 224.184 153.405 222.428C151.824 220.672 150.419 218.916 148.224 217.686C144.975 215.755 141.989 213.471 143.745 209.081C145.15 205.744 148.224 201.88 152.966 201.266C153.932 201.178 154.897 201.178 155.951 201.178C157.883 201.178 159.903 201.178 161.308 200.388C162.361 199.773 163.064 198.807 163.766 197.753C164.469 196.787 165.171 195.734 166.313 194.943C168.772 193.275 172.108 192.924 174.479 193.011C179.836 193.099 184.578 194.855 187.388 197.841C190.812 201.441 190.637 206.183 187.036 209.696C185.368 211.276 183.436 212.505 181.504 213.647C180.099 214.437 178.694 215.315 177.465 216.281C176.675 216.896 175.972 217.511 175.357 218.125C173.513 219.882 172.021 221.901 170.791 224.009C169.474 226.38 167.542 227.96 165.347 228.575C164.732 228.751 164.205 228.838 163.591 228.838ZM155.863 202.407C154.897 202.407 154.019 202.407 153.229 202.495C149.014 203.022 146.204 206.534 144.975 209.52C143.658 212.769 145.326 214.525 148.926 216.633C151.297 218.038 152.878 219.882 154.371 221.638C155.863 223.306 157.268 224.975 159.288 226.204C161.308 227.433 163.239 227.872 165.083 227.346C166.928 226.907 168.596 225.502 169.738 223.394C170.967 221.199 172.547 219.091 174.479 217.247C175.182 216.545 175.972 215.93 176.675 215.315C177.992 214.262 179.485 213.384 180.889 212.593C182.821 211.452 184.665 210.31 186.246 208.817C189.407 205.656 189.495 201.793 186.509 198.631C183.963 195.909 179.572 194.241 174.479 194.153C172.284 194.153 169.298 194.416 167.015 195.909C166.049 196.524 165.435 197.402 164.82 198.368C164.118 199.509 163.327 200.651 161.922 201.353C160.166 202.319 158.059 202.319 155.951 202.319C155.951 202.407 155.951 202.407 155.863 202.407Z" fill="#0E2549"/>
<path d="M194.5 457.588L199.505 476.467C200.471 480.243 200.735 484.195 200.296 488.058L199.33 496.049L224.531 491.922L221.282 489.551C215.662 485.424 211.623 479.365 210.043 472.516L205.74 454.251L194.5 457.588Z" fill="#FEFEFE"/>
<path d="M199.242 496.663C199.066 496.663 198.891 496.576 198.803 496.488C198.627 496.312 198.627 496.137 198.627 495.961L199.593 487.97C200.032 484.194 199.857 480.331 198.803 476.643L193.886 457.763C193.798 457.412 193.973 457.148 194.325 456.973L205.389 453.724C205.565 453.636 205.74 453.724 205.916 453.812C206.091 453.899 206.179 454.075 206.179 454.163L210.482 472.428C212.063 479.101 216.014 484.985 221.546 489.112L224.795 491.483C224.971 491.658 225.059 491.922 225.059 492.097C224.971 492.361 224.795 492.536 224.532 492.536L199.33 496.663H199.242ZM195.203 458.027L200.032 476.379C201.086 480.243 201.35 484.194 200.823 488.234L199.945 495.434L222.863 491.658L220.756 490.165C214.96 485.951 210.921 479.716 209.253 472.779L205.038 455.217L195.203 458.027Z" fill="#0E2549"/>
<path d="M196.784 499.999C196.608 496.662 196.521 489.989 198.716 485.861C199.067 485.159 200.033 484.808 200.736 485.071L206.531 487.354C207.409 487.706 208.375 487.091 208.375 486.125V485.774C208.375 485.247 208.814 484.72 209.341 484.72L214.346 484.457C216.19 484.369 218.034 484.72 219.703 485.51C224.796 487.793 235.772 493.238 238.319 498.945C238.933 500.263 237.967 501.755 236.562 501.755C232.084 501.931 220.669 502.282 198.891 502.107C197.838 502.019 196.872 501.141 196.784 499.999Z" fill="#FEFEFE"/>
<path d="M210.658 502.722C207.146 502.722 203.282 502.722 198.98 502.634C197.487 502.634 196.257 501.492 196.169 499.999C195.994 496.399 195.994 489.813 198.189 485.511C198.716 484.457 199.945 484.018 200.999 484.457L206.795 486.74C207.058 486.828 207.322 486.828 207.497 486.652C207.673 486.477 207.848 486.301 207.848 486.038V485.686C207.848 484.808 208.551 484.106 209.429 484.018L214.434 483.754C216.366 483.667 218.298 484.018 220.142 484.808C226.113 487.442 236.475 492.799 239.109 498.507C239.46 499.297 239.373 500.175 238.934 500.965C238.495 501.756 237.616 502.195 236.738 502.283C232.699 502.458 224.708 502.722 210.658 502.722ZM200.121 485.598C199.77 485.598 199.418 485.774 199.243 486.125C197.135 490.077 197.135 496.487 197.399 499.912C197.487 500.702 198.101 501.404 198.98 501.404C220.405 501.58 231.733 501.229 236.563 501.053C237.002 501.053 237.441 500.79 237.704 500.351C237.968 499.999 237.968 499.473 237.792 499.121C235.245 493.589 224.093 488.145 219.439 486.038C217.859 485.335 216.103 484.984 214.346 485.072L209.341 485.335C209.078 485.335 208.902 485.511 208.902 485.774V486.125C208.902 486.74 208.551 487.355 208.024 487.794C207.497 488.145 206.795 488.233 206.18 487.969L200.384 485.686C200.384 485.598 200.297 485.598 200.121 485.598Z" fill="#0E2549"/>
<path d="M216.98 498.859C212.502 498.859 206.882 498.771 200.296 498.42C199.945 498.42 199.682 498.156 199.682 497.805C199.682 497.454 200.033 497.19 200.296 497.19C222.074 498.156 232.172 497.015 232.26 497.015C232.611 497.015 232.874 497.19 232.962 497.541C232.962 497.893 232.786 498.156 232.435 498.244C232.435 498.332 227.43 498.859 216.98 498.859Z" fill="#0E2549"/>
<path d="M222.689 493.59C222.601 493.59 222.425 493.59 222.337 493.502L213.732 487.882C213.468 487.707 213.381 487.356 213.556 487.004C213.732 486.741 214.083 486.653 214.434 486.829L223.04 492.449C223.303 492.624 223.391 492.975 223.215 493.327C223.04 493.415 222.864 493.59 222.689 493.59Z" fill="#0E2549"/>
<path d="M143.482 460.837L140.409 482.175H132.682L133.472 461.188L143.482 460.837Z" fill="#FEFEFE"/>
<path d="M140.409 482.789H132.682C132.507 482.789 132.331 482.701 132.243 482.614C132.155 482.526 132.067 482.35 132.067 482.174L132.858 461.188C132.858 460.836 133.121 460.573 133.472 460.573L143.483 460.222C143.658 460.222 143.834 460.31 143.922 460.397C144.01 460.573 144.098 460.749 144.098 460.924L141.024 482.262C140.936 482.526 140.673 482.789 140.409 482.789ZM133.297 481.56H139.795L142.693 461.451L133.999 461.714L133.297 481.56Z" fill="#0E2549"/>
<path d="M193.183 320.163C193.183 320.163 203.282 385.407 203.721 401.037C204.16 416.58 210.57 463.822 210.57 463.822C210.57 463.822 202.228 466.896 192.744 464.788C192.744 464.788 162.889 381.28 160.693 355.639C158.498 329.998 165.874 318.319 165.874 318.319L193.183 320.163Z" fill="#0E2549"/>
<path d="M183.348 316.124C183.348 316.124 149.102 420.707 148.575 463.207C148.575 463.207 141.024 464.964 130.135 463.207C130.135 463.207 123.198 346.506 143.219 313.753L183.348 316.124Z" fill="#0E2549"/>
<path d="M140.057 502.107C136.896 502.458 132.506 503.249 125.744 502.195C123.812 501.844 122.495 499.912 123.022 497.98C124.427 492.887 127.413 483.491 131.188 478.661C131.452 478.31 132.067 478.398 132.154 478.837L132.33 479.715C132.418 480.242 133.12 480.33 133.384 479.891L134.174 478.135C134.35 477.783 134.701 477.608 135.052 477.52L137.95 477.432C138.565 477.344 139.091 477.783 139.267 478.398L139.355 479.803C139.355 480.33 140.145 480.505 140.409 480.066L141.638 478.749C141.901 478.398 142.428 478.574 142.428 479.013L142.253 484.545C142.165 488.584 142.428 492.536 143.131 496.487L143.482 498.507C143.833 500.263 141.901 501.844 140.057 502.107Z" fill="#FEFEFE"/>
<path d="M132.418 503.249C130.486 503.249 128.203 503.073 125.657 502.722C124.515 502.546 123.549 501.932 122.934 500.966C122.32 500 122.144 498.858 122.495 497.717C123.988 492.536 126.974 483.14 130.837 478.135C131.101 477.784 131.54 477.608 131.979 477.696C132.418 477.784 132.769 478.047 132.945 478.486V478.574L133.033 479.189L133.735 477.608C134.087 477.081 134.613 476.73 135.14 476.642L138.126 476.554C139.004 476.466 139.882 477.081 140.058 478.047C140.058 478.047 140.058 478.047 140.058 478.135L140.146 479.364L141.375 478.135C141.638 477.784 142.077 477.696 142.516 477.784C142.955 477.959 143.219 478.31 143.219 478.837L143.043 484.369C142.955 488.321 143.219 492.36 143.921 496.224L144.273 498.244C144.536 500.527 142.341 502.371 140.233 502.634C139.794 502.634 139.443 502.722 139.004 502.81C137.16 503.073 135.052 503.249 132.418 503.249ZM131.716 479.013C128.028 483.843 125.13 492.975 123.725 498.068C123.549 498.858 123.637 499.649 124.076 500.263C124.515 500.966 125.13 501.317 125.92 501.493C131.716 502.458 135.843 501.932 138.828 501.58C139.267 501.493 139.706 501.493 140.146 501.405C141.638 501.229 143.307 499.912 143.131 498.419L142.78 496.487C142.077 492.536 141.814 488.409 141.902 484.369L142.077 479.276L141.111 480.242C140.848 480.681 140.409 480.857 139.882 480.769C139.355 480.681 139.004 480.242 139.004 479.715L138.916 478.398C138.828 478.135 138.565 477.959 138.301 477.959L135.316 478.047C135.14 478.047 134.965 478.135 134.877 478.31L134.087 479.979C133.823 480.418 133.384 480.681 132.857 480.594C132.33 480.506 131.979 480.154 131.891 479.628L131.716 479.013Z" fill="#0E2549"/>
<path d="M133.56 499.297C131.628 499.297 129.345 499.034 126.71 498.419C126.359 498.331 126.184 497.98 126.271 497.629C126.359 497.278 126.71 497.102 127.062 497.19C134.262 499.122 139.355 497.19 139.355 497.19C139.707 497.102 140.058 497.19 140.146 497.541C140.233 497.892 140.146 498.244 139.794 498.331C139.619 498.419 137.336 499.297 133.56 499.297Z" fill="#0E2549"/>
<path d="M136.984 491.482H129.959C129.608 491.482 129.345 491.219 129.345 490.868C129.345 490.516 129.608 490.253 129.959 490.253H136.984C137.335 490.253 137.599 490.516 137.599 490.868C137.599 491.219 137.335 491.482 136.984 491.482Z" fill="#0E2549"/>
<path d="M243.236 219.091L249.734 212.33C250.876 211.188 252.72 212.506 252.017 213.911L249.997 218.038C249.997 218.038 251.402 218.652 252.017 218.74C253.51 218.828 254.915 218.213 255.969 217.16C257.198 215.93 259.042 213.911 259.745 213.471C260.71 212.769 261.94 211.627 263.345 211.54C264.75 211.452 265.716 213.032 264.925 214.262L262.203 218.477C260.184 221.55 257.286 223.921 253.949 225.15L245.168 228.487L244.553 253.601L233.138 244.82L238.319 228.224C239.284 224.799 241.041 221.726 243.236 219.091Z" fill="#FEFEFE"/>
<path d="M244.553 254.129C244.377 254.129 244.29 254.129 244.202 254.041L232.786 245.26C232.611 245.085 232.523 244.821 232.611 244.558L237.791 227.961C238.845 224.537 240.601 221.463 242.885 218.741L249.383 211.98C250.085 211.277 251.139 211.102 252.017 211.716C252.895 212.331 253.158 213.385 252.719 214.263L250.963 217.863C251.402 218.039 251.929 218.214 252.193 218.214C253.422 218.302 254.739 217.775 255.705 216.809C257.11 215.317 258.866 213.56 259.569 213.034C259.744 212.946 259.832 212.858 260.008 212.682C260.974 211.98 262.115 211.014 263.52 210.926C264.486 210.838 265.276 211.277 265.803 212.068C266.242 212.858 266.242 213.824 265.715 214.526L262.993 218.741C260.886 221.903 257.988 224.361 254.388 225.678L245.958 228.84L245.343 253.602C245.343 253.866 245.168 254.041 244.992 254.129C244.816 254.041 244.729 254.129 244.553 254.129ZM233.84 244.47L244.026 252.197L244.641 228.313C244.641 228.049 244.816 227.874 245.08 227.786L253.861 224.449C257.198 223.22 259.92 220.937 261.852 217.951L264.574 213.736C264.837 213.385 264.837 212.946 264.574 212.507C264.31 212.155 263.959 211.892 263.52 211.98C262.466 212.068 261.5 212.858 260.622 213.473C260.447 213.56 260.359 213.736 260.183 213.824C259.744 214.175 258.339 215.492 256.495 217.512C255.266 218.741 253.685 219.444 252.017 219.356C251.227 219.268 249.909 218.654 249.734 218.654C249.558 218.566 249.47 218.478 249.383 218.302C249.295 218.127 249.295 217.951 249.383 217.863L251.402 213.736C251.578 213.297 251.402 212.946 251.139 212.77C250.875 212.595 250.436 212.507 250.085 212.858L243.587 219.619C241.392 222.166 239.723 225.152 238.757 228.401L233.84 244.47Z" fill="#0E2549"/>
<path d="M263.696 260.013L231.82 237.796C231.82 237.796 220.053 252.373 214.17 252.988C209.165 253.515 197.31 242.099 193.886 238.675C192.042 236.479 189.495 234.899 186.597 234.372C180.012 233.055 168.333 228.401 150.156 235.25C150.156 235.25 141.287 240.343 140.672 247.719C140.058 255.798 145.765 270.287 143.746 281C140.058 300.494 135.755 306.904 133.647 322.885C133.647 322.885 133.208 333.862 138.565 334.213L195.642 337.55C198.979 337.638 203.106 321.129 203.545 317.705C204.072 313.051 204.072 304.709 202.14 290.132C201.789 287.585 201.613 282.931 201.35 277.311C213.204 280.297 236.211 281.614 263.696 260.013Z" fill="#FEFEFE"/>
<path d="M195.642 337.989L138.477 334.653C132.593 334.301 132.944 323.149 132.944 322.71C134.086 314.105 135.754 308.485 137.774 301.899C139.442 296.279 141.374 289.869 143.13 280.737C144.272 274.678 142.867 267.126 141.638 260.54C140.672 255.623 139.794 250.969 140.057 247.544C140.672 239.904 149.453 234.811 149.804 234.636H149.892C165.874 228.665 176.674 231.299 183.787 233.055C184.841 233.319 185.807 233.582 186.685 233.758C189.67 234.372 192.393 235.953 194.324 238.324C201.349 245.349 210.306 252.813 214.082 252.461C219.614 251.935 231.205 237.621 231.293 237.534C231.469 237.27 231.82 237.27 232.171 237.446L264.046 259.662C264.222 259.75 264.31 259.925 264.31 260.189C264.31 260.364 264.222 260.54 264.046 260.716C236.737 282.229 213.643 281.088 201.876 278.19C201.964 279.156 201.964 280.034 202.052 280.912C202.227 284.952 202.403 288.201 202.666 290.132C204.335 302.338 204.774 311.646 204.071 317.881C203.808 319.988 199.857 337.989 195.642 337.989ZM150.331 235.689C149.716 236.041 141.726 240.87 141.199 247.632C140.935 250.969 141.813 255.447 142.691 260.277C144.009 267.038 145.414 274.678 144.184 280.912C142.428 290.132 140.496 296.543 138.828 302.163C136.896 308.661 135.228 314.368 134.086 322.71C134.086 322.798 133.735 333.072 138.477 333.335L195.554 336.672C198.1 336.672 202.227 321.657 202.754 317.442C203.193 313.227 203.369 305.148 201.349 290.045C201.086 288.025 200.91 284.776 200.735 280.737C200.647 279.595 200.647 278.454 200.559 277.224C200.559 277.049 200.647 276.873 200.822 276.697C200.998 276.609 201.174 276.522 201.349 276.609C212.501 279.507 235.332 281.176 262.554 260.013L231.82 238.587C229.712 241.134 219.614 252.988 214.082 253.515C208.989 254.042 197.837 243.505 193.359 239.026C191.514 236.831 189.056 235.426 186.334 234.899C185.456 234.724 184.402 234.46 183.348 234.197C176.499 232.44 165.961 229.894 150.331 235.689Z" fill="#0E2549"/>
<path d="M134.964 290.835L144.097 304.973L148.136 302.25C150.595 300.582 153.668 299.88 156.654 300.406C156.654 300.406 161.044 301.021 162.888 302.514C167.367 306.114 163.415 308.397 162.537 308.836C161.132 309.539 159.2 310.241 157.181 309.978C155.951 309.802 152.79 310.241 149.98 311.734C147.785 312.876 145.326 315.334 141.814 314.368C138.916 313.578 137.599 311.822 137.599 311.822L125.832 297.157L134.964 290.835Z" fill="#FEFEFE"/>
<path d="M143.394 315.246C142.867 315.246 142.252 315.158 141.726 314.983C138.652 314.105 137.247 312.348 137.159 312.261L125.393 297.596C125.305 297.42 125.217 297.333 125.305 297.157C125.305 296.981 125.393 296.806 125.568 296.718L134.701 290.308C134.876 290.22 135.052 290.132 135.14 290.22C135.315 290.22 135.491 290.308 135.579 290.483L144.36 304.094L147.872 301.723C150.507 299.967 153.668 299.265 156.829 299.791C157.005 299.791 161.395 300.406 163.327 301.987C164.995 303.304 165.786 304.709 165.61 306.026C165.522 307.343 164.469 308.485 162.8 309.363C161.395 310.065 159.288 310.856 157.005 310.592C155.951 310.417 152.965 310.768 150.155 312.348C149.716 312.612 149.277 312.875 148.838 313.139C147.345 314.105 145.589 315.246 143.394 315.246ZM126.71 297.42L138.038 311.558C138.038 311.558 139.267 313.139 141.901 313.841C144.36 314.544 146.38 313.226 148.136 312.085C148.663 311.734 149.102 311.47 149.541 311.207C152.526 309.626 155.775 309.187 157.18 309.363C159.112 309.626 160.956 308.924 162.186 308.309C162.888 307.958 164.205 307.08 164.293 305.938C164.381 305.06 163.766 304.006 162.449 302.953C160.693 301.548 156.566 301.021 156.478 301.021C153.668 300.494 150.77 301.109 148.399 302.689L144.36 305.411C144.184 305.499 144.009 305.499 143.921 305.499C143.745 305.499 143.657 305.411 143.482 305.236L134.701 291.625L126.71 297.42Z" fill="#0E2549"/>
<path d="M153.405 257.73L138.038 265.897C134.789 267.653 133.384 271.517 134.789 274.941L140.497 289.254L114.241 309.188C114.241 309.188 100.016 276.873 104.758 262.296C112.924 237.358 164.908 231.65 164.908 231.65L153.405 257.73Z" fill="#FEFEFE"/>
<path d="M114.241 309.715C114.153 309.715 114.153 309.715 114.065 309.715C113.89 309.627 113.714 309.539 113.626 309.364C113.011 308.046 99.4008 276.698 104.143 262.033C107.567 251.584 119.158 242.978 137.686 237.007C151.648 232.529 164.732 231.036 164.82 231.036C165.171 231.036 165.435 231.212 165.522 231.563C165.522 231.914 165.347 232.178 164.996 232.266C164.469 232.353 113.275 238.149 105.372 262.473C101.157 275.469 112.485 303.305 114.504 308.134L139.706 288.991L134.174 275.117C132.681 271.429 134.174 267.214 137.686 265.37L143.57 262.209C143.833 262.033 144.272 262.121 144.448 262.473C144.623 262.736 144.536 263.175 144.184 263.351L138.301 266.512C135.315 268.092 134.086 271.605 135.403 274.766L141.111 289.079C141.199 289.343 141.111 289.606 140.935 289.782L114.68 309.715C114.504 309.715 114.417 309.715 114.241 309.715Z" fill="#0E2549"/>
<path d="M202.667 286.62C202.404 286.62 202.14 286.356 202.052 286.093L201.262 280.034C200.56 274.853 200.033 269.145 199.769 263.965L199.506 258.959C199.506 258.608 199.769 258.345 200.12 258.345C200.472 258.345 200.735 258.608 200.735 258.959L200.999 263.965C201.262 269.145 201.789 274.853 202.491 279.946L203.282 286.005C203.369 286.269 203.106 286.532 202.667 286.62Z" fill="#0E2549"/>
<path d="M179.572 218.126L177.64 234.459L187.826 237.62C187.826 237.62 173.338 247.63 155.688 237.532L165.259 233.493L170.176 214.613L179.572 218.126Z" fill="#FEFEFE"/>
<path d="M171.845 242.625C166.928 242.625 161.308 241.483 155.337 238.059C155.161 237.971 154.985 237.707 154.985 237.444C154.985 237.181 155.161 237.005 155.337 236.917L164.557 232.966L169.386 214.35C169.474 214.174 169.562 213.998 169.738 213.998C169.913 213.911 170.089 213.911 170.265 213.998L179.748 217.687C180.012 217.774 180.187 218.038 180.099 218.301L178.168 234.107L187.827 237.093C188.09 237.181 188.178 237.356 188.266 237.62C188.266 237.883 188.178 238.059 188.002 238.234C188.002 238.147 181.417 242.625 171.845 242.625ZM157.005 237.532C170.879 244.82 182.646 239.727 186.246 237.707L177.465 234.985C177.202 234.898 177.026 234.634 177.026 234.283L178.958 218.477L170.528 215.228L165.786 233.493C165.698 233.668 165.611 233.844 165.435 233.932L157.005 237.532Z" fill="#0E2549"/>
<path d="M169.826 219.093C169.826 219.093 166.226 220.498 165.26 217.337C164.294 214.175 167.455 214.351 167.455 214.351C167.455 214.351 164.118 207.414 169.299 206.711C174.48 206.009 178.256 204.077 178.256 204.077C178.256 204.077 182.032 210.663 183.261 216.195C183.963 219.532 183.788 222.517 181.241 223.396C174.392 225.854 169.826 219.093 169.826 219.093Z" fill="#FEFEFE"/>
<path d="M178.343 224.537C173.689 224.537 170.528 220.937 169.65 219.707C168.947 219.883 167.63 220.146 166.401 219.532C165.522 219.093 164.996 218.39 164.644 217.424C164.293 216.283 164.381 215.317 164.908 214.614C165.347 214.087 165.962 213.824 166.488 213.736C165.962 212.419 165.171 209.697 166.225 207.853C166.752 206.799 167.806 206.184 169.211 206.009C174.216 205.394 177.992 203.462 177.992 203.462C178.255 203.287 178.606 203.462 178.782 203.726C178.958 203.989 182.646 210.487 183.875 216.019C184.841 220.41 184.051 223.044 181.504 223.922C180.363 224.449 179.309 224.537 178.343 224.537ZM169.825 218.478C170.001 218.478 170.264 218.566 170.352 218.741C170.528 219.005 174.655 225.064 181.065 222.869C182.909 222.254 183.436 220.059 182.646 216.371C181.68 211.804 178.87 206.536 177.992 204.867C176.762 205.394 173.513 206.711 169.386 207.238C168.42 207.326 167.718 207.765 167.367 208.468C166.488 210.048 167.542 213.034 168.069 214C168.157 214.175 168.157 214.439 167.981 214.614C167.893 214.79 167.63 214.878 167.454 214.878C167.191 214.878 166.313 214.966 165.961 215.405C165.698 215.756 165.698 216.283 165.874 217.073C166.049 217.776 166.401 218.215 166.928 218.478C168.069 219.005 169.65 218.478 169.65 218.478C169.737 218.478 169.737 218.478 169.825 218.478Z" fill="#0E2549"/>
<path d="M259.656 201.794C259.48 201.794 259.305 201.706 259.129 201.53C258.954 201.267 258.954 200.828 259.217 200.652L322.441 153.937C322.704 153.761 323.143 153.761 323.319 154.025C323.495 154.288 323.495 154.727 323.231 154.903L260.007 201.618C259.832 201.706 259.744 201.794 259.656 201.794Z" fill="#0E2549"/>
<path d="M254.3 191.697C254.124 191.697 254.036 191.609 253.861 191.521C253.597 191.257 253.597 190.906 253.773 190.643L277.482 162.543C277.657 162.28 278.096 162.28 278.36 162.455C278.623 162.719 278.623 163.07 278.448 163.334L254.739 191.433C254.651 191.609 254.475 191.697 254.3 191.697Z" fill="#0E2549"/>
<path d="M481.116 200.474C480.765 200.474 480.502 200.211 480.502 199.859C480.589 194.327 480.502 188.795 480.062 183.263C480.062 182.912 480.326 182.648 480.677 182.648C481.029 182.648 481.292 182.912 481.292 183.263C481.643 188.795 481.819 194.415 481.731 199.947C481.731 200.211 481.38 200.474 481.116 200.474Z" fill="#0E2549"/>
<path d="M480.677 183.79C480.326 183.79 480.062 183.526 480.062 183.175C478.745 163.506 474.53 144.099 467.417 125.571C463.027 113.98 457.495 102.74 451.084 92.2029C450.909 91.9394 450.997 91.5004 451.26 91.3248C451.524 91.1491 451.963 91.237 452.138 91.5004C458.636 102.038 464.168 113.365 468.559 125.044C475.672 143.748 479.974 163.242 481.292 183C481.292 183.526 481.028 183.79 480.677 183.79Z" fill="#0E2549"/>
<path d="M499.117 210.222C498.766 210.222 498.502 209.958 498.502 209.607C498.678 206.709 498.766 203.811 498.766 200.914C498.766 200.562 499.029 200.299 499.381 200.299C499.732 200.299 499.995 200.562 499.995 200.914C499.995 203.811 499.908 206.709 499.732 209.607C499.732 210.046 499.469 210.222 499.117 210.222Z" fill="#0E2549"/>
<path d="M499.381 201.616C499.03 201.616 498.766 201.353 498.766 201.001C498.942 175.009 494.376 149.456 485.068 125.045C479.799 111.083 472.95 97.7355 464.871 85.2664C464.696 85.0029 464.783 84.5639 465.047 84.3882C465.31 84.2126 465.749 84.3004 465.925 84.5639C474.091 97.033 480.853 110.556 486.209 124.606C495.517 149.193 500.171 174.922 499.996 201.001C499.996 201.265 499.732 201.616 499.381 201.616Z" fill="#0E2549"/>
<path d="M468.735 187.039C468.647 187.039 468.472 187.039 468.384 186.951L455.212 178.434C455.037 178.346 454.949 178.082 454.949 177.907C454.949 177.731 455.036 177.468 455.3 177.38L468.911 169.477C469.086 169.389 469.35 169.389 469.525 169.477C469.701 169.565 469.877 169.828 469.789 170.004L469.35 186.425C469.35 186.688 469.174 186.864 468.999 186.951C468.911 187.039 468.823 187.039 468.735 187.039ZM456.793 177.995L468.208 185.371L468.559 171.145L456.793 177.995Z" fill="#0E2549"/>
<path d="M30.9959 95.367C30.9081 95.367 30.8203 95.367 30.7325 95.2792C30.3812 95.1036 30.2935 94.7523 30.3813 94.4889C40.8308 71.3068 58.8321 50.2321 82.2776 33.548C82.5411 33.3723 82.9801 33.3724 83.1558 33.7236C83.3314 33.987 83.3313 34.4261 82.9801 34.6017C59.6223 51.198 41.7967 72.0971 31.435 95.0158C31.435 95.2792 31.2594 95.367 30.9959 95.367Z" fill="#0E2549"/>
<path d="M11.3265 122.325C11.2387 122.325 11.2387 122.325 11.1509 122.325C10.7996 122.237 10.624 121.886 10.7118 121.622C15.1024 102.655 23.62 84.5659 35.9136 67.8818C48.6462 50.583 65.1547 35.1283 85.0878 21.9566C85.3512 21.781 85.7903 21.8688 85.9659 22.1322C86.1415 22.3957 86.0538 22.8347 85.7903 23.0103C47.0656 48.6512 20.8101 83.7756 11.9412 121.973C11.9412 122.149 11.6777 122.325 11.3265 122.325Z" fill="#0E2549"/>
<path d="M25.5519 160.435C25.2007 160.435 24.9372 160.171 24.9372 159.908L24.6738 156.132C24.6738 155.781 24.9372 155.517 25.2007 155.43C25.5519 155.43 25.8153 155.693 25.9031 155.957L26.1666 159.732C26.2544 160.171 25.991 160.435 25.5519 160.435Z" fill="#0E2549"/>
<path d="M26.2541 169.303C25.9028 169.303 25.6395 169.04 25.6395 168.776L25.376 165C25.376 164.649 25.6394 164.386 25.9028 164.298C26.2541 164.298 26.5175 164.561 26.6054 164.825L26.8688 168.601C26.8688 168.952 26.6053 169.215 26.2541 169.303Z" fill="#0E2549"/>
<path d="M19.4927 163.42C19.1414 163.42 18.8779 163.156 18.8779 162.893C18.8779 162.541 19.1414 162.278 19.4049 162.19L23.1807 161.927C23.5319 161.927 23.7954 162.19 23.8832 162.454C23.8832 162.805 23.6198 163.068 23.3564 163.156L19.4927 163.42Z" fill="#0E2549"/>
<path d="M28.2739 162.805C27.9227 162.805 27.6592 162.542 27.6592 162.278C27.6592 161.927 27.9227 161.664 28.1861 161.576L31.9619 161.312C32.3132 161.312 32.5767 161.576 32.6645 161.839C32.6645 162.191 32.4011 162.454 32.1376 162.542L28.2739 162.805Z" fill="#0E2549"/>
<path d="M34.3325 155.429C33.9813 155.429 33.5422 155.341 33.191 155.253C32.1372 154.902 31.347 154.199 30.8201 153.233C29.7664 151.301 30.5566 148.843 32.4884 147.789C32.7519 147.613 33.1909 147.701 33.3665 148.052C33.5422 148.316 33.4544 148.755 33.1032 148.931C31.786 149.633 31.2591 151.389 31.9616 152.706C32.3128 153.409 32.9275 153.848 33.63 154.111C34.3325 154.287 35.035 154.287 35.7375 153.936C37.0547 153.233 37.5815 151.477 36.879 150.16C36.7034 149.896 36.879 149.457 37.1425 149.37C37.4059 149.194 37.8449 149.37 38.0206 149.633C39.0743 151.565 38.284 154.024 36.3521 155.077C35.5618 155.253 34.9472 155.429 34.3325 155.429Z" fill="#0E2549"/>
<path d="M45.3093 178.172C44.2555 178.172 43.2017 177.733 42.4114 176.943C42.148 176.679 42.148 176.328 42.4114 176.065C42.6749 175.801 43.0261 175.801 43.2896 176.065C44.3433 177.206 46.0995 177.206 47.2411 176.152C47.7679 175.625 48.1192 174.923 48.1192 174.22C48.1192 173.518 47.8557 172.816 47.3288 172.289C46.2751 171.147 44.5189 171.147 43.3773 172.201C43.1139 172.464 42.7627 172.464 42.4992 172.201C42.2358 171.937 42.2358 171.586 42.4992 171.323C44.1676 169.83 46.7142 169.83 48.207 171.411C48.9094 172.201 49.3486 173.167 49.2608 174.22C49.2608 175.274 48.8217 176.328 47.9436 177.03C47.3289 177.821 46.363 178.172 45.3093 178.172Z" fill="#0E2549"/>
<path d="M119.691 164.618C123.708 148.426 113.838 132.043 97.6459 128.026C81.4535 124.008 65.0704 133.878 61.0531 150.071C57.0359 166.263 66.9058 182.646 83.0982 186.663C99.2906 190.681 115.674 180.811 119.691 164.618Z" fill="#FEFEFE"/>
<path d="M90.4438 188.184C73.4962 188.184 59.6221 174.398 59.6221 157.363C59.6221 140.327 73.4084 126.541 90.4438 126.541C107.391 126.541 121.266 140.327 121.266 157.363C121.266 174.398 107.479 188.184 90.4438 188.184ZM90.4438 127.858C74.1109 127.858 60.9392 141.118 60.9392 157.363C60.9392 173.608 74.1987 186.867 90.4438 186.867C106.777 186.867 119.948 173.608 119.948 157.363C119.948 141.118 106.777 127.858 90.4438 127.858Z" fill="#0E2549"/>
<path d="M94.4842 173.782H86.4055C84.7371 173.782 83.4199 172.465 83.4199 170.797V140.414C83.4199 139.711 84.0346 139.097 84.7371 139.097H95.0111C96.2404 139.097 97.2063 140.063 97.2063 141.292V171.06C97.2063 172.553 95.977 173.782 94.4842 173.782Z" fill="#0E2549"/>
<path d="M74.2871 161.927V151.038C74.2871 150.423 74.8139 149.896 75.4286 149.896H104.406C105.811 149.896 106.865 151.038 106.865 152.355V160.785C106.865 162.366 105.548 163.683 103.967 163.683H75.9554C75.0773 163.683 74.2871 162.893 74.2871 161.927Z" fill="#0E2549"/>
<path d="M174.34 39.4958C177.013 23.0282 165.83 7.51187 149.362 4.83928C132.894 2.16668 117.378 13.3498 114.705 29.8175C112.033 46.2852 123.216 61.8013 139.684 64.4739C156.151 67.1465 171.667 55.9635 174.34 39.4958Z" fill="#FEFEFE"/>
<path d="M144.448 65.4237C127.5 65.4237 113.626 51.6373 113.626 34.602C113.626 17.6544 127.412 3.78027 144.448 3.78027C161.395 3.78027 175.269 17.5666 175.269 34.602C175.269 51.6373 161.395 65.4237 144.448 65.4237ZM144.448 5.09744C128.115 5.09744 114.943 18.3569 114.943 34.602C114.943 50.9349 128.203 64.1065 144.448 64.1065C160.781 64.1065 173.952 50.847 173.952 34.602C174.04 18.3569 160.781 5.09744 144.448 5.09744Z" fill="#0E2549"/>
<path d="M141.901 58.2227L141.813 52.6906C137.949 52.6028 134.173 51.6369 131.89 50.4075L133.471 43.5582C135.929 44.8754 139.354 45.9291 143.13 45.9291C146.467 45.8413 148.662 44.5242 148.574 42.2411C148.486 40.0458 146.642 38.7286 142.34 37.3236C136.105 35.3918 131.802 32.5818 131.627 26.9619C131.539 21.8689 135.051 17.7418 141.198 16.4246L141.11 10.8925L146.818 10.8047L146.906 15.8977C150.769 15.9855 153.404 16.7758 155.336 17.654L153.843 24.2398C152.35 23.6251 149.628 22.3958 145.413 22.4836C141.637 22.5714 140.496 24.2398 140.496 25.8204C140.583 27.7522 142.603 28.8938 147.608 30.65C154.545 32.9331 157.443 36.0065 157.531 41.2751C157.619 46.456 154.106 50.9344 147.433 52.2515L147.608 58.1349L141.901 58.2227Z" fill="#0E2549"/>
<path d="M118.3 109.677C130.096 97.8803 130.096 78.7544 118.3 66.958C106.503 55.1615 87.3775 55.1615 75.5811 66.958C63.7846 78.7544 63.7846 97.8803 75.5811 109.677C87.3775 121.473 106.503 121.473 118.3 109.677Z" fill="#FEFEFE"/>
<path d="M96.9418 119.074C79.9943 119.074 66.1201 105.288 66.1201 88.2524C66.1201 71.3048 79.9064 57.4307 96.9418 57.4307C113.889 57.4307 127.763 71.217 127.763 88.2524C127.676 105.288 113.889 119.074 96.9418 119.074ZM96.9418 58.7478C80.6089 58.7478 67.4373 72.0073 67.4373 88.2524C67.4373 104.497 80.6967 117.757 96.9418 117.757C113.275 117.757 126.446 104.497 126.446 88.2524C126.446 72.0073 113.187 58.7478 96.9418 58.7478Z" fill="#0E2549"/>
<path d="M110.114 105.025H81.3121C81.0487 105.025 80.873 104.85 80.873 104.586V79.3844C80.873 79.1209 81.0487 78.9453 81.3121 78.9453H110.114C110.378 78.9453 110.553 79.1209 110.553 79.3844V104.586C110.641 104.85 110.378 105.025 110.114 105.025Z" fill="#0E2549"/>
<path d="M78.5901 80.1748H113.627C114.066 80.1748 114.241 79.6479 113.978 79.3845L96.5036 63.0516C96.3279 62.876 96.0646 62.876 95.8889 63.0516L78.4145 79.3845C77.9754 79.6479 78.151 80.1748 78.5901 80.1748Z" fill="#0E2549"/>
<path d="M92.9029 92.4689H85.3512C85.0877 92.4689 84.9121 92.2933 84.9121 92.0299V84.4781C84.9121 84.2147 85.0877 84.0391 85.3512 84.0391H92.9029C93.1663 84.0391 93.342 84.2147 93.342 84.4781V92.0299C93.2541 92.2933 93.0785 92.4689 92.9029 92.4689Z" fill="#FEFEFE"/>
</svg>
