<svg width="500" height="500" viewBox="0 0 500 500" fill="none" xmlns="http://www.w3.org/2000/svg">
<path d="M500 0H0V500H500V0Z" fill="#0E2549"/>
<path d="M500 500H0V0H500V500Z" fill="#FEFEFE"/>
<path d="M287.35 213.351C287.272 213.351 287.116 213.273 287.038 213.195C286.883 213.039 286.883 212.728 287.038 212.572L288.518 211.17C288.674 211.014 288.986 211.014 289.142 211.17C289.297 211.326 289.297 211.637 289.142 211.793L287.662 213.195C287.584 213.273 287.428 213.351 287.35 213.351Z" fill="#0E2549"/>
<path d="M280.418 220.128C280.34 220.128 280.184 220.05 280.106 219.972C279.95 219.816 279.95 219.505 280.106 219.349L281.586 217.947C281.742 217.791 282.053 217.791 282.209 217.947C282.365 218.102 282.365 218.414 282.209 218.57L280.729 219.972C280.651 220.128 280.495 220.128 280.418 220.128Z" fill="#0E2549"/>
<path d="M281.897 213.273C281.82 213.273 281.664 213.195 281.586 213.117L280.184 211.637C280.028 211.482 280.028 211.17 280.184 211.014C280.34 210.858 280.651 210.858 280.807 211.014L282.209 212.494C282.365 212.65 282.365 212.962 282.209 213.117C282.131 213.195 281.975 213.273 281.897 213.273Z" fill="#0E2549"/>
<path d="M288.752 220.284C288.674 220.284 288.518 220.206 288.441 220.128L287.038 218.648C286.883 218.492 286.883 218.18 287.038 218.025C287.194 217.869 287.506 217.869 287.662 218.025L289.064 219.505C289.22 219.66 289.22 219.972 289.064 220.128C288.908 220.206 288.83 220.284 288.752 220.284Z" fill="#0E2549"/>
<path d="M327.31 394.298C327.076 394.298 326.842 394.064 326.842 393.831C326.842 393.597 327.076 393.363 327.31 393.363H329.335C329.568 393.363 329.802 393.597 329.802 393.831C329.802 394.064 329.568 394.298 329.335 394.298H327.31Z" fill="#0E2549"/>
<path d="M317.573 394.376C317.339 394.376 317.105 394.142 317.105 393.909C317.105 393.675 317.339 393.441 317.573 393.441H319.598C319.832 393.441 320.065 393.675 320.065 393.909C320.065 394.142 319.832 394.376 319.598 394.376H317.573Z" fill="#0E2549"/>
<path d="M323.415 390.481C323.181 390.481 322.948 390.248 322.948 390.014V387.989C322.948 387.755 323.181 387.521 323.415 387.521C323.649 387.521 323.882 387.755 323.882 387.989V390.014C323.882 390.248 323.649 390.481 323.415 390.481Z" fill="#0E2549"/>
<path d="M323.415 400.296C323.181 400.296 322.948 400.062 322.948 399.829V397.803C322.948 397.57 323.181 397.336 323.415 397.336C323.649 397.336 323.882 397.57 323.882 397.803V399.829C323.882 400.062 323.649 400.296 323.415 400.296Z" fill="#0E2549"/>
<path d="M355.273 209.223C355.273 209.223 359.869 208.599 361.271 198.317C362.673 188.036 362.985 179 372.41 176.196C381.835 173.391 393.441 177.909 393.208 187.88C392.974 197.85 394.376 206.341 400.374 210.781C408.085 216.467 411.123 213.273 425.378 227.138C443.371 244.664 438.152 297.866 386.197 283.3L355.273 209.223Z" fill="#0E2549"/>
<path d="M368.048 200.421C368.048 200.421 369.606 202.134 372.799 201.511L368.048 200.421Z" fill="#FEFEFE"/>
<path d="M371.475 202.134C368.983 202.134 367.736 200.81 367.736 200.732C367.581 200.576 367.581 200.265 367.736 200.109C367.892 199.953 368.204 199.953 368.36 200.109C368.437 200.187 369.84 201.589 372.722 201.044C372.955 200.966 373.189 201.122 373.267 201.433C373.345 201.667 373.189 201.901 372.877 201.978C372.41 202.056 371.943 202.134 371.475 202.134Z" fill="#0E2549"/>
<path d="M369.216 402.633C369.216 402.633 366.49 410.89 363.842 413.46C361.193 416.031 350.444 420.938 350.288 426.312C350.132 432.544 353.793 433.712 363.53 431.454C370.541 429.818 376.383 425.534 378.486 423.041C380.355 420.86 379.265 418.991 378.875 416.498C378.33 413.382 378.252 410.189 378.252 406.995V401.776L369.216 402.633Z" fill="#FEFEFE"/>
<path d="M369.606 403.022C369.138 404.502 366.646 411.357 364.153 413.694C363.374 414.395 361.972 415.329 360.414 416.342C356.364 418.99 350.833 422.574 350.678 426.235C350.6 428.571 351.067 430.051 352.158 430.986C353.871 432.388 357.299 432.388 363.374 430.986C370.385 429.35 376.071 425.066 378.096 422.729C379.42 421.172 379.109 419.847 378.642 417.978C378.564 417.51 378.408 417.043 378.33 416.498C377.785 413.148 377.629 409.799 377.629 406.917V402.243L369.606 403.022ZM356.13 433.011C354.105 433.011 352.625 432.622 351.612 431.765C350.288 430.675 349.743 428.961 349.821 426.312C349.899 422.184 355.741 418.445 359.947 415.641C361.505 414.628 362.829 413.772 363.53 413.071C366.101 410.656 368.749 402.555 368.827 402.477C368.905 402.321 369.061 402.165 369.216 402.165L378.096 401.387C378.252 401.387 378.33 401.387 378.408 401.464C378.486 401.542 378.564 401.698 378.564 401.776V406.995C378.564 409.799 378.642 413.148 379.187 416.42C379.265 416.887 379.42 417.433 379.498 417.822C379.966 419.692 380.355 421.405 378.719 423.353C376.694 425.767 370.774 430.207 363.53 431.921C360.492 432.622 358.078 433.011 356.13 433.011Z" fill="#0E2549"/>
<path d="M350.678 429.35C350.444 429.35 350.288 429.195 350.21 428.961C350.21 428.727 350.366 428.493 350.6 428.493L354.105 428.26C362.907 427.637 371.086 423.82 377.162 417.666C378.018 416.809 378.408 416.264 378.408 416.264C378.564 416.108 378.875 416.031 379.031 416.186C379.187 416.342 379.265 416.654 379.109 416.809C379.109 416.809 378.642 417.355 377.785 418.212C371.475 424.599 363.141 428.416 354.105 429.117L350.678 429.35Z" fill="#0E2549"/>
<path d="M371.553 416.031C371.32 416.031 366.646 415.174 364.776 412.759C364.621 412.525 364.699 412.292 364.854 412.136C365.088 411.98 365.322 412.058 365.477 412.214C367.113 414.395 371.631 415.174 371.631 415.174C371.865 415.252 372.021 415.407 372.021 415.719C372.021 415.875 371.787 416.031 371.553 416.031Z" fill="#0E2549"/>
<path d="M367.425 418.835H367.347C367.191 418.757 362.673 417.822 361.271 415.407C361.115 415.174 361.193 414.94 361.427 414.784C361.661 414.628 361.894 414.706 362.05 414.94C363.296 417.043 367.503 417.9 367.581 417.978C367.814 418.056 367.97 418.289 367.892 418.523C367.814 418.679 367.659 418.835 367.425 418.835Z" fill="#0E2549"/>
<path d="M362.985 421.483C362.907 421.483 362.907 421.483 362.829 421.483C362.673 421.405 359.012 420.081 357.844 417.588C357.766 417.355 357.844 417.121 358.078 416.965C358.311 416.887 358.545 416.965 358.701 417.199C359.713 419.302 363.141 420.626 363.141 420.626C363.374 420.704 363.452 420.938 363.374 421.172C363.374 421.405 363.219 421.483 362.985 421.483Z" fill="#0E2549"/>
<path d="M390.092 382.303C390.403 382.303 395.077 381.835 397.803 381.602C398.894 381.524 399.829 382.225 399.907 383.315L400.452 388.222C400.608 389.936 400.997 391.65 401.464 393.363C402.321 396.401 403.645 401.698 402.944 404.035C402.165 406.605 399.751 410.189 398.193 412.214C397.492 413.148 396.246 413.538 395.077 413.148C393.052 412.447 389.858 411.201 387.911 409.254C385.029 406.372 388.145 400.763 388.145 400.763L390.092 382.303Z" fill="#FEFEFE"/>
<path d="M390.481 382.692L388.69 400.763C388.69 400.841 388.69 400.919 388.612 400.919C388.612 400.997 385.652 406.216 388.3 408.864C390.17 410.734 393.441 412.058 395.233 412.603C396.168 412.915 397.258 412.603 397.803 411.824C399.673 409.487 401.776 406.06 402.477 403.801C403.178 401.464 401.854 396.245 400.997 393.363C400.53 391.65 400.14 389.858 399.984 388.145L399.439 383.237C399.361 382.458 398.582 381.835 397.803 381.913C393.909 382.38 391.416 382.614 390.481 382.692ZM396.012 413.694C395.7 413.694 395.311 413.616 394.999 413.538C392.74 412.759 389.625 411.435 387.677 409.565C384.717 406.605 387.366 401.387 387.755 400.608L389.625 382.225C389.625 381.991 389.858 381.835 390.092 381.835C390.326 381.835 393.208 381.524 397.803 381.134C399.128 380.978 400.296 381.913 400.374 383.237L400.919 388.145C401.075 389.858 401.464 391.494 401.932 393.208C403.022 396.869 404.113 401.776 403.412 404.113C402.633 406.683 400.296 410.189 398.582 412.447C397.959 413.226 396.947 413.694 396.012 413.694Z" fill="#0E2549"/>
<path d="M393.831 412.837C393.753 412.837 393.675 412.837 393.597 412.759C393.363 412.603 393.363 412.37 393.519 412.136C399.05 404.346 398.66 402.321 397.881 397.959C397.725 397.024 397.492 395.934 397.336 394.61C396.869 391.26 395.622 382.069 395.622 381.991C395.622 381.757 395.778 381.524 396.012 381.524C396.246 381.524 396.479 381.679 396.479 381.913C396.479 381.991 397.803 391.26 398.193 394.61C398.349 395.856 398.582 396.947 398.738 397.881C399.595 402.399 399.984 404.658 394.22 412.759C394.142 412.759 393.987 412.837 393.831 412.837Z" fill="#0E2549"/>
<path d="M394.61 398.738L389.235 397.959C389.001 397.959 388.846 397.725 388.846 397.492C388.846 397.258 389.079 397.102 389.313 397.102L394.61 397.881C394.843 397.881 394.999 398.115 394.999 398.349C394.999 398.582 394.843 398.738 394.61 398.738Z" fill="#0E2549"/>
<path d="M394.065 402.555L388.69 401.776C388.456 401.776 388.3 401.542 388.3 401.309C388.3 401.075 388.534 400.919 388.768 400.919L394.065 401.698C394.298 401.698 394.454 401.932 394.454 402.165C394.454 402.399 394.298 402.555 394.065 402.555Z" fill="#0E2549"/>
<path d="M388.3 404.269C385.185 406.372 378.719 409.098 367.736 405.826L372.799 294.516L393.441 290.544C393.441 290.544 396.168 318.196 393.208 346.082C390.559 371.475 390.403 393.13 390.481 400.062C390.481 401.776 389.702 403.334 388.3 404.269Z" fill="#0E2549"/>
<path d="M392.507 287.428L343.044 290.232L344.758 344.29C344.991 350.6 346.939 356.753 350.366 361.972C355.974 370.385 364.932 382.848 371.943 387.677C383.081 395.389 392.507 287.428 392.507 287.428Z" fill="#0E2549"/>
<path d="M367.892 385.886C367.659 385.886 367.425 385.652 367.425 385.418L369.061 350.366C369.061 350.132 369.294 349.899 369.528 349.977C369.762 349.977 369.995 350.21 369.917 350.444L368.282 385.496C368.36 385.73 368.126 385.886 367.892 385.886Z" fill="#FEFEFE"/>
<path d="M311.341 198.785C311.653 198.707 311.887 198.473 311.887 198.084C311.887 196.37 311.497 191.151 308.615 188.814C305.11 185.932 302.15 179.311 299.969 180.012C297.866 180.636 302.539 186.4 301.994 187.023C301.449 187.646 300.358 185.465 299.19 183.362C298.021 181.259 299.034 180.791 297.398 180.869C295.062 181.025 293.504 181.415 296.619 188.347C299.579 194.968 305.421 194.734 306.2 199.096C306.278 199.486 306.59 199.72 306.979 199.642L311.341 198.785Z" fill="#FEFEFE"/>
<path d="M297.788 181.337C297.71 181.337 297.554 181.337 297.398 181.337C296.464 181.415 295.763 181.492 295.451 181.96C294.984 182.739 295.451 184.764 296.931 188.113C298.411 191.463 300.67 192.943 302.617 194.267C304.487 195.513 306.122 196.682 306.512 198.941C306.512 199.019 306.59 199.096 306.59 199.096C306.668 199.096 306.668 199.174 306.746 199.096L311.186 198.24C311.263 198.24 311.341 198.084 311.341 198.006C311.341 196.448 310.952 191.307 308.226 189.048C306.668 187.802 305.266 185.854 304.019 184.141C302.539 182.116 300.981 180.012 300.047 180.246C299.891 180.324 299.891 180.324 299.813 180.402C299.579 181.103 300.592 182.972 301.371 184.297C302.306 186.01 302.695 186.633 302.306 187.101C302.15 187.334 301.916 187.412 301.682 187.334C300.981 187.257 300.28 186.088 299.034 183.829L298.8 183.362C298.333 182.427 298.177 181.804 298.099 181.415C298.099 181.337 298.021 181.181 298.021 181.103C297.944 181.337 297.866 181.337 297.788 181.337ZM306.746 200.109C306.512 200.109 306.278 200.031 306.122 199.875C305.889 199.72 305.733 199.408 305.655 199.174C305.344 197.305 303.941 196.292 302.15 195.124C300.203 193.8 297.71 192.086 296.152 188.581C294.438 184.764 294.049 182.661 294.672 181.57C295.217 180.636 296.386 180.558 297.32 180.48C298.489 180.402 298.8 180.558 298.956 181.492C299.034 181.882 299.112 182.427 299.579 183.206L299.813 183.673C300.28 184.452 300.826 185.543 301.293 186.166C301.137 185.777 300.826 185.309 300.67 184.92C299.501 182.817 298.723 181.259 299.112 180.246C299.268 179.935 299.501 179.701 299.891 179.545C301.449 179.078 302.929 181.103 304.876 183.751C306.122 185.387 307.525 187.334 308.927 188.503C311.887 190.918 312.354 196.059 312.354 198.084C312.354 198.629 311.964 199.096 311.419 199.174L306.979 200.031C306.901 200.109 306.823 200.109 306.746 200.109Z" fill="#0E2549"/>
<path d="M415.875 301.215C416.186 301.137 416.498 301.293 416.654 301.605C417.199 302.929 418.835 306.278 421.327 307.525C423.119 308.381 424.677 308.927 426.858 311.03C429.039 313.055 432.778 318.43 431.921 319.754C430.986 321.312 427.87 319.754 425.456 318.274C423.041 316.794 420.704 313.367 418.367 312.977C416.031 312.588 420.938 318.196 420.237 319.053C419.536 319.91 417.043 318.663 415.407 316.015C414.784 315.002 410.967 305.811 409.877 303.007C409.721 302.617 409.955 302.15 410.422 302.072L415.875 301.215Z" fill="#FEFEFE"/>
<path d="M418.289 312.432C418.367 312.432 418.445 312.432 418.523 312.432C420.081 312.666 421.561 314.068 422.963 315.47C423.898 316.327 424.833 317.261 425.689 317.807C428.961 319.832 430.908 320.377 431.531 319.442C432.077 318.585 429.039 313.678 426.546 311.263C424.755 309.55 423.43 308.927 421.95 308.226C421.639 308.07 421.405 307.992 421.094 307.836C418.445 306.512 416.809 303.162 416.186 301.76C416.108 301.682 416.031 301.605 415.953 301.605L410.578 302.461C410.5 302.461 410.422 302.539 410.422 302.617C410.422 302.617 410.344 302.695 410.422 302.851C412.759 308.537 415.407 315.002 415.953 315.781C417.121 317.651 418.757 318.819 419.614 318.897C419.769 318.897 419.847 318.897 419.925 318.819C419.925 318.43 419.146 317.183 418.757 316.404C417.666 314.613 417.121 313.522 417.51 312.899C417.666 312.666 417.9 312.432 418.289 312.432ZM430.675 320.766C429.195 320.766 427.091 319.676 425.3 318.585C424.287 317.962 423.353 317.028 422.418 316.171C421.094 314.924 419.692 313.6 418.445 313.367C418.367 313.367 418.367 313.367 418.367 313.367C418.367 313.834 419.146 315.08 419.614 315.859C420.704 317.651 421.249 318.663 420.782 319.286C420.626 319.52 420.237 319.754 419.692 319.754C418.367 319.676 416.498 318.196 415.252 316.249C414.628 315.236 411.123 306.823 409.643 303.24C409.487 302.929 409.565 302.539 409.721 302.228C409.877 301.916 410.189 301.682 410.5 301.682L415.875 300.826C416.42 300.748 416.887 300.981 417.121 301.527C417.666 302.851 419.224 306.045 421.639 307.213C421.95 307.369 422.184 307.447 422.496 307.602C423.976 308.303 425.456 309.005 427.325 310.796C429.039 312.432 433.557 318.274 432.466 320.065C431.999 320.533 431.376 320.766 430.675 320.766Z" fill="#0E2549"/>
<path d="M367.035 208.522C362.595 207.509 359.402 206.574 354.884 206.808C349.743 207.119 347.095 206.574 342.81 208.677C334.787 212.65 331.594 223.633 326.92 221.686C322.246 219.738 312.588 194.656 312.588 194.656L304.175 198.162C304.175 198.162 314.847 244.586 323.415 247.391C331.983 250.195 342.343 236.875 342.343 236.875C342.343 236.875 342.733 270.525 337.124 292.88C337.124 292.88 345.926 292.803 351.612 295.217C382.069 307.836 394.999 292.88 394.999 292.88C394.843 284.234 392.896 278.314 386.665 268.656C383.237 263.359 382.303 254.868 389.001 247.157C389.001 247.157 405.437 297.944 408.475 303.864C408.709 304.253 418.835 301.994 418.835 301.76C420.47 283.533 408.007 249.572 406.138 241.393C405.593 238.9 404.892 236.408 403.879 234.071C400.763 226.749 393.909 214.675 381.056 211.559L367.035 208.522Z" fill="#FEFEFE"/>
<path d="M389.001 246.767H389.079C389.235 246.767 389.391 246.923 389.391 247.079C389.547 247.546 405.515 296.853 408.786 303.552C410.033 303.552 417.043 302.072 418.445 301.605C419.614 287.74 412.681 264.839 408.475 251.207C407.151 246.923 406.138 243.574 405.749 241.626C405.125 238.978 404.424 236.641 403.49 234.382C400.53 227.372 393.753 215.22 380.978 212.183L366.88 208.989C366.256 208.833 365.711 208.755 365.166 208.599C361.505 207.743 358.701 207.119 354.806 207.275C353.638 207.353 352.625 207.353 351.69 207.353C348.341 207.431 346.082 207.509 342.888 209.145C339.227 211.014 336.579 214.286 334.32 217.168C331.672 220.439 329.413 223.321 326.608 222.153C322.091 220.284 313.522 198.785 312.198 195.28L304.565 198.473C305.577 202.835 315.625 244.508 323.415 247.001C331.516 249.649 341.72 236.797 341.876 236.641C341.954 236.485 342.187 236.408 342.343 236.485C342.499 236.563 342.655 236.719 342.655 236.875C342.655 237.186 342.966 270.291 337.592 292.413C339.617 292.413 346.783 292.725 351.69 294.75C367.269 301.215 378.096 300.28 384.406 298.333C390.559 296.464 393.753 293.348 394.376 292.647C394.142 283.923 392.117 278.159 386.119 268.811C382.77 263.67 381.446 254.868 388.534 246.767C388.768 246.845 388.924 246.767 389.001 246.767ZM408.786 304.487C408.319 304.487 408.241 304.331 408.163 304.175C405.281 298.567 391.027 254.713 388.923 248.092C382.77 255.647 384.094 263.748 387.132 268.422C393.286 277.925 395.311 283.923 395.544 292.88C395.544 292.958 395.544 293.114 395.467 293.192C395.311 293.348 392.117 297.087 385.029 299.19C378.564 301.215 367.503 302.15 351.612 295.607C346.004 293.27 337.358 293.348 337.28 293.348C337.124 293.348 337.046 293.27 336.968 293.192C336.89 293.114 336.89 292.958 336.89 292.803C341.798 273.173 342.109 244.431 342.109 238.199C339.773 240.925 332.84 248.325 326.141 248.325C325.284 248.325 324.35 248.169 323.493 247.936C314.847 245.132 304.409 200.265 303.941 198.395C303.864 198.162 304.019 198.006 304.175 197.85L312.588 194.345C312.665 194.267 312.821 194.267 312.899 194.345C312.977 194.423 313.133 194.501 313.133 194.579C315.781 201.511 323.493 219.816 327.154 221.374C329.335 222.231 331.282 219.816 333.775 216.623C336.112 213.663 338.838 210.235 342.655 208.366C346.082 206.652 348.497 206.574 351.846 206.496C352.781 206.496 353.793 206.418 354.884 206.418C358.857 206.185 361.894 206.886 365.477 207.743C366.023 207.898 366.568 207.976 367.191 208.132L381.29 211.326C394.454 214.441 401.387 226.904 404.424 234.071C405.359 236.33 406.138 238.744 406.683 241.471C407.073 243.418 408.085 246.767 409.41 250.974C413.616 264.839 420.626 287.973 419.38 301.994C419.38 302.384 419.38 302.384 416.732 303.007C415.329 303.318 413.616 303.708 412.214 304.019C410.266 304.331 409.254 304.487 408.786 304.487Z" fill="#0E2549"/>
<path d="M361.583 292.491C361.427 292.491 361.271 292.413 361.193 292.257L349.12 267.643C349.042 267.409 349.12 267.176 349.354 267.02C349.587 266.942 349.821 267.02 349.977 267.253L362.05 291.868C362.128 292.102 362.05 292.335 361.816 292.491C361.739 292.491 361.661 292.491 361.583 292.491Z" fill="#0E2549"/>
<path d="M351.067 284.39C350.911 284.39 350.756 284.312 350.678 284.079L347.406 276.055C347.328 275.822 347.406 275.588 347.64 275.51C347.874 275.432 348.107 275.51 348.185 275.744L351.457 283.767C351.535 284.001 351.457 284.234 351.223 284.312C351.145 284.312 351.067 284.39 351.067 284.39Z" fill="#0E2549"/>
<path d="M308.459 194.189H298.255C297.554 194.189 296.931 193.644 296.931 192.943L295.918 174.248C295.84 173.469 296.464 172.846 297.243 172.846H309.316C310.095 172.846 310.718 173.469 310.64 174.248L309.783 192.943C309.783 193.566 309.16 194.189 308.459 194.189Z" fill="#0E2549"/>
<path d="M308.303 191.619C308.148 191.619 307.992 191.541 307.914 191.463C307.758 191.229 307.836 190.995 307.992 190.84C314.691 186.01 316.638 179.467 315.08 177.13C314.068 175.573 311.653 175.806 308.459 177.676C308.226 177.831 307.992 177.754 307.836 177.52C307.68 177.286 307.758 177.053 307.992 176.897C313.211 173.781 315.158 175.65 315.781 176.585C317.806 179.623 315.08 186.711 308.459 191.541C308.459 191.541 308.381 191.619 308.303 191.619Z" fill="#0E2549"/>
<path d="M296.931 190.606C292.335 183.829 293.192 180.636 295.763 178.61C295.918 178.455 296.152 178.455 296.308 178.61C301.371 182.116 302.617 186.166 298.956 190.684C298.489 191.385 297.398 191.307 296.931 190.606Z" fill="#FEFEFE"/>
<path d="M296.074 179C294.049 180.48 292.413 183.206 297.32 190.372C297.476 190.606 297.71 190.762 298.021 190.762C298.333 190.762 298.567 190.684 298.723 190.45C300.28 188.503 300.904 186.633 300.67 184.92C300.28 182.817 298.8 180.869 296.074 179ZM298.021 191.619C297.944 191.619 297.944 191.619 298.021 191.619C297.398 191.619 296.931 191.307 296.542 190.84C292.413 184.764 292.102 180.869 295.529 178.299C295.84 178.065 296.23 178.065 296.619 178.299C299.579 180.324 301.215 182.505 301.527 184.842C301.838 186.867 301.059 188.892 299.424 191.073C299.034 191.385 298.489 191.619 298.021 191.619Z" fill="#0E2549"/>
<path d="M368.282 200.654C365.166 198.473 368.749 185.465 372.254 183.596C375.837 181.648 383.315 183.751 383.315 183.751C380.511 192.865 385.496 195.124 386.197 195.124C386.898 195.124 389.079 195.28 387.755 198.24C386.353 201.2 383.237 199.564 383.237 199.564C382.614 200.109 381.446 200.732 379.966 201.277C378.252 206.418 380.121 210.469 381.757 212.728C382.614 213.896 381.991 215.532 380.589 215.844C378.408 216.389 374.981 216.7 370.696 215.532C367.425 214.675 365.244 213.507 363.842 212.416C362.673 211.482 362.829 209.612 364.231 209.067C367.97 207.431 370.385 202.056 368.282 200.654Z" fill="#FEFEFE"/>
<path d="M368.515 200.265C369.216 200.732 369.528 201.589 369.45 202.757C369.294 205.016 367.269 208.21 364.465 209.534C363.998 209.768 363.686 210.235 363.608 210.781C363.53 211.326 363.764 211.871 364.231 212.183C365.945 213.507 368.204 214.519 370.93 215.22C375.214 216.311 378.486 215.999 380.589 215.532C381.056 215.376 381.446 215.065 381.679 214.597C381.835 214.13 381.757 213.585 381.446 213.117C379.654 210.547 377.863 206.496 379.576 201.277C379.654 201.122 379.732 201.044 379.81 200.966C381.212 200.499 382.38 199.875 382.926 199.33C383.081 199.174 383.237 199.174 383.393 199.252C383.393 199.252 384.717 199.875 385.886 199.486C386.509 199.252 386.976 198.785 387.288 198.084C387.677 197.149 387.833 196.526 387.599 196.136C387.366 195.825 386.898 195.669 386.197 195.669C385.808 195.669 384.484 195.202 383.471 193.8C382.303 192.242 381.29 189.36 382.77 184.141C381.134 183.751 375.37 182.505 372.488 184.063C370.307 185.231 367.814 191.463 367.503 196.292C367.425 198.317 367.814 199.797 368.515 200.265ZM376.46 216.856C374.825 216.856 372.877 216.623 370.696 216.077C367.814 215.298 365.478 214.208 363.686 212.884C362.985 212.338 362.673 211.559 362.751 210.703C362.829 209.846 363.374 209.145 364.153 208.755C366.646 207.587 368.437 204.705 368.671 202.757C368.749 202.212 368.671 201.511 368.126 201.122C367.113 200.421 366.646 198.707 366.724 196.214C366.957 191.541 369.45 184.686 372.176 183.284C375.837 181.337 383.237 183.362 383.549 183.44C383.627 183.44 383.783 183.518 383.783 183.673C383.86 183.751 383.86 183.907 383.783 183.985C382.303 188.97 383.159 191.697 384.172 193.176C385.029 194.423 386.119 194.812 386.275 194.812C387.599 194.812 388.145 195.28 388.456 195.747C388.846 196.448 388.768 197.383 388.222 198.551C387.755 199.486 387.132 200.109 386.275 200.421C385.107 200.81 383.86 200.421 383.393 200.265C382.692 200.81 381.679 201.355 380.433 201.823C378.875 206.574 380.589 210.313 382.225 212.65C382.692 213.351 382.848 214.208 382.536 214.987C382.225 215.766 381.602 216.311 380.823 216.467C379.654 216.623 378.252 216.856 376.46 216.856Z" fill="#0E2549"/>
<path d="M281.196 113.258C280.573 105.702 281.196 94.9525 287.662 85.9947C305.577 61.1466 357.844 64.8076 368.048 85.06C373.189 95.3419 367.659 110.142 359.324 118.243C347.017 130.316 326.219 130.16 313.522 122.916C301.449 116.062 297.71 103.209 289.998 104.456C285.714 105.157 282.91 109.752 281.196 113.258Z" fill="#FEFEFE"/>
<path d="M291.011 103.988C294.906 103.988 297.788 107.338 301.371 111.466C304.642 115.205 308.303 119.489 313.756 122.605C326.063 129.615 346.861 129.849 359.012 118.009C367.113 110.064 372.722 95.3419 367.659 85.2937C363.374 76.7253 350.833 70.5717 335.021 69.3254C319.832 68.0791 298.489 71.818 288.051 86.3063C283.222 93.0051 281.041 101.496 281.586 111.622C284.001 107.104 286.805 104.533 289.998 104.066C290.31 103.988 290.699 103.988 291.011 103.988ZM333.541 128.447C326.219 128.447 318.975 126.655 313.289 123.384C307.68 120.19 303.941 115.906 300.67 112.089C296.931 107.805 293.971 104.378 290.076 105.001C286.883 105.468 284.079 108.35 281.664 113.569C281.586 113.725 281.352 113.881 281.196 113.803C280.963 113.803 280.885 113.569 280.807 113.413C279.95 102.352 282.131 93.083 287.35 85.8389C291.946 79.4516 299.19 74.4664 308.226 71.5065C316.327 68.8581 325.907 67.7676 335.099 68.4686C351.223 69.7928 363.997 76.1022 368.437 84.9042C373.734 95.4198 368.126 110.375 359.558 118.632C353.793 124.241 345.615 127.746 336.501 128.369C335.566 128.369 334.554 128.447 333.541 128.447Z" fill="#0E2549"/>
<path d="M350.288 92.7715H306.278C306.045 92.7715 305.811 92.5378 305.811 92.3041C305.811 92.0704 306.045 91.8367 306.278 91.8367H350.288C350.522 91.8367 350.756 92.0704 350.756 92.3041C350.756 92.6157 350.522 92.7715 350.288 92.7715Z" fill="#0E2549"/>
<path d="M338.604 100.561H316.482C316.249 100.561 316.015 100.327 316.015 100.093C316.015 99.8598 316.249 99.6261 316.482 99.6261H338.604C338.838 99.6261 339.072 99.8598 339.072 100.093C338.994 100.327 338.838 100.561 338.604 100.561Z" fill="#0E2549"/>
<path d="M396.635 161.396C397.725 159.838 410.344 141.455 402.477 120.424C396.947 105.702 382.77 93.7841 366.334 93.1609C363.53 93.083 346.082 92.382 336.657 106.325C330.347 115.75 329.646 128.836 335.8 138.417C343.122 149.79 357.065 151.425 359.09 151.581C373.578 153.061 381.524 143.714 389.469 148.232C394.298 151.036 396.012 157.19 396.635 161.396Z" fill="#FEFEFE"/>
<path d="M384.717 146.674C386.431 146.674 388.067 147.063 389.702 147.998C393.286 150.023 395.778 154.23 396.947 160.305C399.751 156.021 409.176 139.43 402.088 120.657C396.246 105.079 381.835 94.2514 366.334 93.6283C360.336 93.3946 345.459 94.1735 337.046 106.637C330.659 116.14 330.347 129.148 336.189 138.261C343.2 149.089 356.52 150.958 359.168 151.27C366.101 151.971 371.475 150.179 376.149 148.621C379.265 147.609 382.069 146.674 384.717 146.674ZM396.635 161.863H396.557C396.401 161.785 396.246 161.707 396.246 161.474C395.233 155.009 392.896 150.724 389.313 148.699C385.418 146.518 381.446 147.764 376.538 149.4C371.709 150.958 366.256 152.828 359.168 152.049C355.429 151.659 342.577 149.556 335.566 138.651C329.491 129.226 329.88 115.828 336.423 106.091C344.991 93.3167 360.259 92.4599 366.412 92.6936C374.357 93.0051 382.147 95.9651 388.846 101.184C395.155 106.091 400.218 112.868 403.022 120.268C410.967 141.299 398.582 159.604 397.18 161.63C396.947 161.785 396.791 161.863 396.635 161.863Z" fill="#0E2549"/>
<path d="M388.456 119.801H347.095C346.861 119.801 346.627 119.567 346.627 119.333C346.627 119.1 346.861 118.866 347.095 118.866H388.456C388.69 118.866 388.923 119.1 388.923 119.333C388.923 119.645 388.768 119.801 388.456 119.801Z" fill="#0E2549"/>
<path d="M375.136 125.253H360.336C360.103 125.253 359.869 125.019 359.869 124.786C359.869 124.552 360.103 124.318 360.336 124.318H375.136C375.37 124.318 375.604 124.552 375.604 124.786C375.526 125.019 375.37 125.253 375.136 125.253Z" fill="#0E2549"/>
<path d="M92.8493 414.862H250.351C257.049 414.862 262.502 409.332 262.502 402.555L247.079 79.4516C247.079 72.6749 241.626 67.1444 234.928 67.1444H77.4264C70.7275 67.1444 65.275 72.6749 65.275 79.4516L80.62 402.633C80.6979 409.41 86.1505 414.862 92.8493 414.862Z" fill="#0E2549"/>
<path d="M103.521 414.94H261.022C267.721 414.94 273.173 409.487 273.173 402.711L257.828 80.1527C257.828 73.3759 252.376 67.9233 245.677 67.9233H88.0978C81.399 67.9233 75.9464 73.3759 75.9464 80.1527L91.3694 402.711C91.3694 409.487 96.8219 414.94 103.521 414.94Z" fill="#FEFEFE"/>
<path d="M245.287 415.018H212.806C212.572 415.018 212.338 414.784 212.338 414.551C212.338 414.317 212.572 414.083 212.806 414.083H245.287C245.521 414.083 245.755 414.317 245.755 414.551C245.755 414.784 245.521 415.018 245.287 415.018Z" fill="#0E2549"/>
<path d="M195.825 415.018H103.521C96.5882 415.018 90.9799 409.332 90.9799 402.321L85.1379 293.114C85.1379 292.88 85.2937 292.647 85.5273 292.647C85.761 292.647 85.9947 292.803 85.9947 293.036L91.8367 402.243C91.8367 408.786 97.0556 414.083 103.521 414.083H195.903C196.136 414.083 196.37 414.317 196.37 414.551C196.292 414.784 196.059 415.018 195.825 415.018Z" fill="#0E2549"/>
<path d="M81.0874 190.139C80.8537 190.139 80.62 189.983 80.62 189.749L75.5569 79.6853C75.5569 72.6749 81.1653 66.9886 88.0978 66.9886H245.599C252.532 66.9886 258.14 72.6749 258.14 79.6853L259.386 109.051C259.386 109.285 259.23 109.519 258.997 109.519C258.763 109.519 258.529 109.363 258.529 109.129L257.361 79.7632C257.361 73.2201 252.142 67.9233 245.677 67.9233H88.0978C81.6327 67.9233 76.4138 73.2201 76.4138 79.7632L81.4769 189.749C81.4769 189.905 81.3211 190.139 81.0874 190.139Z" fill="#0E2549"/>
<path d="M110.765 405.749H254.635C260.788 405.749 265.696 400.763 265.696 394.532L250.506 89.0326C250.506 82.879 245.521 77.8159 239.445 77.8159H95.6535C89.4999 77.8159 84.5926 82.8011 84.5926 89.0326L99.704 394.532C99.704 400.763 104.689 405.749 110.765 405.749Z" fill="#FEFEFE"/>
<path d="M95.6535 78.2832C89.8115 78.2832 84.9821 83.1126 84.9821 89.0326L100.171 394.532C100.171 400.452 104.923 405.281 110.843 405.281H254.713C260.555 405.281 265.384 400.452 265.384 394.532L250.195 89.0326C250.195 83.1126 245.443 78.2832 239.523 78.2832H95.6535ZM254.635 406.216H110.765C104.378 406.216 99.2366 400.997 99.2366 394.61L84.1253 89.1105C84.1253 82.6453 89.2662 77.4264 95.6535 77.4264H239.523C245.911 77.4264 251.052 82.6453 251.052 89.0326L266.241 394.532C266.163 400.997 261.022 406.216 254.635 406.216Z" fill="#0E2549"/>
<path d="M95.0304 175.495C94.7967 175.495 94.563 175.339 94.563 175.105L93.1609 146.129C93.1609 145.895 93.3167 145.661 93.5504 145.661C93.7841 145.661 94.0178 145.817 94.0178 146.051L95.4198 175.027C95.4977 175.261 95.3419 175.495 95.0304 175.495Z" fill="#0E2549"/>
<path d="M246.923 148.777C246.69 148.777 246.456 148.621 246.456 148.388L243.885 94.4851C243.885 88.721 239.523 84.1253 234.071 84.1253H101.496C96.1209 84.1253 91.6809 88.7989 91.6809 94.4851L93.6283 135.379C93.6283 135.613 93.4725 135.847 93.2388 135.847C93.0051 135.847 92.7715 135.691 92.7715 135.457L90.8241 94.4851C90.8241 88.2536 95.5756 83.1905 101.496 83.1905H234.227C240.146 83.1905 244.898 88.2536 244.898 94.4851L247.468 148.388C247.391 148.543 247.235 148.777 246.923 148.777Z" fill="#0E2549"/>
<path d="M258.296 343.434C258.062 343.434 257.828 343.278 257.828 343.044L255.647 297.632C255.647 297.398 255.803 297.165 256.037 297.165C256.27 297.165 256.504 297.32 256.504 297.554L258.685 342.966C258.763 343.278 258.529 343.434 258.296 343.434Z" fill="#FEFEFE"/>
<path d="M235.239 400.841H149.712C149.478 400.841 149.244 400.608 149.244 400.374C149.244 400.14 149.478 399.907 149.712 399.907H235.239C235.473 399.907 235.706 400.14 235.706 400.374C235.706 400.608 235.473 400.841 235.239 400.841Z" fill="#0E2549"/>
<path d="M139.04 400.841H115.439C109.519 400.841 104.767 395.778 104.767 389.547L102.898 350.132C102.898 349.899 103.053 349.665 103.287 349.665C103.521 349.665 103.754 349.821 103.754 350.055L105.624 389.469C105.624 395.233 109.986 399.829 115.439 399.829H139.04C139.274 399.829 139.508 400.062 139.508 400.296C139.43 400.608 139.274 400.841 139.04 400.841Z" fill="#0E2549"/>
<path d="M193.566 67.8455L190.528 72.9086C188.659 75.9464 185.621 77.8159 182.271 77.8159H151.659C148.388 77.8159 145.428 76.0243 143.558 73.0643L140.287 67.8455H193.566Z" fill="#0E2549"/>
<path d="M265.929 260.087C265.696 260.087 265.462 259.931 265.462 259.698L263.203 215.61C263.203 215.376 263.359 215.143 263.592 215.143C263.826 215.143 264.06 215.298 264.06 215.532L266.319 259.62C266.397 259.854 266.241 260.087 265.929 260.087Z" fill="#0E2549"/>
<path d="M250.584 223.166C250.584 266.942 215.065 302.461 171.288 302.461C127.512 302.461 91.9925 266.942 91.9925 223.166C91.9925 179.389 127.512 143.87 171.288 143.87C215.065 143.87 250.584 179.311 250.584 223.166Z" fill="#FEFEFE"/>
<path d="M171.288 144.259C127.824 144.259 92.4599 179.623 92.4599 223.088C92.4599 266.552 127.824 301.916 171.288 301.916C214.753 301.916 250.117 266.552 250.117 223.088C250.117 179.701 214.753 144.259 171.288 144.259ZM171.288 302.851C127.356 302.851 91.5252 267.098 91.5252 223.088C91.5252 179.156 127.278 143.325 171.288 143.325C215.22 143.325 251.052 179.078 251.052 223.088C250.974 267.098 215.22 302.851 171.288 302.851Z" fill="#0E2549"/>
<path d="M215.376 278.314L141.689 282.443C141.689 282.443 141.689 288.908 141.455 296.308C151.971 301.449 163.655 302.461 176.118 302.461C191.151 302.461 205.016 295.217 216.934 287.973L215.376 278.314Z" fill="#0E2549"/>
<path d="M277.847 135.847C277.691 134.367 278.548 132.653 278.86 131.173C279.483 127.902 280.106 124.552 279.95 121.281C279.872 118.321 279.716 115.672 278.548 113.024C277.691 111.232 276.367 108.895 273.874 109.129C272.005 109.285 270.369 110.453 269.357 112.011C267.954 114.114 267.643 116.685 267.721 119.177C267.799 121.436 268.578 124.163 268.11 126.344C267.565 128.68 266.241 128.447 265.072 126.655C262.112 122.06 257.205 121.203 258.919 122.838C260.632 124.474 263.748 130.939 264.917 132.731C265.306 133.354 266.63 134.133 268.11 134.912C268.11 139.118 267.565 145.661 264.605 152.75C261.022 161.162 255.414 167.004 250.74 170.743C254.557 177.364 262.814 188.269 276.99 190.061C279.015 186.088 280.573 181.882 281.664 177.52C283.611 169.808 284.078 161.785 282.988 153.918C282.443 149.945 281.508 146.051 280.262 142.234C279.639 140.287 278.704 138.495 278.003 136.548C277.925 136.236 277.925 136.002 277.847 135.847Z" fill="#FEFEFE"/>
<path d="M251.285 170.743C254.946 177.13 263.047 187.568 276.679 189.515C278.626 185.621 280.106 181.57 281.196 177.364C283.144 169.808 283.611 161.707 282.521 153.918C281.975 149.945 281.041 146.051 279.794 142.312C279.483 141.299 279.015 140.365 278.626 139.43C278.236 138.495 277.847 137.56 277.535 136.626C277.458 136.392 277.38 136.158 277.38 135.925C277.224 134.834 277.613 133.744 277.925 132.653C278.081 132.108 278.236 131.64 278.314 131.095C279.015 127.434 279.483 124.396 279.405 121.281C279.327 118.087 279.171 115.672 278.003 113.18C277.224 111.388 275.978 109.363 273.797 109.597C272.161 109.752 270.603 110.765 269.59 112.245C268.422 113.959 267.954 116.217 268.032 119.177C268.032 119.956 268.188 120.813 268.266 121.67C268.5 123.306 268.733 124.942 268.422 126.422C268.11 127.979 267.409 128.369 266.942 128.447C266.163 128.603 265.306 128.057 264.605 126.889C262.736 124.007 260.243 122.761 259.23 122.527C260.477 123.695 262.268 126.967 263.67 129.615C264.293 130.784 264.917 131.874 265.228 132.419C265.384 132.731 266.007 133.354 268.266 134.445C268.422 134.523 268.5 134.678 268.5 134.834C268.5 141.143 267.331 147.219 264.917 152.828C262.035 159.682 257.439 165.758 251.285 170.743ZM276.99 190.45C262.424 188.581 254.089 177.442 250.351 170.899C250.273 170.743 250.273 170.432 250.428 170.354C256.66 165.368 261.256 159.371 264.138 152.516C266.397 147.063 267.643 141.221 267.643 135.146C265.929 134.289 264.917 133.588 264.527 132.965C264.138 132.419 263.592 131.329 262.891 130.083C261.567 127.59 259.698 124.241 258.529 123.15C258.374 122.994 257.906 122.605 258.062 122.06C258.062 121.904 258.218 121.67 258.685 121.592C259.854 121.436 263.125 122.916 265.384 126.344C266.007 127.278 266.552 127.59 266.864 127.512C267.176 127.434 267.487 126.967 267.643 126.188C267.954 124.864 267.721 123.228 267.487 121.748C267.331 120.891 267.253 119.956 267.253 119.177C267.176 116.062 267.721 113.569 268.967 111.7C270.136 109.986 272.005 108.818 273.874 108.662C276.601 108.428 278.081 110.765 279.015 112.79C280.184 115.439 280.418 118.087 280.495 121.203C280.573 124.396 280.106 127.512 279.405 131.251C279.327 131.796 279.093 132.341 278.938 132.887C278.626 133.899 278.314 134.912 278.392 135.769C278.392 135.925 278.47 136.158 278.548 136.314C278.86 137.249 279.249 138.184 279.639 139.04C280.028 139.975 280.495 140.988 280.807 142C282.131 145.817 283.066 149.79 283.611 153.762C284.702 161.63 284.234 169.886 282.287 177.52C281.196 181.882 279.561 186.166 277.535 190.139C277.302 190.294 277.146 190.45 276.99 190.45Z" fill="#0E2549"/>
<path d="M250.74 170.665C247.78 173.08 245.21 174.56 243.807 175.417C221.218 188.814 207.509 173.469 170.509 174.404C156.956 174.794 147.687 172.846 123.617 183.284C123.617 183.284 79.6853 197.383 79.6853 242.405C79.6853 255.024 88.0199 265.696 97.8346 269.123C106.559 258.14 109.441 251.908 116.217 249.26C116.14 248.715 111.388 245.521 111.466 244.976C112.634 233.525 116.529 230.254 120.969 228.151C122.994 227.216 125.409 228.384 125.643 230.566C126.655 240.38 125.253 248.169 127.434 271.538C128.68 285.091 130.083 287.116 131.407 288.441C139.975 297.165 154.697 285.481 188.97 284.935C205.25 284.702 215.999 287.116 219.037 281.508C221.218 277.458 217.557 272.628 214.909 265.618C211.637 256.894 209.301 243.418 215.065 223.477C237.888 225.97 260.321 215.766 273.173 196.915C274.731 194.656 276.055 192.398 277.224 189.983C262.814 188.191 254.557 177.286 250.74 170.665Z" fill="#FEFEFE"/>
<path d="M122.293 227.372C122.916 227.372 123.539 227.528 124.085 227.839C125.097 228.384 125.721 229.397 125.876 230.566C126.266 234.616 126.344 238.199 126.344 242.795C126.344 249.416 126.422 257.75 127.668 271.538C128.914 284.546 130.16 286.805 131.485 288.129C136.08 292.803 142.546 291.401 153.295 289.064C161.785 287.194 173.391 284.702 188.737 284.468C193.099 284.39 197.071 284.546 200.576 284.624C210.079 284.935 216.311 285.091 218.414 281.274C219.894 278.47 218.414 275.199 216.467 270.992C215.766 269.434 214.987 267.643 214.208 265.773C209.69 253.778 209.69 239.523 214.364 223.399C214.442 223.166 214.597 223.088 214.831 223.088C237.576 225.58 259.698 215.532 272.472 196.682C273.874 194.656 275.121 192.553 276.211 190.372C262.424 188.347 254.323 177.831 250.506 171.366C247.624 173.625 245.287 175.027 243.963 175.806C230.488 183.829 220.284 181.726 206.263 178.766C196.526 176.741 185.543 174.482 170.432 174.871C168.328 174.949 166.303 174.949 164.356 174.949C153.84 174.949 143.948 174.949 123.695 183.751C123.539 183.829 112.634 187.412 101.807 196.37C91.8367 204.627 79.9969 219.349 79.9969 242.405C79.9969 253.934 87.3189 264.917 97.523 268.578C99.7819 265.696 101.651 263.203 103.365 260.944C107.883 254.868 110.609 251.129 115.361 249.026C114.971 248.637 114.192 248.014 113.569 247.546C111.232 245.677 110.843 245.287 110.921 244.82C112.167 232.669 116.607 229.553 120.657 227.683C121.203 227.45 121.748 227.372 122.293 227.372ZM139.741 292.102C136.158 292.102 133.354 291.167 130.861 288.752C129.382 287.272 128.057 284.935 126.811 271.616C125.487 257.75 125.487 249.416 125.487 242.795C125.487 238.199 125.487 234.616 125.019 230.643C124.942 229.787 124.474 229.008 123.695 228.618C122.916 228.151 121.904 228.151 120.969 228.54C116.996 230.41 112.946 233.292 111.778 244.898C112.011 245.21 113.258 246.222 114.114 246.923C115.984 248.403 116.451 248.871 116.529 249.26C116.529 249.494 116.451 249.649 116.217 249.727C111.388 251.675 108.584 255.414 103.988 261.567C102.274 263.904 100.327 266.475 97.9903 269.512C97.8346 269.668 97.6788 269.746 97.523 269.668C86.8515 265.929 79.1401 254.557 79.1401 242.483C79.1401 219.037 91.2136 204.082 101.262 195.669C112.167 186.556 123.306 182.972 123.384 182.895C143.792 174.015 153.762 174.015 164.356 174.015C166.303 174.015 168.328 174.015 170.432 173.937C185.621 173.547 196.682 175.806 206.496 177.831C220.361 180.714 230.41 182.817 243.574 174.949C244.976 174.17 247.468 172.613 250.428 170.276C250.506 170.198 250.662 170.198 250.818 170.198C250.974 170.198 251.052 170.276 251.129 170.432C254.79 176.819 262.969 187.724 277.068 189.515C277.224 189.515 277.302 189.593 277.38 189.749C277.458 189.905 277.458 190.061 277.38 190.139C276.133 192.553 274.809 194.89 273.251 197.071C260.321 216.077 238.043 226.281 215.143 223.867C210.625 239.679 210.625 253.622 215.065 265.306C215.766 267.176 216.545 268.889 217.246 270.447C219.271 274.887 220.829 278.392 219.115 281.586C216.778 285.948 210.313 285.714 200.499 285.403C196.993 285.325 193.021 285.169 188.737 285.247C173.469 285.481 161.941 287.973 153.451 289.843C147.92 291.167 143.402 292.102 139.741 292.102Z" fill="#0E2549"/>
<path d="M156.333 246.456C156.255 246.456 156.177 246.456 156.099 246.378C147.063 240.847 142.935 232.123 145.194 227.995C145.895 226.749 148.232 224.178 155.164 227.683C155.398 227.761 155.476 228.073 155.398 228.307C155.32 228.54 155.009 228.618 154.775 228.54C150.413 226.359 147.219 226.359 145.973 228.54C144.181 231.812 147.375 240.069 156.566 245.755C156.8 245.911 156.878 246.144 156.722 246.378C156.644 246.378 156.489 246.456 156.333 246.456Z" fill="#0E2549"/>
<path d="M156.411 249.961L169.653 248.948C170.587 248.871 171.288 248.092 171.288 247.157L170.665 222.932C170.665 221.919 169.808 221.14 168.796 221.218L153.217 222.387C152.204 222.465 151.503 223.321 151.581 224.334L154.541 248.325C154.697 249.338 155.476 250.039 156.411 249.961Z" fill="#0E2549"/>
<path d="M166.459 235.784C166.381 235.629 166.303 235.473 166.147 235.239C163.811 232.123 158.592 235.317 155.943 236.252C153.84 236.953 151.737 237.576 149.556 238.277L141.455 247.858C137.093 249.026 123.773 253.466 114.036 247.157C110.921 245.132 106.714 245.988 104.456 248.948C101.106 253.466 97.9903 259.308 95.9651 268.422C111.622 273.095 133.977 267.409 144.026 258.451C148.621 258.607 152.204 254.167 154.931 251.129C156.489 249.416 157.891 247.313 159.916 246.066C161.707 244.898 163.888 244.197 165.213 242.405C166.069 241.315 166.459 239.835 166.615 238.433C166.848 237.576 166.848 236.641 166.459 235.784Z" fill="#FEFEFE"/>
<path d="M96.5882 268.11C112.634 272.706 134.289 266.552 143.792 258.062C143.87 257.984 144.026 257.906 144.103 257.984C148.154 258.14 151.425 254.401 154.074 251.441L154.619 250.818C155.009 250.428 155.32 249.961 155.71 249.494C156.878 248.092 158.124 246.612 159.682 245.677C160.227 245.287 160.851 244.976 161.474 244.664C162.798 243.963 164.044 243.262 164.901 242.172C165.602 241.237 166.069 239.991 166.225 238.433C166.381 237.42 166.303 236.641 165.992 236.018C165.914 235.862 165.836 235.706 165.758 235.629C164.122 233.448 160.695 234.85 157.969 236.018C157.267 236.33 156.566 236.563 156.021 236.797L149.79 238.822L141.767 248.247C141.689 248.325 141.611 248.403 141.533 248.403C141.221 248.481 140.832 248.637 140.365 248.715C135.146 250.195 122.916 253.622 113.725 247.624C110.843 245.755 106.87 246.456 104.767 249.338C100.95 254.557 98.3019 260.555 96.5882 268.11ZM108.662 270.603C104.3 270.603 99.9377 270.058 95.9651 268.889C95.7314 268.811 95.5756 268.578 95.6535 268.344C97.3672 260.477 100.093 254.245 104.222 248.715C106.637 245.521 111.076 244.664 114.348 246.767C123.15 252.532 135.146 249.182 140.209 247.702C140.598 247.624 140.91 247.468 141.221 247.391L149.244 237.965C149.322 237.888 149.4 237.888 149.478 237.81L155.865 235.784C156.411 235.629 157.034 235.317 157.735 235.083C160.617 233.915 164.512 232.279 166.615 235.005C166.771 235.161 166.848 235.395 167.004 235.629C167.316 236.408 167.472 237.264 167.316 238.511C167.082 240.302 166.615 241.626 165.758 242.717C164.745 244.041 163.343 244.742 162.019 245.443C161.474 245.755 160.851 246.066 160.305 246.378C158.903 247.313 157.657 248.715 156.566 250.039C156.177 250.506 155.788 250.896 155.476 251.363L154.931 251.986C152.204 255.024 148.855 258.841 144.571 258.841H144.493C136.859 265.462 122.293 270.603 108.662 270.603Z" fill="#0E2549"/>
<path d="M163.966 153.529C161.24 154.853 159.215 155.086 157.813 155.009C152.516 154.697 149.167 150.413 148.465 149.634C144.96 145.272 143.247 138.028 146.284 133.744C148.388 130.706 151.114 131.874 153.529 128.447C156.333 124.552 153.451 121.436 156.021 118.009C158.981 114.114 165.524 114.426 166.693 114.426C170.743 114.582 171.21 116.607 175.027 116.529C178.922 116.451 179.467 114.504 182.972 114.426C185.777 114.426 189.905 115.594 191.774 118.866C194.111 122.994 191.697 128.369 188.97 131.251C185.621 134.678 183.362 132.809 178.688 135.613C170.665 140.598 172.613 149.244 163.966 153.529Z" fill="#0E2549"/>
<path d="M178.922 171.834L176.741 158.28C177.208 158.202 181.259 157.501 181.726 157.267C185.465 155.398 184.375 146.129 184.375 146.129L186.4 143.636L180.246 129.849C173.703 135.301 171.366 129.927 164.901 132.653C158.436 135.301 161.941 142.546 161.941 142.546C161.941 142.546 156.644 140.209 157.813 145.35C158.67 149.244 161.474 149.478 163.343 149.322L159.916 172.535C159.916 172.535 153.139 174.482 149.167 175.573C148.543 175.728 148.543 176.585 149.167 176.741C155.398 178.299 170.899 182.739 188.425 176.196C189.126 175.962 189.126 174.871 188.347 174.638L178.922 171.834Z" fill="#FEFEFE"/>
<path d="M163.343 148.855C163.499 148.855 163.577 148.933 163.655 149.011C163.733 149.089 163.811 149.244 163.733 149.4L160.305 172.613C160.305 172.768 160.15 172.924 159.994 173.002C159.994 173.002 153.217 174.949 149.244 176.04C149.167 176.04 149.167 176.118 149.167 176.196C149.167 176.274 149.167 176.351 149.322 176.351L150.179 176.585C156.644 178.221 171.678 182.038 188.347 175.884C188.581 175.806 188.581 175.573 188.581 175.495C188.581 175.417 188.581 175.183 188.347 175.183L178.844 172.379C178.688 172.301 178.532 172.223 178.532 171.989L176.351 158.436C176.351 158.28 176.351 158.202 176.429 158.124C176.507 158.046 176.585 157.969 176.741 157.969C177.286 157.891 181.103 157.19 181.57 157.034C184.375 155.632 184.297 148.855 183.985 146.284C183.985 146.129 183.985 146.051 184.063 145.973L185.932 143.714L180.09 130.706C176.507 133.51 174.093 133.12 171.6 132.731C169.73 132.419 167.783 132.108 165.135 133.198C163.499 133.899 162.408 134.912 161.863 136.314C160.773 139.118 162.408 142.468 162.408 142.468C162.486 142.623 162.486 142.857 162.331 142.935C162.175 143.091 162.019 143.091 161.863 143.013C161.24 142.701 159.449 142.156 158.592 142.857C157.969 143.324 158.124 144.493 158.28 145.35C158.903 147.998 160.461 149.089 163.343 148.855ZM169.029 180.09C160.617 180.09 153.762 178.377 149.945 177.364L149.089 177.13C148.621 176.975 148.31 176.585 148.31 176.118C148.31 175.65 148.621 175.261 149.089 175.105C152.594 174.093 158.28 172.535 159.526 172.145L162.876 149.712C159.916 149.79 158.124 148.31 157.423 145.35C157.034 143.714 157.267 142.623 158.046 142C158.903 141.299 160.305 141.455 161.24 141.689C160.773 140.365 160.227 137.95 161.084 135.769C161.707 134.133 162.954 132.887 164.823 132.108C167.705 130.939 169.886 131.251 171.834 131.563C174.326 131.952 176.507 132.341 180.09 129.382C180.168 129.304 180.324 129.226 180.48 129.304C180.636 129.304 180.714 129.459 180.791 129.537L186.945 143.325C187.023 143.48 187.023 143.636 186.867 143.792L184.92 146.129C185.076 147.531 185.621 155.71 181.96 157.579C181.492 157.813 178.532 158.358 177.286 158.514L179.311 171.366L188.503 174.093C189.048 174.248 189.36 174.716 189.438 175.261C189.438 175.806 189.126 176.274 188.581 176.507C181.648 179.234 174.949 180.09 169.029 180.09Z" fill="#0E2549"/>
<path d="M175.339 158.903C169.808 158.903 167.238 154.619 167.238 154.619C167.082 154.385 167.16 154.152 167.394 153.996C167.627 153.84 167.861 153.918 168.017 154.152C168.095 154.308 170.821 158.747 176.741 157.891C176.975 157.891 177.208 158.046 177.208 158.28C177.208 158.514 177.053 158.747 176.819 158.747C176.274 158.825 175.806 158.903 175.339 158.903Z" fill="#0E2549"/>
<path d="M153.762 318.04C149.011 318.04 145.116 321.935 145.116 326.686C145.116 331.438 149.011 335.333 153.762 335.333C158.514 335.333 162.408 331.438 162.408 326.686C162.408 321.935 158.514 318.04 153.762 318.04ZM153.762 336.345C148.465 336.345 144.181 332.061 144.181 326.764C144.181 321.467 148.465 317.183 153.762 317.183C159.059 317.183 163.343 321.467 163.343 326.764C163.343 331.983 159.059 336.345 153.762 336.345Z" fill="#0E2549"/>
<path d="M179.467 318.04C174.716 318.04 170.821 321.935 170.821 326.686C170.821 331.438 174.716 335.333 179.467 335.333C184.219 335.333 188.113 331.438 188.113 326.686C188.191 321.935 184.297 318.04 179.467 318.04ZM179.467 336.345C174.17 336.345 169.886 332.061 169.886 326.764C169.886 321.467 174.17 317.183 179.467 317.183C184.764 317.183 189.048 321.467 189.048 326.764C189.048 331.983 184.764 336.345 179.467 336.345Z" fill="#0E2549"/>
<path d="M205.717 317.105C200.966 317.105 197.071 321 197.071 325.752C197.071 330.503 200.966 334.398 205.717 334.398C210.469 334.398 214.364 330.503 214.364 325.752C214.364 321 210.469 317.105 205.717 317.105ZM205.717 335.41C200.421 335.41 196.136 331.126 196.136 325.83C196.136 320.533 200.421 316.249 205.717 316.249C211.014 316.249 215.298 320.533 215.298 325.83C215.298 331.048 211.014 335.41 205.717 335.41Z" fill="#0E2549"/>
<path d="M269.746 404.269C269.746 404.269 279.95 401.075 296.619 368.671C310.718 341.33 298.177 314.924 295.607 297.243C295.373 295.451 292.881 295.217 292.257 296.931C288.051 308.849 281.196 330.425 282.365 343.745C283.923 362.829 269.746 404.269 269.746 404.269Z" fill="#FEFEFE"/>
<path d="M293.893 296.152C293.426 296.152 292.958 296.386 292.725 297.009C288.518 308.693 281.742 330.347 282.832 343.589C284.234 360.96 272.706 396.869 270.525 403.412C273.329 401.776 282.676 394.843 296.23 368.515C307.057 347.484 302.072 327.076 298.021 310.64C296.853 305.889 295.763 301.371 295.139 297.32C295.062 296.542 294.438 296.23 293.971 296.23C293.971 296.152 293.893 296.152 293.893 296.152ZM269.746 404.736C269.59 404.736 269.512 404.658 269.434 404.58C269.357 404.424 269.279 404.269 269.357 404.113C269.512 403.723 283.533 362.518 281.975 343.667C280.885 330.27 287.74 308.459 291.946 296.697C292.257 295.763 293.192 295.139 294.205 295.295C295.217 295.373 295.996 296.152 296.152 297.165C296.697 301.137 297.788 305.655 298.956 310.407C303.007 326.998 308.07 347.562 297.087 368.905C280.495 401.075 270.369 404.58 269.902 404.736C269.824 404.658 269.746 404.736 269.746 404.736Z" fill="#0E2549"/>
<path d="M280.807 386.509L284.468 357.766C286.026 345.303 284.001 332.606 278.626 321.312C270.759 304.798 270.136 285.714 276.912 268.733L282.754 254.167C283.455 252.298 281.119 250.818 279.794 252.298L271.616 261.334C252.999 281.742 246.767 310.718 255.18 337.124L270.291 384.406L280.807 386.509Z" fill="#FEFEFE"/>
<path d="M270.525 384.094L280.418 385.964L284.001 357.688C285.559 345.303 283.533 332.762 278.159 321.468C270.213 304.876 269.59 285.636 276.445 268.578L282.287 254.012C282.599 253.233 282.209 252.609 281.742 252.376C281.352 252.142 280.651 251.986 280.106 252.609L271.849 261.723C253.388 281.975 247.157 310.874 255.492 337.046L270.525 384.094ZM280.807 386.976H280.729L270.136 384.951C269.98 384.951 269.824 384.795 269.824 384.639L254.713 337.358C246.222 310.874 252.609 281.664 271.226 261.1L279.405 252.064C280.262 251.129 281.43 251.207 282.209 251.675C282.988 252.142 283.611 253.233 283.066 254.401L277.224 268.967C270.525 285.792 271.07 304.798 278.938 321.156C284.39 332.606 286.415 345.225 284.857 357.844L281.196 386.587C281.196 386.742 281.119 386.82 281.041 386.898C280.963 386.976 280.885 386.976 280.807 386.976Z" fill="#0E2549"/>
<path d="M276.055 387.444L263.437 355.273C259.854 346.082 252.298 339.149 242.951 336.267L234.382 333.697C232.279 333.074 230.877 335.8 232.591 337.124L237.888 341.253C243.574 345.692 247.001 352.547 247.157 359.791C247.235 364.075 248.481 368.282 250.662 371.865L259.23 385.886L276.055 387.444Z" fill="#FEFEFE"/>
<path d="M259.542 385.574L275.354 386.976L263.047 355.507C259.464 346.394 252.142 339.617 242.873 336.813L234.304 334.242C233.448 334.008 232.824 334.476 232.513 335.021C232.279 335.566 232.201 336.345 232.902 336.968L238.199 341.097C244.041 345.615 247.468 352.547 247.624 360.025C247.702 364.231 248.948 368.36 251.052 371.943L259.542 385.574ZM276.055 387.911L259.23 386.431C259.075 386.431 258.997 386.353 258.919 386.197L250.351 372.176C248.092 368.437 246.845 364.231 246.767 359.869C246.612 352.703 243.262 346.004 237.654 341.642L232.357 337.514C231.267 336.657 231.267 335.333 231.734 334.476C232.201 333.619 233.214 332.84 234.538 333.307L243.106 335.878C252.609 338.76 260.165 345.77 263.826 355.118L276.445 387.288C276.523 387.444 276.445 387.599 276.367 387.755C276.367 387.833 276.211 387.911 276.055 387.911Z" fill="#0E2549"/>
<path d="M274.264 372.799C274.186 372.799 274.186 372.799 274.264 372.799C273.952 372.799 273.797 372.566 273.797 372.332C275.744 351.768 271.616 338.526 267.954 326.842C266.241 321.468 264.683 316.327 263.748 310.874C259.308 285.013 274.498 262.58 274.653 262.346C274.809 262.112 275.043 262.112 275.277 262.268C275.51 262.424 275.51 262.658 275.354 262.891C275.199 263.125 260.243 285.247 264.605 310.718C265.54 316.171 267.098 321.234 268.811 326.608C272.472 338.37 276.601 351.69 274.731 372.41C274.653 372.644 274.42 372.799 274.264 372.799Z" fill="#0E2549"/>
<path d="M291.011 359.09C290.699 359.012 290.544 358.779 290.544 358.545C293.971 338.215 292.803 306.979 292.803 306.668C292.803 306.434 292.958 306.2 293.192 306.2C293.426 306.2 293.659 306.356 293.659 306.59C293.659 306.901 294.828 338.215 291.401 358.623C291.401 358.934 291.245 359.09 291.011 359.09Z" fill="#0E2549"/>
<path d="M260.944 375.915C260.71 375.915 260.477 375.682 260.477 375.448C260.243 350.132 240.069 339.072 239.835 338.994C239.601 338.838 239.523 338.604 239.679 338.37C239.757 338.137 240.069 338.059 240.302 338.215C240.536 338.293 261.178 349.665 261.411 375.448C261.411 375.682 261.178 375.915 260.944 375.915Z" fill="#0E2549"/>
<path d="M263.67 328.556C263.515 328.556 263.437 328.478 263.281 328.4C257.828 321.39 255.414 311.887 255.336 311.809C255.258 311.575 255.414 311.341 255.647 311.263C255.881 311.186 256.115 311.341 256.193 311.575C256.193 311.653 258.607 321 263.904 327.855C264.06 328.011 263.982 328.322 263.826 328.478C263.826 328.556 263.748 328.556 263.67 328.556Z" fill="#0E2549"/>
<path d="M274.264 424.833H271.927C259.386 424.833 249.182 414.628 249.182 402.088V379.654H296.931V402.088C296.931 414.706 286.805 424.833 274.264 424.833Z" fill="#FEFEFE"/>
<path d="M249.727 380.122V402.088C249.727 414.395 259.698 424.365 272.005 424.365H274.342C286.649 424.365 296.619 414.395 296.619 402.088V380.122H249.727ZM274.264 425.3H271.927C259.153 425.3 248.793 414.94 248.793 402.165V379.732C248.793 379.498 249.026 379.265 249.26 379.265H297.009C297.243 379.265 297.476 379.498 297.476 379.732V402.165C297.398 414.94 287.038 425.3 274.264 425.3Z" fill="#0E2549"/>
<path d="M292.257 388.145H253.934C253.7 388.145 253.466 387.911 253.466 387.677C253.466 387.444 253.7 387.21 253.934 387.21H292.335C292.569 387.21 292.803 387.444 292.803 387.677C292.803 387.911 292.569 388.145 292.257 388.145Z" fill="#0E2549"/>
</svg>
