<svg width="445" height="444" viewBox="0 0 445 444" fill="none" xmlns="http://www.w3.org/2000/svg">
<path d="M153.279 18.553L434.292 17.8359C440.567 17.8359 445.497 22.2282 444.959 27.4271L428.466 290.423C428.018 294.995 423.356 298.401 417.799 298.401H405.429L402.829 297.057L49.9269 298.312C43.6523 298.312 38.6326 293.381 39.1704 288.272L55.6637 26.5308C56.1119 21.9593 60.5937 18.0152 66.1512 18.0152L153.279 18.553Z" fill="#0E2549"/>
<path d="M141.447 18.7344H421.653C427.928 18.7344 432.858 23.1266 432.32 28.3256L416.006 290.246C415.558 294.818 410.897 298.224 405.339 298.224H38.4532C32.1785 298.224 27.2484 293.832 27.7863 288.633L44.1003 26.7121C44.5485 22.1406 49.2097 18.7344 54.7672 18.7344H141.447Z" fill="#FEFEFE"/>
<path d="M405.429 298.044C405.16 298.044 404.892 297.775 404.892 297.506C404.892 297.237 405.16 296.968 405.429 296.968C410.539 296.968 414.752 293.741 415.2 289.439L431.514 28.3248C431.693 26.3527 431.066 24.3807 429.631 22.7672C427.749 20.6159 424.701 19.361 421.385 19.361H54.4988C49.2998 19.361 44.818 22.6776 44.3698 26.8906L34.6889 189.493C34.6889 189.762 34.4201 190.031 34.1511 190.031C33.8822 190.031 33.6133 189.762 33.6133 189.493L43.2941 26.8906C43.8319 22.0501 48.5827 18.375 54.4988 18.375H421.385C424.97 18.375 428.287 19.7196 430.349 22.1398C431.962 23.9325 432.769 26.2631 432.5 28.504L416.186 289.618C415.738 294.369 411.077 298.044 405.429 298.044Z" fill="#0E2549"/>
<path d="M318.125 297.955H245.07C244.801 297.955 244.532 297.686 244.532 297.417C244.532 297.148 244.801 296.879 245.07 296.879H318.125C318.393 296.879 318.662 297.148 318.662 297.417C318.662 297.775 318.393 297.955 318.125 297.955Z" fill="#0E2549"/>
<path d="M398.707 47.1495H368.768C368.499 47.1495 368.23 46.8805 368.23 46.6116C368.23 46.3427 368.499 46.0738 368.768 46.0738H398.707C401.396 46.0738 403.637 44.0122 403.726 41.323C403.816 39.8888 403.278 38.5443 402.382 37.5583C401.396 36.5723 400.141 35.9448 398.707 35.9448H364.286C364.017 35.9448 363.748 35.6759 363.748 35.407C363.748 35.138 364.017 34.8691 364.286 34.8691H398.707C400.41 34.8691 402.023 35.5862 403.189 36.7515C404.354 38.0064 404.981 39.6199 404.892 41.323C404.623 44.6396 401.934 47.1495 398.707 47.1495Z" fill="#0E2549"/>
<path d="M297.597 101.83C294.908 101.83 292.667 103.891 292.577 106.58C292.487 108.015 293.025 109.359 293.922 110.345C294.908 111.331 296.163 111.959 297.597 111.959H330.314C333.004 111.959 335.244 109.897 335.334 107.208C335.424 105.774 334.886 104.429 333.99 103.443C333.004 102.457 331.749 101.83 330.314 101.83H297.597ZM330.314 113.034H297.597C295.894 113.034 294.28 112.317 293.115 111.152C291.95 109.897 291.322 108.283 291.412 106.58C291.591 103.353 294.28 100.754 297.507 100.754H330.225C331.928 100.754 333.541 101.471 334.707 102.636C335.872 103.891 336.499 105.505 336.41 107.208C336.32 110.524 333.631 113.034 330.314 113.034Z" fill="#0E2549"/>
<path d="M318.751 69.8272H297.775C296.072 69.8272 294.459 69.1101 293.294 67.9448C292.128 66.6899 291.501 65.0764 291.59 63.3733C291.77 60.1464 294.459 57.5469 297.686 57.5469H317.316C317.585 57.5469 317.854 57.8158 317.854 58.0847C317.854 58.3536 317.585 58.6225 317.316 58.6225H297.775C295.086 58.6225 292.845 60.6842 292.756 63.3733C292.666 64.8075 293.204 66.1521 294.1 67.1381C295.086 68.1241 296.341 68.7516 297.775 68.7516H318.751C319.02 68.7516 319.288 69.0205 319.288 69.2894C319.288 69.6479 319.02 69.8272 318.751 69.8272Z" fill="#0E2549"/>
<path d="M302.347 92.5928H296.252C294.549 92.5928 292.935 91.8757 291.77 90.7104C290.605 89.4555 289.977 87.842 290.067 86.1389C290.246 82.912 292.935 80.3125 296.162 80.3125H315.614C315.883 80.3125 316.152 80.5814 316.152 80.8503C316.152 81.1192 315.883 81.3881 315.614 81.3881H296.162C293.473 81.3881 291.232 83.4498 291.143 86.1389C291.053 87.5731 291.591 88.9177 292.487 89.9037C293.473 90.8897 294.728 91.5172 296.162 91.5172H302.258C302.527 91.5172 302.796 91.7861 302.796 92.055C302.885 92.4136 302.616 92.5928 302.347 92.5928Z" fill="#0E2549"/>
<path d="M136.787 167.083H88.8308C88.5619 167.083 88.293 166.814 88.293 166.545C88.293 166.276 88.5619 166.007 88.8308 166.007H136.787C138.848 166.007 140.552 164.394 140.641 162.332C140.731 161.256 140.372 160.27 139.566 159.464C138.848 158.657 137.862 158.298 136.787 158.298H92.5059C92.237 158.298 91.9681 158.029 91.9681 157.76C91.9681 157.492 92.237 157.223 92.5059 157.223H136.787C138.131 157.223 139.386 157.76 140.372 158.747C141.269 159.733 141.806 161.077 141.717 162.422C141.538 165.111 139.386 167.083 136.787 167.083Z" fill="#0E2549"/>
<path d="M135.532 184.923H90.982C90.7131 184.923 90.4441 184.654 90.4441 184.385C90.4441 184.116 90.7131 183.847 90.982 183.847H135.532C137.593 183.847 139.297 182.233 139.386 180.172C139.476 179.096 139.117 178.11 138.311 177.303C137.593 176.497 136.607 176.138 135.532 176.138H82.8249C82.556 176.138 82.2871 175.869 82.2871 175.6C82.2871 175.331 82.556 175.062 82.8249 175.062H135.532C136.876 175.062 138.131 175.6 139.117 176.586C140.014 177.572 140.551 178.917 140.462 180.261C140.283 182.861 138.131 184.923 135.532 184.923Z" fill="#0E2549"/>
<path d="M56.5599 193.974C54.4982 193.974 52.7951 195.588 52.7054 197.649C52.6158 198.725 52.9744 199.711 53.7811 200.518C54.4982 201.324 55.4842 201.683 56.5599 201.683H134.365C136.427 201.683 138.13 200.069 138.22 198.008C138.309 196.932 137.951 195.946 137.144 195.139C136.427 194.333 135.441 193.974 134.365 193.974H56.5599ZM134.365 202.759H56.5599C55.2153 202.759 53.9604 202.221 52.9744 201.235C52.078 200.249 51.5402 198.904 51.6298 197.56C51.8091 194.96 53.9604 192.898 56.5599 192.898H134.365C135.71 192.898 136.965 193.436 137.951 194.422C138.847 195.408 139.385 196.753 139.295 198.097C139.116 200.697 136.965 202.759 134.365 202.759Z" fill="#0E2549"/>
<path d="M134.365 149.067H92.5047C92.2358 149.067 91.9669 148.798 91.9669 148.529C91.9669 148.26 92.2358 147.991 92.5047 147.991H134.365C136.427 147.991 138.13 146.378 138.22 144.406C138.309 143.33 137.951 142.344 137.144 141.538C136.427 140.731 135.441 140.372 134.365 140.372H56.5601C54.4984 140.372 52.7953 141.986 52.7057 143.958C52.616 145.033 52.9746 146.019 53.7814 146.826C53.9606 147.005 53.9606 147.364 53.7814 147.543C53.6021 147.723 53.2435 147.723 53.0642 147.543C52.1679 146.557 51.63 145.213 51.7197 143.868C51.8989 141.269 54.0502 139.207 56.6497 139.207H134.455C135.8 139.207 137.055 139.745 138.041 140.731C138.937 141.717 139.475 143.061 139.385 144.406C139.116 147.005 136.965 149.067 134.365 149.067Z" fill="#0E2549"/>
<path d="M277.966 236.373C276.084 236.373 274.56 237.807 274.381 239.689C274.291 240.675 274.65 241.661 275.367 242.378C276.084 243.095 276.98 243.454 277.966 243.454H333.452C335.334 243.454 336.858 242.02 337.037 240.137C337.127 239.151 336.768 238.165 336.051 237.448C335.334 236.731 334.438 236.373 333.452 236.373H277.966ZM333.362 244.53H277.877C276.622 244.53 275.367 243.992 274.47 243.095C273.574 242.199 273.126 240.944 273.215 239.689C273.395 237.269 275.367 235.297 277.877 235.297H333.362C334.617 235.297 335.872 235.835 336.768 236.731C337.665 237.627 338.113 238.882 338.023 240.137C337.844 242.647 335.872 244.53 333.362 244.53Z" fill="#0E2549"/>
<path d="M259.499 252.957C257.617 252.957 256.093 254.391 255.914 256.273C255.824 257.259 256.183 258.245 256.9 258.962C257.617 259.68 258.513 260.038 259.499 260.038H332.285C334.167 260.038 335.781 258.604 335.87 256.721C335.96 255.735 335.602 254.749 334.884 254.032C334.167 253.315 333.271 252.957 332.285 252.957H259.499ZM332.195 261.203H259.41C258.155 261.203 256.9 260.666 256.004 259.769C255.107 258.873 254.659 257.618 254.749 256.363C254.928 253.943 256.9 251.971 259.41 251.971H332.195C333.45 251.971 334.705 252.509 335.601 253.405C336.498 254.301 336.946 255.556 336.856 256.811C336.677 259.231 334.705 261.203 332.195 261.203Z" fill="#0E2549"/>
<path d="M258.334 269.629C256.452 269.629 254.839 271.063 254.749 272.945C254.659 273.931 255.018 274.917 255.735 275.634C256.452 276.351 257.348 276.71 258.334 276.71H331.12C333.002 276.71 334.526 275.276 334.706 273.393C334.795 272.407 334.437 271.421 333.72 270.704C333.002 269.987 332.106 269.629 331.12 269.629H258.334ZM331.12 277.875H258.334C257.08 277.875 255.825 277.337 254.928 276.441C254.032 275.545 253.584 274.29 253.673 273.035C253.853 270.615 255.825 268.643 258.334 268.643H331.12C332.375 268.643 333.63 269.18 334.526 270.077C335.423 270.973 335.871 272.228 335.781 273.483C335.602 275.903 333.63 277.875 331.12 277.875Z" fill="#0E2549"/>
<path d="M258.334 219.433C256.452 219.433 254.839 220.867 254.749 222.75C254.659 223.736 255.018 224.722 255.735 225.439C256.452 226.156 257.348 226.514 258.334 226.514H331.12C333.002 226.514 334.526 225.08 334.706 223.198C334.795 222.212 334.437 221.226 333.72 220.509C333.002 219.792 332.106 219.433 331.12 219.433H258.334ZM331.12 227.59H258.334C257.08 227.59 255.825 227.052 254.928 226.156C254.032 225.26 253.584 224.005 253.673 222.75C253.853 220.329 255.825 218.357 258.334 218.357H331.12C332.375 218.357 333.63 218.895 334.526 219.792C335.423 220.688 335.871 221.943 335.781 223.198C335.602 225.708 333.63 227.59 331.12 227.59Z" fill="#0E2549"/>
<path d="M258.873 295.266H172.014C169.504 295.266 167.442 297.327 167.442 299.837C167.442 302.347 169.504 304.409 172.014 304.409H247.22C249.819 304.409 251.881 306.65 251.791 309.249L244.172 438.506L253.584 438.148L263.444 300.196C263.623 297.507 261.562 295.266 258.873 295.266Z" fill="#0E2549"/>
<path d="M179.185 418.158L178.199 428.825L188.328 428.915L190.121 418.248L179.185 418.158Z" fill="#FEFEFE"/>
<path d="M178.826 428.288H187.969L189.583 418.697L179.723 418.607L178.826 428.288ZM188.328 429.453L178.199 429.364C178.02 429.364 177.93 429.274 177.84 429.184C177.751 429.095 177.661 428.915 177.661 428.736L178.558 418.069C178.558 417.8 178.826 417.621 179.095 417.621L190.121 417.711C190.3 417.711 190.39 417.8 190.569 417.89C190.659 417.98 190.748 418.159 190.659 418.338L188.866 429.005C188.866 429.184 188.597 429.453 188.328 429.453Z" fill="#0E2549"/>
<path d="M207.96 418.16L206.884 430.62L217.013 430.709L219.612 418.25L207.96 418.16Z" fill="#FEFEFE"/>
<path d="M207.51 430.08L216.564 430.17L218.984 418.786L208.496 418.697L207.51 430.08ZM217.012 431.246L206.972 431.156C206.793 431.156 206.704 431.067 206.614 430.977C206.524 430.887 206.435 430.708 206.435 430.529L207.421 418.069C207.421 417.8 207.69 417.531 207.958 417.531L219.611 417.621C219.791 417.621 219.88 417.711 220.06 417.8C220.149 417.89 220.239 418.069 220.149 418.248L217.55 430.708C217.46 431.067 217.281 431.246 217.012 431.246Z" fill="#0E2549"/>
<path d="M217.998 427.57H207.242C206.525 427.57 205.808 427.929 205.539 428.556C204.553 430.528 202.67 435.279 202.939 439.671C203.029 440.926 204.194 441.823 205.539 441.823H237.001C238.436 441.823 239.511 440.657 239.242 439.402C238.884 437.968 237.719 435.996 234.223 434.293C228.665 431.514 221.584 428.646 219.433 427.75C218.984 427.66 218.536 427.57 217.998 427.57Z" fill="#FEFEFE"/>
<path d="M207.241 428.109C206.704 428.109 206.166 428.378 205.986 428.826C205.09 430.618 203.118 435.369 203.387 439.672C203.477 440.568 204.373 441.375 205.449 441.375H236.911C237.539 441.375 238.077 441.106 238.435 440.747C238.704 440.479 238.794 440.03 238.704 439.672C238.256 437.879 236.643 436.176 233.953 434.831C228.396 432.053 221.225 429.184 219.163 428.378C218.805 428.198 218.356 428.109 217.908 428.109H207.241ZM237.001 442.361H205.538C203.835 442.361 202.491 441.196 202.401 439.672C202.132 435.011 204.194 430.17 205.09 428.288C205.449 427.481 206.345 426.943 207.331 426.943H218.087C218.625 426.943 219.253 427.033 219.701 427.212C221.763 428.019 228.934 430.887 234.581 433.756C238.346 435.638 239.511 437.79 239.869 439.224C240.049 439.941 239.869 440.568 239.421 441.196C238.794 442.002 237.897 442.361 237.001 442.361Z" fill="#0E2549"/>
<path d="M188.596 427.48H177.839C177.122 427.48 176.405 427.839 176.136 428.467C175.15 430.439 173.268 435.189 173.537 439.582C173.626 440.836 174.792 441.733 176.136 441.733H207.599C209.033 441.733 210.109 440.568 209.84 439.313C209.481 437.878 208.316 435.906 204.82 434.203C199.263 431.425 192.181 428.556 190.03 427.66C189.582 427.57 189.044 427.48 188.596 427.48Z" fill="#FEFEFE"/>
<path d="M177.841 428.019C177.303 428.019 176.765 428.288 176.586 428.736C175.69 430.529 173.718 435.28 173.987 439.582C174.076 440.479 174.972 441.285 176.048 441.285H207.511C208.138 441.285 208.676 441.016 209.035 440.658C209.304 440.389 209.393 439.941 209.304 439.582C208.856 437.789 207.242 436.086 204.553 434.742C198.906 431.873 191.824 429.095 189.763 428.288C189.404 428.109 188.956 428.019 188.508 428.019H177.841ZM207.601 442.361H176.138C174.435 442.361 173.09 441.196 173.001 439.672C172.732 435.011 174.793 430.17 175.69 428.288C176.048 427.481 176.945 426.943 177.931 426.943H188.687C189.225 426.943 189.852 427.033 190.301 427.212C192.362 428.019 199.533 430.887 205.18 433.756C208.945 435.638 210.11 437.79 210.469 439.224C210.648 439.941 210.469 440.568 210.021 441.196C209.393 442.002 208.497 442.361 207.601 442.361Z" fill="#0E2549"/>
<path d="M204.104 352.992C207.151 367.692 195.05 407.85 192.451 417.62C192.092 418.875 191.016 419.771 189.762 419.771H178.467C176.854 419.771 175.599 418.427 175.599 416.813C175.688 405.161 177.75 362.852 170.758 350.661C166.725 343.58 155.879 340.442 150.948 337.036C139.206 328.969 143.598 311.131 143.598 311.131L188.686 335.064C197.291 339.367 202.759 346.627 204.104 352.992Z" fill="#0E2549"/>
<path d="M183.667 315.792C183.667 315.792 222.48 316.15 234.76 331.389C245.785 345.103 227.231 405.519 223.824 417.62C223.466 418.875 222.39 419.771 221.135 419.771H206.524C206.255 419.771 205.986 419.502 205.986 419.233L208.227 355.232C208.227 351.199 206.255 347.434 203.028 345.193C198.457 342.145 190.748 338.022 179.275 338.111C142.971 338.38 149.425 315.254 149.425 315.254L183.667 315.792Z" fill="#0E2549"/>
<path d="M224.272 229.65L191.195 229.739C189.94 229.739 188.954 230.546 188.596 231.711L178.287 274.02C178.108 274.827 178.287 275.634 178.736 276.261C179.274 276.889 179.991 277.247 180.797 277.247L213.784 277.158C215.039 277.158 216.025 276.351 216.383 275.185L226.692 232.877C226.871 232.07 226.692 231.263 226.244 230.636C225.885 230.008 225.078 229.65 224.272 229.65ZM180.977 278.412C179.811 278.412 178.736 277.875 178.019 276.978C177.302 276.082 177.033 274.917 177.302 273.751L187.61 231.442C188.058 229.739 189.492 228.574 191.195 228.574L224.182 228.484C225.347 228.484 226.423 229.022 227.14 229.919C227.857 230.815 228.126 231.98 227.857 233.146L217.549 275.454C217.101 277.158 215.666 278.323 213.963 278.323L180.977 278.412Z" fill="#0E2549"/>
<path d="M217.37 246.325C218.625 245.428 220.328 245.697 221.225 246.952C221.942 248.118 223.197 248.207 223.645 246.235L226.244 235.748C226.603 234.313 233.057 238.257 229.292 251.165C229.023 252.151 225.706 259.77 225.527 259.95C224.093 261.742 222.121 261.384 220.328 260.219C220.239 260.129 220.866 257.888 221.314 256.185C221.583 255.109 221.404 253.944 220.866 253.048L216.922 246.594L217.37 246.325Z" fill="#FEFEFE"/>
<path d="M220.866 260.038C222.121 260.845 223.824 261.293 225.079 259.77C225.438 259.142 228.485 252.061 228.754 251.164C231.443 242.111 228.754 238.167 227.948 237.091C227.41 236.464 226.961 236.195 226.693 236.195L224.183 246.503C223.824 248.027 223.017 248.386 222.659 248.475C221.942 248.565 221.314 248.206 220.777 247.4C220.418 246.951 219.97 246.593 219.342 246.503C218.805 246.414 218.177 246.503 217.729 246.862L221.404 252.867C222.032 253.943 222.211 255.198 221.852 256.453C221.225 258.694 220.956 259.59 220.866 260.038ZM223.107 261.831C222.121 261.831 221.135 261.473 219.97 260.756C219.522 260.487 219.522 260.487 220.687 256.094C220.956 255.198 220.777 254.212 220.328 253.316L216.384 246.862C216.205 246.593 216.295 246.324 216.564 246.145L217.012 245.876C217.729 245.338 218.625 245.159 219.432 245.338C220.328 245.517 221.045 245.965 221.583 246.682C221.852 247.131 222.121 247.31 222.39 247.31C222.569 247.31 222.928 246.951 223.107 246.145L225.707 235.657C225.796 235.388 225.976 235.119 226.334 235.03C226.872 234.85 227.679 235.209 228.485 236.016C229.561 237.091 232.788 241.394 229.83 251.433C229.561 252.33 226.244 260.038 225.976 260.397C225.169 261.293 224.183 261.831 223.107 261.831Z" fill="#0E2549"/>
<path d="M219.521 256.005C219.521 256.005 212.798 269.451 208.227 274.56C207.33 275.546 205.627 275.277 205.179 274.022C202.938 267.747 197.649 254.481 191.285 249.013C181.784 240.856 171.475 242.29 171.475 242.29L155.878 243.187C140.102 244.98 140.909 267.927 140.909 267.927L140.013 321.261C140.013 321.261 148.528 323.412 160.091 324.04C168.517 324.488 179.901 324.129 184.204 323.95C194.781 323.502 196.215 316.6 196.215 316.6C193.974 315.524 191.733 313.642 189.851 311.58C185.279 306.74 184.204 299.658 186.534 293.473C187.7 290.426 187.879 287.647 187.879 285.944C190.478 288.633 192.809 291.053 194.691 293.025C195.767 294.101 199.353 295.894 202.58 297.328C205.717 298.672 209.392 298.224 212.171 296.073C225.347 284.689 229.919 256.095 229.919 256.095H219.521V256.005Z" fill="#FEFEFE"/>
<path d="M140.463 320.722C142.345 321.17 150.054 322.784 160.004 323.411C168.43 323.86 179.634 323.501 184.027 323.322C192.632 322.963 194.963 318.212 195.411 316.778C193.439 315.703 191.377 314.089 189.315 311.848C184.654 306.918 183.399 299.747 185.909 293.204C187.074 290.246 187.254 287.556 187.164 285.853C187.164 285.674 187.254 285.405 187.523 285.315C187.702 285.226 187.971 285.315 188.15 285.405C190.481 287.915 192.722 290.156 194.425 291.949L194.963 292.486C195.769 293.383 198.638 294.907 202.671 296.61C205.629 297.954 209.125 297.506 211.725 295.444C223.467 285.315 228.397 260.665 229.204 256.452H219.792C218.716 258.514 212.8 270.077 208.587 274.828C208.05 275.455 207.243 275.724 206.436 275.545C205.629 275.366 205.002 274.828 204.733 274.021C202.761 268.374 197.383 254.749 190.929 249.192C181.696 241.214 171.567 242.558 171.477 242.558L155.881 243.455C140.732 245.158 141.359 267.388 141.359 267.657L140.463 320.722ZM169.237 324.756C166.01 324.756 162.783 324.666 159.825 324.487C148.351 323.86 139.746 321.708 139.656 321.708C139.387 321.619 139.208 321.439 139.208 321.17L140.104 267.836C140.104 267.657 139.477 244.441 155.522 242.558H155.612L171.209 241.662C171.567 241.572 181.875 240.317 191.467 248.564C197.831 254.032 203.03 266.761 205.54 273.842C205.719 274.29 206.078 274.559 206.436 274.649C206.884 274.738 207.332 274.559 207.601 274.29C212.083 269.27 218.716 255.914 218.806 255.825C218.896 255.645 219.075 255.556 219.254 255.556H229.652C229.831 255.556 229.921 255.645 230.1 255.735C230.19 255.825 230.28 256.004 230.19 256.183C230.011 257.349 225.35 285.047 212.263 296.431C209.394 298.671 205.45 299.209 202.134 297.775C199.086 296.431 195.231 294.638 194.066 293.383L193.528 292.845C192.004 291.232 190.122 289.349 188.15 287.287C188.06 288.991 187.702 291.232 186.805 293.652C184.475 299.837 185.64 306.56 190.032 311.221C192.184 313.462 194.245 315.165 196.217 316.061C196.397 316.151 196.576 316.42 196.486 316.689C196.397 316.957 194.783 323.949 183.937 324.487C181.158 324.487 175.332 324.756 169.237 324.756Z" fill="#0E2549"/>
<path d="M188.506 288.272C188.327 288.272 188.237 288.183 188.147 288.093C183.845 283.432 180.528 278.143 178.198 272.227C178.108 271.958 178.198 271.6 178.467 271.51C178.736 271.421 179.094 271.51 179.184 271.779C181.425 277.516 184.652 282.804 188.865 287.286C189.044 287.466 189.044 287.824 188.865 288.003C188.685 288.183 188.596 288.272 188.506 288.272Z" fill="#0E2549"/>
<path d="M179.094 214.142C179.094 214.142 179.722 219.968 182.68 223.195C182.859 223.464 182.949 223.823 182.769 224.092L181.604 226.153C181.514 226.333 181.425 226.512 181.335 226.691L179.363 232.607C179.184 233.145 178.736 233.504 178.108 233.593C176.853 233.683 173.626 233.235 173.447 234.041C172.192 239.151 173.626 240.585 173.716 245.067C173.806 248.294 170.579 248.921 170.579 248.921C165.29 250.176 160.898 248.832 160.898 248.832C158.836 248.114 157.671 245.784 158.298 243.901C159.822 239.061 161.077 237.448 160.808 229.47L156.774 221.044C156.864 217.01 160.27 213.783 164.304 213.873L179.094 214.142Z" fill="#FEFEFE"/>
<path d="M157.314 220.866L161.258 229.203C161.258 229.292 161.347 229.382 161.347 229.382C161.527 235.925 160.72 238.256 159.644 241.393C159.375 242.2 159.106 243.007 158.748 243.993C158.21 245.696 159.286 247.668 160.989 248.295C160.989 248.295 165.291 249.55 170.401 248.385C170.49 248.385 173.18 247.758 173.09 245.068C173.09 243.545 172.821 242.379 172.642 241.214C172.283 239.242 172.014 237.36 172.821 233.953C173.09 232.967 174.793 232.967 176.496 233.057C177.034 233.057 177.572 233.147 177.93 233.057C178.289 233.057 178.558 232.788 178.737 232.43L180.709 226.514C180.799 226.245 180.888 226.065 180.978 225.886L182.143 223.824C182.233 223.735 182.143 223.645 182.143 223.555C179.633 220.687 178.737 216.116 178.468 214.592L164.126 214.233C162.244 214.144 160.541 214.861 159.196 216.116C158.031 217.46 157.314 219.074 157.314 220.866ZM165.829 249.999C162.871 249.999 160.81 249.371 160.63 249.371C158.3 248.564 156.955 246.054 157.672 243.724C157.941 242.738 158.3 241.931 158.569 241.124C159.644 238.077 160.451 235.836 160.182 229.561L156.238 221.225C156.238 221.135 156.148 221.046 156.148 220.956C156.148 218.894 157.045 216.922 158.569 215.488C160.092 214.054 162.154 213.247 164.216 213.337L179.006 213.695C179.275 213.695 179.454 213.875 179.544 214.144C179.544 214.233 180.171 219.88 182.95 222.928C183.309 223.376 183.398 224.004 183.129 224.452L181.964 226.514C181.874 226.693 181.785 226.782 181.785 226.962L179.813 232.878C179.544 233.595 178.916 234.133 178.11 234.222C177.661 234.222 177.124 234.222 176.496 234.222C175.779 234.222 174.166 234.133 173.897 234.312C173.18 237.449 173.448 239.152 173.807 241.124C173.986 242.2 174.166 243.545 174.255 245.158C174.345 248.027 171.925 249.281 170.67 249.55C168.877 249.819 167.264 249.999 165.829 249.999Z" fill="#0E2549"/>
<path d="M180.441 212.081C181.068 212.977 180.709 214.232 179.634 214.68L179.006 214.949L167.353 220.686C167.085 220.865 166.726 220.776 166.457 220.597C166.009 220.238 165.113 219.79 164.216 220.328C163.051 221.134 162.782 225.258 165.83 226.333C166.278 226.513 166.457 226.871 166.278 227.319C166.099 227.768 165.83 228.305 165.471 228.933C162.692 233.684 155.97 233.953 152.653 229.56C150.233 226.333 148.081 221.045 150.771 213.784C155.163 202.49 172.552 200.07 180.441 212.081Z" fill="#0E2549"/>
<path d="M152.114 209.482C152.114 209.482 147.005 203.476 139.565 205.807C132.125 208.137 131.766 220.687 130.87 228.575C127.822 256.183 121.099 266.222 118.948 268.732C116.528 271.511 135.531 269.629 141.895 267.477C160.36 261.203 150.59 243.455 149.783 240.228C148.887 237.001 142.074 219.163 150.59 217.012L154.893 213.336L152.114 209.482Z" fill="#0E2549"/>
<path d="M149.784 218.087H149.874C150.68 218.356 151.577 217.998 151.846 217.191L154.087 211.095C154.355 210.289 153.997 209.392 153.19 209.123H153.101C152.294 208.855 151.397 209.213 151.129 210.02L148.888 216.115C148.529 216.922 148.977 217.818 149.784 218.087Z" fill="#FEFEFE"/>
<path d="M149.963 217.549H150.053C150.59 217.728 151.218 217.459 151.397 216.922L153.638 210.826C153.728 210.557 153.728 210.288 153.638 210.019C153.548 209.751 153.28 209.571 153.1 209.482H153.011C152.473 209.302 151.845 209.571 151.666 210.109L149.425 216.204C149.336 216.473 149.336 216.742 149.425 217.011C149.515 217.28 149.694 217.459 149.963 217.549ZM150.411 218.714C150.142 218.714 149.963 218.714 149.694 218.625H149.604C149.067 218.445 148.618 218.087 148.439 217.549C148.17 217.011 148.17 216.473 148.35 215.935L150.59 209.84C150.949 208.764 152.204 208.227 153.28 208.585H153.369C153.907 208.765 154.355 209.123 154.534 209.661C154.803 210.199 154.803 210.737 154.624 211.274L152.383 217.37C152.025 218.266 151.218 218.714 150.411 218.714Z" fill="#0E2549"/>
<path d="M193.795 431.245H172.282V354.426H161.347V431.245H138.579C132.932 431.245 128.271 435.817 128.271 441.553V442.719H205.269C205.269 436.354 200.16 431.245 193.795 431.245Z" fill="#FEFEFE"/>
<path d="M128.81 442.182H204.733C204.464 436.355 199.624 431.784 193.797 431.784H172.284C172.015 431.784 171.746 431.515 171.746 431.246V354.964H161.886V431.246C161.886 431.515 161.617 431.784 161.348 431.784H138.58C133.202 431.784 128.81 436.176 128.81 441.554V442.182ZM205.271 443.257H128.272C128.003 443.257 127.734 442.988 127.734 442.719V441.554C127.734 435.548 132.575 430.708 138.58 430.708H160.811V354.426C160.811 354.158 161.08 353.889 161.348 353.889H172.284C172.553 353.889 172.822 354.158 172.822 354.426V430.708H193.797C200.43 430.708 205.809 436.086 205.809 442.719C205.809 442.988 205.629 443.257 205.271 443.257Z" fill="#0E2549"/>
<path d="M134.098 273.215H139.565C154.266 273.215 166.905 283.523 170.042 298.044L176.406 327.625C177.93 334.527 183.936 339.457 191.017 339.457H202.581C208.586 339.457 213.516 344.387 213.516 350.482C213.516 356.578 208.586 361.508 202.581 361.508H183.757V361.597H150.681C139.117 361.597 129.078 353.44 126.658 342.056L116.529 295.176C114.198 283.882 122.714 273.215 134.098 273.215Z" fill="#FEFEFE"/>
<path d="M134.098 273.753C128.809 273.753 123.969 276.084 120.652 280.207C117.246 284.42 115.991 289.798 117.156 294.997L127.285 341.878C129.705 352.993 139.565 360.971 150.86 360.971H183.757C183.846 360.971 183.846 360.881 183.936 360.881H202.76C208.497 360.881 213.158 356.13 213.158 350.393C213.158 344.567 208.497 339.906 202.76 339.906H191.107C183.936 339.906 177.572 334.707 175.958 327.625L169.594 298.045C166.546 283.882 153.907 273.664 139.565 273.664H134.098V273.753ZM183.936 362.136H150.86C139.117 362.136 128.809 353.71 126.299 342.147L116.17 295.266C115.005 289.709 116.349 283.972 119.845 279.58C123.341 275.188 128.54 272.678 134.187 272.678H139.655C154.445 272.678 167.532 283.255 170.67 297.866L177.034 327.446C178.468 334.079 184.384 338.83 191.107 338.83H202.67C209.035 338.83 214.144 344.029 214.144 350.393C214.144 356.758 209.035 361.957 202.67 361.957H184.115C184.026 362.136 184.026 362.136 183.936 362.136Z" fill="#0E2549"/>
<path d="M106.489 53.2446C106.489 82.6457 82.6457 106.489 53.2446 106.489C23.8435 106.489 0 82.6457 0 53.2446C0 23.8436 23.8435 0 53.2446 0C82.6457 0 106.489 23.8436 106.489 53.2446Z" fill="#0E2549"/>
<path d="M23.6641 43.7422V70.0956C23.6641 78.0733 36.9303 84.4376 53.2444 84.4376C69.5584 84.4376 82.8247 77.9837 82.8247 70.0956V43.7422H23.6641Z" fill="#FEFEFE"/>
<path d="M24.2018 44.2807V70.0963C24.2018 77.7155 37.1992 83.9005 53.2443 83.9005C69.2894 83.9005 82.2868 77.7155 82.2868 70.0963V44.2807H24.2018ZM53.2443 84.9761C36.6613 84.9761 23.1261 78.2533 23.1261 70.0963V43.7429C23.1261 43.474 23.395 43.2051 23.664 43.2051H82.8246C83.0935 43.2051 83.3625 43.474 83.3625 43.7429V70.0963C83.3625 78.343 69.8272 84.9761 53.2443 84.9761Z" fill="#0E2549"/>
<path d="M84.4389 37.8276L54.1414 25.0095C53.6036 24.8302 52.9761 24.8302 52.3486 25.0095L22.0512 37.8276H9.9502V40.7856C9.9502 41.1442 10.1294 41.5027 10.5776 41.682L52.3486 56.5618C52.8865 56.7411 53.5139 56.7411 54.1414 56.5618L95.9125 41.682C96.3607 41.5027 96.5399 41.1442 96.5399 40.7856V37.8276H84.4389Z" fill="#0E2549"/>
<path d="M10.4878 38.365V40.7852C10.4878 40.8749 10.4878 41.0541 10.7567 41.1438L52.5278 56.0236C52.9759 56.2029 53.5137 56.2029 53.9619 56.0236L95.733 41.1438C96.0019 41.0541 96.0019 40.8749 96.0019 40.7852V38.365H84.4387C84.349 38.365 84.2594 38.365 84.2594 38.365L53.9619 25.5469C53.5137 25.3676 53.0656 25.3676 52.6174 25.5469L22.3199 38.365C22.2303 38.365 22.1406 38.365 22.1406 38.365H10.4878ZM53.2448 57.1889C52.8862 57.1889 52.5277 57.0992 52.1692 57.0096L10.3982 42.1298C9.77069 41.9505 9.41211 41.4127 9.41211 40.7852V37.8272C9.41211 37.5583 9.68105 37.2894 9.94997 37.2894H21.8717L52.0796 24.4712C52.7967 24.2023 53.5138 24.2023 54.2309 24.4712L84.5283 37.2894H96.4501C96.719 37.2894 96.9879 37.5583 96.9879 37.8272V40.7852C96.9879 41.4127 96.6294 41.9505 96.0019 42.1298L54.2309 57.0096C53.962 57.1889 53.6033 57.1889 53.2448 57.1889Z" fill="#0E2549"/>
<path d="M95.9116 36.9303L54.1405 22.0505C53.6027 21.8712 52.9752 21.8712 52.3478 22.0505L10.5767 36.9303C9.77 37.1992 9.77 38.3645 10.5767 38.723L52.3478 53.6029C52.8856 53.7821 53.513 53.7821 54.1405 53.6029L95.9116 38.723C96.7184 38.3645 96.7184 37.1992 95.9116 36.9303Z" fill="#FEFEFE"/>
<path d="M53.2447 22.411C52.9757 22.411 52.7965 22.411 52.5276 22.5006L10.7565 37.3804C10.4876 37.4701 10.4876 37.6493 10.4876 37.739C10.4876 37.8286 10.4876 38.0079 10.7565 38.0975L52.5276 52.9773C52.9758 53.1566 53.5136 53.1566 53.9618 52.9773L95.7328 38.0975C96.0017 38.0079 96.0018 37.8286 96.0018 37.739C96.0018 37.6493 96.0017 37.4701 95.7328 37.3804L53.9618 22.5006C53.6929 22.5006 53.5136 22.411 53.2447 22.411ZM53.2447 54.3219C52.8861 54.3219 52.5276 54.2323 52.1691 54.1426L10.398 39.2628C9.77057 39.0835 9.41199 38.5457 9.41199 37.9182C9.41199 37.2908 9.77057 36.753 10.398 36.5737L52.1691 21.6939C52.8862 21.425 53.6033 21.425 54.3204 21.6939L96.0914 36.5737C96.7189 36.753 97.0774 37.2908 97.0774 37.9182C97.0774 38.5457 96.7189 39.0835 96.0914 39.2628L54.3204 54.1426C53.9618 54.2323 53.6032 54.3219 53.2447 54.3219Z" fill="#0E2549"/>
<path d="M76.9974 59.25C76.1907 59.25 75.4737 59.8775 75.384 60.6842L73.7705 83.9899H80.1347L78.5213 60.6842C78.4317 59.8775 77.8042 59.25 76.9974 59.25Z" fill="#FEFEFE"/>
<path d="M74.3987 83.4509H79.5976L78.0738 60.7726C78.0738 60.2348 77.6256 59.7866 76.9981 59.7866C76.4603 59.7866 76.0122 60.2348 75.9225 60.7726L74.3987 83.4509ZM80.1354 84.5265H73.7712C73.5919 84.5265 73.5023 84.4369 73.4126 84.3473C73.323 84.2576 73.2334 84.0783 73.2334 83.9887L74.8469 60.683C74.9366 59.6073 75.8329 58.7109 76.9085 58.7109C77.9842 58.7109 78.9702 59.6073 78.9702 60.683L80.5836 83.9887C80.5836 84.168 80.5837 84.2576 80.4044 84.3473C80.4044 84.4369 80.3147 84.5265 80.1354 84.5265Z" fill="#0E2549"/>
<path d="M76.9977 59.4292C76.7287 59.4292 76.4599 59.1603 76.4599 58.8914V46.9696L53.0645 38.2748C52.7956 38.1851 52.6163 37.8266 52.7059 37.5577C52.7956 37.2887 53.1542 37.1095 53.4231 37.1991L77.177 45.9836C77.3563 46.0732 77.5356 46.2525 77.5356 46.5214V58.8017C77.5356 59.2499 77.2666 59.4292 76.9977 59.4292Z" fill="#0E2549"/>
<path d="M31.1925 405.25L28.5034 424.432L21.5117 424.522L21.1532 405.609L31.1925 405.25Z" fill="#FEFEFE"/>
<path d="M21.6908 406.147L21.9597 423.985H27.9654L30.5649 405.878L21.6908 406.147ZM21.5115 425.061C21.2426 425.061 20.9737 424.792 20.9737 424.523L20.6151 405.609C20.6151 405.34 20.8841 405.071 21.153 405.071L31.1923 404.713C31.3716 404.713 31.4612 404.802 31.6405 404.892C31.7301 404.982 31.8198 405.161 31.7302 405.34L28.9514 424.523C28.9514 424.792 28.6825 424.971 28.4136 424.971L21.5115 425.061Z" fill="#0E2549"/>
<path d="M28.7734 442.808C25.9946 443.077 21.9609 443.256 16.493 442.718C14.521 442.539 13.1764 440.746 13.4453 438.774C14.2521 433.575 16.6723 424.342 20.437 420.13L22.3195 422.729L23.3951 420.04C23.5744 419.771 28.2356 419.592 28.3252 420.13L28.5941 422.819L31.1935 419.861L31.0143 429.541C31.0143 430.617 31.1039 431.693 31.2832 432.768L32.0003 436.085C32.4485 438.147 31.9107 440.208 30.4765 441.732C29.9386 442.36 29.3112 442.718 28.7734 442.808Z" fill="#FEFEFE"/>
<path d="M20.3464 421.117C16.8505 425.509 14.6993 434.293 13.9822 438.954C13.8925 439.761 14.0718 440.568 14.52 441.195C14.9682 441.823 15.6853 442.181 16.492 442.271C22.3184 442.809 26.3521 442.63 28.6827 442.361C29.1309 442.361 29.5791 442.002 30.1169 441.464C31.3718 440.12 31.9097 438.148 31.4615 436.265L30.7443 432.949C30.565 431.873 30.3858 430.708 30.4754 429.632L30.5651 421.385L28.862 423.268C28.6827 423.447 28.5034 423.447 28.3242 423.447C28.1449 423.358 27.9656 423.178 27.9656 422.999L27.6967 420.579C26.9796 420.399 24.4697 420.489 23.663 420.579L22.677 423.089C22.5873 423.268 22.408 423.358 22.2288 423.447C22.0495 423.447 21.8702 423.358 21.691 423.178L20.3464 421.117ZM23.3941 443.616C21.4221 443.616 19.0915 443.526 16.4023 443.257C15.3267 443.167 14.3407 442.63 13.7132 441.733C13.0857 440.837 12.7272 439.761 12.9065 438.686C13.0858 437.341 15.237 425.15 19.9878 419.772C20.0775 419.682 20.2567 419.593 20.436 419.593C20.6153 419.593 20.7946 419.682 20.8842 419.862L22.1391 421.654L22.8562 419.862V419.772C23.3044 419.055 27.2485 419.234 27.7863 419.324C28.0552 419.324 28.6827 419.503 28.7723 420.041L28.9516 421.565L30.7443 419.503C30.9236 419.324 31.1029 419.324 31.3718 419.324C31.5511 419.413 31.7304 419.593 31.7304 419.862L31.5511 429.542C31.5511 430.528 31.6407 431.604 31.82 432.59L32.5371 435.907C32.9853 438.148 32.3578 440.478 30.9236 442.002C30.2065 442.719 29.4894 443.167 28.862 443.257C27.5174 443.526 25.7247 443.616 23.3941 443.616Z" fill="#0E2549"/>
<path d="M23.7534 440.209C21.871 440.209 19.4508 440.03 16.7617 439.582C16.4928 439.492 16.3135 439.223 16.3135 438.954C16.4031 438.685 16.672 438.506 16.9409 438.506C23.7534 439.671 28.5042 438.775 28.5938 438.775C28.8627 438.685 29.1317 438.864 29.2213 439.223C29.3109 439.492 29.1317 439.761 28.7731 439.85C28.6835 439.85 26.801 440.209 23.7534 440.209Z" fill="#0E2549"/>
<path d="M25.9958 432.859H19.6316C19.3627 432.859 19.0938 432.59 19.0938 432.321C19.0938 432.052 19.3627 431.783 19.6316 431.783H25.9958C26.2648 431.783 26.5337 432.052 26.5337 432.321C26.5337 432.59 26.2648 432.859 25.9958 432.859Z" fill="#0E2549"/>
<path d="M81.4802 406.955L83.9901 429.364L93.402 431.336L92.7746 405.072L81.4802 406.955Z" fill="#FEFEFE"/>
<path d="M84.4385 428.915L92.7748 430.707L92.2369 405.788L82.0183 407.491L84.4385 428.915ZM93.4022 431.873H93.3126L83.9007 429.901C83.6318 429.811 83.5421 429.632 83.4525 429.452L81.0322 407.043C81.0322 406.774 81.2115 406.505 81.4804 406.416L92.7748 404.533C92.9541 404.533 93.0437 404.533 93.223 404.623C93.3126 404.712 93.4022 404.892 93.4022 404.981L93.94 431.245C93.94 431.424 93.8504 431.604 93.7608 431.693C93.5815 431.783 93.4919 431.873 93.4022 431.873Z" fill="#0E2549"/>
<path d="M79.9561 440.028C79.7768 436.084 79.7769 428.913 82.1074 425.418L89.637 428.107V426.493C89.637 425.955 89.9955 425.507 90.4437 425.507L94.6567 425.238C96.1805 425.149 97.794 425.507 99.2282 426.135C103.441 428.196 116.349 433.575 118.052 439.491C118.59 441.283 117.156 442.986 115.363 443.076C111.15 443.166 100.931 443.345 82.7349 442.718C81.3007 442.718 80.0458 441.552 79.9561 440.028Z" fill="#FEFEFE"/>
<path d="M80.4949 440.029C80.5846 441.284 81.5705 442.27 82.8255 442.27C100.932 442.897 110.972 442.808 115.454 442.629C116.171 442.629 116.888 442.27 117.336 441.642C117.784 441.105 117.874 440.388 117.694 439.76C116.171 434.74 105.952 429.9 100.932 427.569C100.215 427.211 99.5878 426.942 99.0499 426.673C97.7054 426.046 96.1815 425.687 94.7473 425.777L90.5344 426.046C90.3551 426.046 90.1758 426.225 90.1758 426.494V428.107C90.1758 428.287 90.0861 428.466 89.9069 428.555C89.7276 428.645 89.5483 428.645 89.4587 428.645L82.2877 426.135C80.3156 429.541 80.3156 436.264 80.4949 440.029ZM107.028 443.794C101.38 443.794 93.4923 443.704 82.8255 443.346C81.0327 443.256 79.5986 441.911 79.5089 440.029C79.3297 435.995 79.3297 428.645 81.7499 425.06C81.9291 424.88 82.1084 424.791 82.3773 424.88L89.1898 427.3V426.494C89.1898 425.687 89.8173 425.06 90.5344 424.97L94.7473 424.701C96.3608 424.611 98.0639 424.97 99.5877 425.687C100.126 425.956 100.753 426.225 101.47 426.583C106.938 429.183 117.157 433.934 118.77 439.402C119.039 440.388 118.86 441.374 118.232 442.27C117.605 443.166 116.619 443.704 115.543 443.704C113.661 443.794 110.882 443.794 107.028 443.794Z" fill="#0E2549"/>
<path d="M104.068 440.12C98.6899 440.12 91.5189 439.851 83.6308 438.955C83.3619 438.955 83.093 438.686 83.1826 438.327C83.1826 438.058 83.4516 437.789 83.8101 437.879C99.8552 439.761 113.122 438.775 113.301 438.775C113.57 438.775 113.839 438.955 113.839 439.313C113.839 439.582 113.659 439.851 113.301 439.851C113.211 439.851 109.715 440.12 104.068 440.12Z" fill="#0E2549"/>
<path d="M101.738 433.666C101.649 433.666 101.559 433.666 101.469 433.576L94.2087 428.377C93.9398 428.198 93.9398 427.839 94.1191 427.66C94.2984 427.391 94.6569 427.391 94.8361 427.57L102.097 432.769C102.366 432.949 102.366 433.307 102.186 433.486C102.097 433.576 101.918 433.666 101.738 433.666Z" fill="#0E2549"/>
<path d="M84.4389 261.651C84.4389 261.651 97.9742 354.247 95.1058 416.097L90.8927 416.545C88.6518 416.814 86.3212 416.814 84.0803 416.724L80.0466 416.545C80.0466 416.545 63.9119 322.605 55.9341 307.008C55.9341 307.008 34.0627 390.55 33.2559 413.139C33.2559 413.139 23.5751 414.125 19.631 412.69C17.5694 390.819 16.9419 368.23 16.8522 354.067C16.5833 313.462 20.4377 294.996 22.589 286.302C24.5611 278.234 26.6227 271.78 28.1466 267.298L33.2559 252.688L84.4389 261.651Z" fill="#FEFEFE"/>
<path d="M80.494 416.01L84.0795 416.189C86.3204 416.279 88.5613 416.278 90.8023 416.01L94.5671 415.651C97.2562 356.58 84.8862 268.735 83.9899 262.192L33.6136 253.407L28.6835 267.57C26.5322 273.755 24.6498 280.119 23.126 286.483C20.5265 297.061 17.1203 315.616 17.3892 354.16C17.4789 365.992 17.927 389.208 20.168 412.424C23.5742 413.41 30.8348 412.872 32.7172 412.783C33.7929 389.656 55.2162 307.817 55.3955 307.01C55.4851 306.831 55.6644 306.652 55.8437 306.652C56.0229 306.652 56.2918 306.742 56.3815 306.921C64.1799 321.89 79.1494 408.301 80.494 416.01ZM86.3204 417.265C85.5137 417.265 84.7966 417.264 83.9899 417.175L79.9562 416.996C79.6873 416.996 79.508 416.816 79.4184 416.547C79.2391 415.651 64.0903 327.269 55.9333 308.534C53.0649 319.739 34.4203 392.435 33.6136 413.141C33.6136 413.41 33.4343 413.589 33.1654 413.679C32.8069 413.679 23.3053 414.665 19.3613 413.231C19.182 413.141 19.0027 412.962 19.0027 412.783C16.7618 389.477 16.3136 365.992 16.224 354.07C15.9551 315.436 19.3612 296.792 21.9607 286.125C23.4846 279.671 25.367 273.307 27.5183 267.122L32.6276 252.511C32.7172 252.242 32.9862 252.152 33.2551 252.152L84.438 261.116C84.707 261.116 84.8862 261.295 84.8862 261.564C85.0655 262.461 98.3319 354.966 95.5531 416.099C95.5531 416.368 95.3738 416.547 95.1049 416.637L90.8919 417.085C89.3681 417.175 87.8442 417.265 86.3204 417.265Z" fill="#0E2549"/>
<path d="M55.1268 310.237C55.0371 310.237 55.0371 310.237 54.9474 310.237C54.6785 310.147 54.4992 309.878 54.5889 309.609L56.8298 301.452C57.4573 299.032 59.4294 297.239 61.8496 296.701L63.9112 296.253C64.1801 296.164 64.4491 296.343 64.5387 296.701C64.6283 296.97 64.4491 297.239 64.0905 297.329L62.0288 297.777C59.9672 298.225 58.3537 299.749 57.8159 301.721L55.575 309.878C55.575 310.057 55.3957 310.237 55.1268 310.237Z" fill="#0E2549"/>
<path d="M25.4568 294.998C25.1879 294.998 25.0086 294.819 24.9189 294.55C24.8293 294.281 25.0982 294.012 25.3671 293.922C37.1096 291.95 39.4403 283.076 39.5299 282.628C39.6195 282.359 39.8884 282.18 40.1573 282.269C40.4262 282.359 40.6055 282.628 40.5159 282.897C40.5159 283.076 38.006 292.936 25.4568 294.998Z" fill="#0E2549"/>
<path d="M85.0647 288.901C84.9751 288.901 84.8855 288.901 84.8855 288.901C77.6249 285.764 77.8041 278.862 77.8041 278.772C77.8041 278.503 78.073 278.234 78.3419 278.234C78.6108 278.234 78.8798 278.503 78.8798 278.772C78.8798 279.041 78.7901 285.047 85.3337 287.915C85.6026 288.005 85.6923 288.363 85.6026 288.632C85.4234 288.812 85.244 288.901 85.0647 288.901Z" fill="#0E2549"/>
<path d="M83.3617 184.564C74.398 183.578 55.3948 181.785 42.2181 182.951C38.274 183.309 32.5372 185.729 29.5792 188.329C20.7051 195.948 3.94286 212.8 1.1641 233.058C0.715912 236.016 2.68796 238.795 5.55636 239.422L20.974 242.829C20.974 242.829 14.789 267.12 15.3269 271.333C15.8647 275.546 28.5932 282.628 44.5486 276.801C57.0082 272.23 74.6668 268.644 85.7819 272.588C85.8715 272.588 86.9472 281.193 87.0368 281.283C90.6223 281.821 94.2078 280.387 94.2078 275.367L92.5047 249.103L113.032 246.414L114.824 245.787C120.382 243.904 123.25 237.809 121.099 232.431C116.259 220.15 108.998 200.34 95.5524 189.405C92.7736 186.984 87.0368 185.012 83.3617 184.564Z" fill="#0E2549"/>
<path d="M74.0396 265.237H106.04C107.474 265.237 108.64 264.251 108.998 262.906L120.113 218.267C120.561 216.384 119.127 214.502 117.155 214.502H85.1546C83.7204 214.502 82.5551 215.488 82.1965 216.833L71.0815 261.472C70.6333 263.444 72.0675 265.237 74.0396 265.237Z" fill="#FEFEFE"/>
<path d="M85.0649 215.13C83.8996 215.13 82.9137 215.937 82.6448 217.013L71.5297 261.652C71.3504 262.369 71.5297 263.176 71.9779 263.803C72.4261 264.431 73.1432 264.789 73.95 264.789H105.951C107.116 264.789 108.102 263.983 108.371 262.907L119.486 218.268C119.665 217.551 119.486 216.744 119.038 216.116C118.589 215.489 117.872 215.13 117.066 215.13H85.0649ZM106.04 265.775H74.0396C72.9639 265.775 71.8883 265.238 71.2609 264.431C70.5438 263.535 70.3644 262.459 70.6333 261.383L81.7484 216.744C82.1069 215.13 83.5412 214.055 85.2443 214.055H117.245C118.32 214.055 119.396 214.593 120.024 215.399C120.741 216.296 120.92 217.371 120.651 218.447L109.536 263.086C109.088 264.7 107.654 265.775 106.04 265.775Z" fill="#0E2549"/>
<path d="M114.825 237.361L113.749 241.843L109.895 240.588C107.743 239.871 105.682 238.974 103.799 237.809L101.558 236.464C99.8553 235.478 97.704 236.285 97.0765 238.078C95.7319 241.932 96.0009 248.476 109.895 252.599C117.604 254.84 119.755 244.98 118.769 239.512C118.5 238.078 117.783 237.181 117.155 236.644C116.349 235.927 115.094 236.375 114.825 237.361Z" fill="#FEFEFE"/>
<path d="M100.036 236.553C99.767 236.553 99.4981 236.642 99.2291 236.732C98.512 237.001 97.9743 237.539 97.7054 238.256C96.8986 240.407 97.0778 242.469 97.9742 244.351C99.5877 247.578 103.711 250.178 110.165 252.06C112.316 252.687 114.109 252.329 115.543 251.074C118.232 248.654 119.129 243.365 118.412 239.6C118.232 238.525 117.694 237.718 116.977 237.091C116.708 236.911 116.35 236.822 116.081 236.911C115.812 237.001 115.543 237.27 115.453 237.539L114.378 242.021C114.378 242.2 114.288 242.289 114.109 242.379C114.019 242.469 113.84 242.469 113.661 242.379L109.806 241.124C107.655 240.407 105.593 239.421 103.621 238.256L101.38 236.911C100.932 236.642 100.484 236.553 100.036 236.553ZM112.137 253.405C111.42 253.405 110.613 253.315 109.896 253.046C103.173 251.074 98.8706 248.295 97.0778 244.799C96.0022 242.648 95.9125 240.317 96.7193 237.808C97.0778 236.822 97.8846 236.015 98.8706 235.567C99.8566 235.208 101.022 235.298 101.918 235.836L104.159 237.18C106.042 238.345 108.103 239.242 110.165 239.959L113.482 241.035L114.378 237.091C114.557 236.463 115.005 235.925 115.722 235.656C116.35 235.477 117.067 235.567 117.605 236.015C118.591 236.822 119.218 237.897 119.487 239.152C120.204 243.186 119.218 249.012 116.26 251.612C115.005 252.867 113.661 253.405 112.137 253.405Z" fill="#0E2549"/>
<path d="M40.7855 211.544C39.172 213.157 37.3792 214.591 35.4072 215.757C28.6844 219.611 12.6393 228.844 8.60566 232.25C3.49633 236.642 1.07607 238.256 5.19939 249.371C11.8326 267.567 42.9367 220.776 42.9367 220.776C42.9367 220.776 52.0798 222.39 54.1414 214.412C54.1414 214.412 58.8922 215.308 60.8642 214.412C62.3881 213.785 62.2984 211.185 60.3264 210.916L47.2394 208.496C45.4466 208.137 43.5642 208.765 42.3093 210.109L40.7855 211.544Z" fill="#FEFEFE"/>
<path d="M41.2326 211.902C39.6192 213.605 37.7368 215.04 35.6751 216.205C28.9523 220.059 12.9072 229.292 8.96317 232.609L8.51498 232.967C3.7642 237.001 1.8818 238.614 5.64657 249.102C6.54295 251.432 7.79789 252.687 9.59064 252.956C9.76992 252.956 9.94917 252.956 10.1284 252.956C20.7057 252.956 42.2186 220.776 42.3979 220.418C42.4876 220.239 42.7564 220.149 42.9357 220.149C43.2943 220.239 51.6306 221.583 53.513 214.233C53.6026 213.964 53.8715 213.785 54.1404 213.874C55.3953 214.143 59.0705 214.591 60.5944 213.964C61.2218 213.695 61.401 213.068 61.3114 212.53C61.3114 212.261 61.0426 211.544 60.1462 211.454L46.9694 209.034C45.3559 208.765 43.6528 209.303 42.4875 210.468L41.2326 211.902ZM10.1284 254.122C9.94917 254.122 9.6803 254.122 9.50103 254.122C7.34973 253.853 5.73623 252.329 4.66058 249.55C0.53726 238.345 2.95747 236.284 7.79789 232.16L8.24608 231.802C12.2798 228.396 28.3249 219.073 35.1373 215.219C37.1093 214.143 38.9021 212.709 40.4259 211.096L41.8601 209.661C43.2943 208.227 45.2663 207.6 47.2384 207.958L60.415 210.378C61.4907 210.558 62.2975 211.275 62.4767 212.35C62.656 213.426 62.0285 214.502 61.1322 214.86C59.4291 215.577 55.8435 215.129 54.5886 214.95C52.4373 221.942 44.9974 221.494 43.2943 221.225C40.8741 224.81 20.8849 254.122 10.1284 254.122Z" fill="#0E2549"/>
<path d="M71.2609 167.354L72.2469 181.068C72.4262 182.861 73.7707 184.295 75.4738 184.744L80.3143 185.999L77.177 188.329C70.2749 193.618 60.6837 193.618 53.7816 188.329L48.8516 184.564L54.8572 183.22C56.5603 182.861 57.9049 181.427 58.1738 179.724L60.7733 161.617L71.2609 167.354Z" fill="#FEFEFE"/>
<path d="M50.107 184.921L54.1406 187.968C60.8634 193.078 70.1858 193.078 76.9086 187.968L79.1495 186.265L75.3848 185.279C73.4128 184.741 71.9786 183.128 71.7993 181.156L70.8133 167.71L61.3116 162.601L58.8019 179.901C58.4433 181.873 57.009 183.397 55.037 183.845L50.107 184.921ZM65.435 192.809C61.2221 192.809 57.0091 191.464 53.4236 188.775L48.4935 185.01C48.3143 184.921 48.2246 184.652 48.3142 184.473C48.3142 184.293 48.4935 184.114 48.7624 184.024L54.7682 182.68C56.292 182.321 57.4572 181.156 57.7261 179.632L60.3256 161.525C60.3256 161.346 60.4153 161.167 60.5946 161.167C60.7739 161.077 60.9531 161.077 61.1324 161.167L71.6199 166.814C71.7992 166.904 71.8889 167.083 71.8889 167.262L72.8749 180.977C73.0542 182.501 74.2195 183.755 75.7434 184.204L80.5837 185.459C80.763 185.548 80.9423 185.638 80.9423 185.907C80.9423 186.086 80.9423 186.355 80.763 186.445L77.6257 188.775C73.9506 191.464 69.648 192.809 65.435 192.809Z" fill="#0E2549"/>
<path d="M86.7673 148.348C83.4507 146.645 86.1399 152.023 75.2938 142.701C70.9912 138.936 70.8119 145.928 69.7362 144.942C65.6129 141.357 65.7025 141.536 63.103 141.088C61.3999 140.819 59.0694 143.149 58.3523 145.39C57.4559 148.348 59.428 150.141 58.7109 157.043C58.2627 161.884 56.7388 164.214 58.0833 165.559C59.5175 166.903 61.7585 165.29 63.4616 166.634C65.6129 168.427 63.1927 172.461 64.7165 175.329C65.7025 177.122 68.9295 179.273 75.8316 179.094C76.9072 179.094 77.8933 178.287 78.0725 177.122C78.3414 175.688 78.6103 173.895 78.6999 172.192C79.3274 163.945 77.5347 161.256 79.3275 159.822C82.0166 157.671 86.4984 161.704 88.4705 159.822C90.5321 157.85 91.2492 150.769 86.7673 148.348Z" fill="#0E2549"/>
<path d="M70.4546 153.012L70.6338 155.253C70.7235 156.328 70.7235 157.404 70.6338 158.39C70.4546 160.362 70.2753 163.768 70.2753 165.74C70.2753 168.519 78.9702 169.146 78.9702 169.146L80.0458 167.891H81.0318C81.211 167.891 81.3904 167.891 81.5697 167.802C82.0179 167.533 82.1971 167.085 82.1971 166.636C81.7489 164.127 81.0318 158.659 81.8385 154.356C81.8385 154.356 76.9981 150.412 70.4546 153.012Z" fill="#FEFEFE"/>
<path d="M70.993 153.372L71.0826 155.254C71.1723 156.33 71.1723 157.406 71.0826 158.481C70.9033 160.364 70.724 163.86 70.724 165.742C70.724 167.266 75.2956 168.342 78.7018 168.521L79.5982 167.445C79.6878 167.356 79.8671 167.266 80.0464 167.266H81.0323C81.122 167.266 81.3013 167.266 81.3013 167.176C81.4806 167.087 81.6599 166.818 81.5703 166.549C81.1221 163.77 80.4946 158.661 81.2117 154.448C80.2257 153.91 76.2816 151.49 70.993 153.372ZM78.8811 169.596C77.2677 169.507 69.6484 168.879 69.6484 165.652C69.6484 163.68 69.9174 160.185 70.007 158.302C70.0966 157.316 70.0966 156.24 70.007 155.165L69.8277 152.924C69.8277 152.655 69.9173 152.476 70.1862 152.386C76.9987 149.787 81.9288 153.641 82.1081 153.82C82.2873 153.91 82.3769 154.179 82.2873 154.358C81.4806 158.571 82.2873 164.218 82.6459 166.459C82.7355 167.176 82.377 167.893 81.7495 168.162C81.4806 168.252 81.2116 168.342 80.9427 168.342H80.136L79.2396 169.417C79.15 169.596 79.0604 169.596 78.8811 169.596Z" fill="#0E2549"/>
<path d="M68.9317 159.911C68.9317 159.911 68.5732 154.533 66.1529 155.16C63.7327 155.877 64.2705 161.793 68.9317 159.911Z" fill="#FEFEFE"/>
<path d="M444.332 312.207L403.547 348.869L293.114 348.51C292.935 348.51 292.845 348.331 293.024 348.241L333.182 312.117L444.332 312.207Z" fill="#FEFEFE"/>
<path d="M294.19 348.061L403.458 348.419L443.077 312.833L333.54 312.744L294.19 348.061ZM403.637 349.495L293.204 349.136C292.935 349.136 292.666 348.957 292.486 348.688C292.397 348.419 292.487 348.15 292.666 347.971L332.823 311.847C332.913 311.758 333.092 311.668 333.182 311.668L444.332 311.758C444.512 311.758 444.78 311.937 444.87 312.116C444.96 312.295 444.87 312.564 444.691 312.744L403.906 349.405C403.906 349.405 403.727 349.495 403.637 349.495Z" fill="#0E2549"/>
<path d="M444.332 312.297V406.147L404.175 442.271C403.995 442.45 403.727 442.271 403.727 442.092V348.869C403.816 348.959 443.795 312.297 444.332 312.297Z" fill="#FEFEFE"/>
<path d="M404.354 349.137V441.463L443.884 405.877V313.371C439.044 317.495 414.393 339.904 404.354 349.137ZM404.085 442.897C403.995 442.897 403.906 442.897 403.727 442.808C403.458 442.718 403.278 442.449 403.278 442.091V348.868C403.278 348.688 403.368 348.599 403.458 348.509C443.615 311.758 444.153 311.758 444.332 311.758C444.512 311.758 444.601 311.847 444.691 311.937C444.781 312.027 444.87 312.206 444.87 312.296V406.146C444.87 406.325 444.781 406.415 444.691 406.505L404.533 442.628C404.444 442.808 404.264 442.897 404.085 442.897Z" fill="#0E2549"/>
<path d="M403.816 442.36L292.935 442.002C293.203 442.181 293.024 348.6 293.024 348.6L403.816 348.869C403.816 348.958 403.816 442.45 403.816 442.36Z" fill="#FEFEFE"/>
<path d="M293.472 441.465L403.278 441.823V349.497L293.562 349.228C293.562 352.813 293.562 374.057 293.562 395.301C293.562 408.837 293.562 419.683 293.562 427.392C293.562 431.784 293.562 435.459 293.562 437.969C293.562 439.762 293.562 440.837 293.472 441.465ZM403.816 442.899L292.934 442.54C292.755 442.54 292.665 442.451 292.576 442.361C292.396 442.271 292.396 442.003 292.396 441.823C292.576 439.672 292.486 379.973 292.486 348.6C292.486 348.421 292.576 348.331 292.665 348.242C292.755 348.152 292.934 348.062 293.024 348.062L403.816 348.331C404.085 348.331 404.354 348.6 404.354 348.869V442.271C404.354 442.451 404.264 442.54 404.174 442.63C404.085 442.809 403.905 442.899 403.816 442.899Z" fill="#0E2549"/>
<path d="M390.997 372.624L369.126 378.54C367.96 378.809 367.602 380.243 368.319 381.14L370.65 383.739C371.187 384.367 371.187 385.353 370.56 385.98L358.1 397.185C357.473 397.723 356.487 397.723 355.859 397.095L342.503 382.215C341.966 381.588 340.89 381.498 340.262 382.126L306.828 412.065C306.2 412.602 306.111 413.678 306.738 414.305L311.578 419.773C312.116 420.401 313.192 420.49 313.819 419.863L339.456 396.916C340.083 396.378 341.069 396.378 341.697 397.005L355.053 411.885C355.59 412.513 356.666 412.602 357.294 411.975L377.552 393.779C378.179 393.241 379.165 393.241 379.793 393.868L382.302 396.647C383.109 397.543 384.543 397.274 384.992 396.199L393.059 374.865C393.328 373.431 392.252 372.266 390.997 372.624Z" fill="#0E2549"/>
<path d="M212.709 179.006C212.261 178.289 212.261 177.393 212.709 176.765C213.336 175.779 213.695 174.793 213.695 173.717C213.695 168.698 205.986 164.664 196.485 164.664C186.983 164.664 179.274 168.698 179.274 173.717C179.274 174.793 179.633 175.779 180.26 176.765C180.708 177.482 180.708 178.379 180.26 179.006C179.633 179.992 179.274 180.978 179.274 182.054C179.274 184.384 180.977 186.536 183.846 188.149C183.756 188.418 183.756 188.687 183.756 188.956C183.756 192.631 189.493 195.589 196.485 195.589C203.476 195.589 209.213 192.631 209.213 188.956C209.213 188.687 209.213 188.418 209.123 188.149C211.992 186.536 213.695 184.384 213.695 182.054C213.695 180.978 213.336 179.902 212.709 179.006Z" fill="#0E2549"/>
<path d="M243.275 104.516C243.275 78.9694 222.031 57.1875 196.484 57.1875C171.027 57.1875 149.962 78.4316 149.783 103.889C149.694 116.886 155.968 128.987 164.484 137.413C170.669 143.508 175.151 151.128 177.302 159.464L177.391 159.912C179.543 168.069 186.893 173.716 195.229 173.716H198.636C207.061 173.716 214.412 168.069 216.473 159.912L216.563 159.643C218.714 151.307 223.017 143.688 229.202 137.682C237.897 129.166 243.275 117.424 243.275 104.516Z" fill="#FEFEFE"/>
<path d="M196.396 57.6381C171.119 57.6381 150.412 78.3444 150.233 103.801C150.143 115.634 155.432 127.735 164.754 136.967C171.119 143.242 175.6 150.951 177.752 159.287L177.841 159.735C179.903 167.623 187.074 173.181 195.231 173.181H198.727C206.884 173.181 214.055 167.623 216.117 159.735L216.206 159.466C218.447 150.861 222.839 143.242 229.024 137.236C237.898 128.541 242.828 116.978 242.828 104.519C242.739 79.1511 221.495 57.6381 196.396 57.6381ZM198.727 174.167H195.231C186.536 174.167 179.007 168.34 176.855 159.914L176.766 159.466C174.614 151.309 170.222 143.78 164.037 137.684C154.536 128.272 149.068 115.902 149.157 103.801C149.247 91.3418 154.177 79.5097 163.141 70.5459C172.105 61.5822 183.937 56.5625 196.396 56.5625C222.033 56.5625 243.725 78.5237 243.725 104.429C243.725 117.157 238.705 129.079 229.562 137.953C223.556 143.78 219.254 151.309 217.103 159.735L217.013 160.004C214.951 168.34 207.332 174.167 198.727 174.167Z" fill="#0E2549"/>
<path d="M203.746 95.7335C202.94 96.361 202.223 97.2573 201.685 98.2434C198.279 104.249 199.444 107.566 200.43 108.91C201.505 110.434 203.298 111.241 205.091 110.882C206.525 110.613 207.601 109.717 207.959 108.372C209.304 103.98 206.973 98.6915 203.746 95.7335ZM189.853 96.2713C188.239 97.9744 186.984 100.395 186.088 103.442C185.102 106.759 185.46 109.538 186.984 111.061C188.06 112.137 189.584 112.496 190.928 112.048C192.631 111.51 193.886 109.986 194.334 107.745C195.052 104.428 193.169 97.8848 189.853 96.2713ZM189.763 113.302C188.418 113.302 187.163 112.765 186.177 111.779C184.295 109.896 183.847 106.759 185.012 103.084C185.998 99.7672 187.343 97.4366 188.777 95.8231C183.04 93.9408 179.006 96.7195 177.841 99.4086C177.303 100.753 177.124 102.187 177.214 103.622C177.214 103.891 177.034 104.159 176.676 104.159C176.407 104.159 176.138 103.98 176.138 103.622C176.048 102.008 176.317 100.395 176.855 98.8708C178.11 95.7335 182.861 92.5066 189.584 94.8371C190.839 93.5822 192.183 92.8651 193.259 92.5066C196.934 91.162 200.609 92.148 202.85 93.5822C203.209 93.7615 203.567 94.0304 203.836 94.2993C206.973 92.148 210.828 92.148 213.248 92.9548C217.371 94.2993 218.716 97.7055 219.164 100.305C219.254 100.574 218.985 100.843 218.716 100.932C218.447 101.022 218.178 100.753 218.088 100.484C217.73 98.1537 216.475 95.106 212.889 93.9408C210.738 93.2237 207.421 93.2237 204.643 95.0164C208.049 98.2433 210.38 103.891 209.035 108.731C208.497 110.434 207.153 111.689 205.27 112.048C203.119 112.406 200.788 111.42 199.533 109.627C198.368 108.014 197.024 104.339 200.788 97.7952C201.416 96.7195 202.133 95.8231 203.029 95.106C202.76 94.9268 202.581 94.7475 202.312 94.6579C200.34 93.4029 197.024 92.5066 193.707 93.6718C192.631 94.0304 191.645 94.6579 190.749 95.4646C194.424 97.6159 196.306 104.249 195.589 108.014C195.052 110.613 193.528 112.496 191.376 113.123C190.749 113.213 190.301 113.302 189.763 113.302Z" fill="#0E2549"/>
<path d="M217.908 134.097C217.728 134.097 217.549 134.008 217.459 133.828C217.28 133.559 217.37 133.29 217.639 133.111C225.975 127.823 231.981 119.307 234.132 109.716C234.222 109.447 234.491 109.268 234.759 109.268C235.028 109.357 235.208 109.626 235.208 109.895C233.056 119.755 226.871 128.54 218.266 134.008C218.087 134.008 217.997 134.097 217.908 134.097Z" fill="#0E2549"/>
<path d="M167.533 128.718C167.354 128.718 167.264 128.629 167.174 128.539C160.989 121.547 157.583 112.584 157.583 103.172C157.583 88.5609 165.74 75.4738 178.738 69.0199C179.006 68.9303 179.365 69.0199 179.455 69.2889C179.544 69.5578 179.455 69.9163 179.186 70.006C166.457 76.2806 158.569 89.0091 158.569 103.261C158.569 112.315 161.886 121.099 167.891 127.912C168.071 128.091 168.071 128.45 167.802 128.629C167.802 128.629 167.623 128.718 167.533 128.718Z" fill="#0E2549"/>
<path d="M199.443 179.005C199.174 179.005 198.995 178.826 198.905 178.557C198.816 178.288 199.085 178.019 199.353 177.929C200.967 177.66 202.491 177.302 203.925 176.943C204.194 176.854 204.463 177.033 204.552 177.302C204.642 177.571 204.463 177.84 204.194 177.929C202.67 178.377 201.146 178.736 199.533 179.005C199.443 179.005 199.443 179.005 199.443 179.005Z" fill="#FEFEFE"/>
<path d="M192.092 187.88C191.824 187.88 191.555 187.612 191.555 187.343C191.555 187.074 191.824 186.805 192.092 186.805C195.678 186.805 200.967 186.267 205.628 184.116C205.897 184.026 206.255 184.116 206.345 184.385C206.435 184.653 206.345 185.012 206.076 185.102C201.235 187.343 195.857 187.88 192.092 187.88Z" fill="#FEFEFE"/>
<path d="M196.665 46.5208C196.396 46.5208 196.127 46.2519 196.127 45.983L196.575 25.5456C196.575 25.2767 196.844 25.0078 197.113 25.0078C197.382 25.0078 197.651 25.2767 197.651 25.5456L197.203 45.983C197.203 46.3415 196.934 46.5208 196.665 46.5208Z" fill="#0E2549"/>
<path d="M137.503 88.2026H124.416C124.147 88.2026 123.878 87.9337 123.878 87.6648C123.878 87.3959 124.147 87.127 124.416 87.127H137.503C137.772 87.127 138.041 87.3959 138.041 87.6648C138.041 87.9337 137.772 88.2026 137.503 88.2026Z" fill="#0E2549"/>
<path d="M149.514 60.8617C149.425 60.8617 149.335 60.8617 149.246 60.7721L134.545 52.7943C134.276 52.6151 134.186 52.3461 134.366 52.0772C134.545 51.8083 134.814 51.7187 135.083 51.898L149.783 59.8757C150.052 60.055 150.142 60.3239 149.963 60.5928C149.873 60.7721 149.694 60.8617 149.514 60.8617Z" fill="#0E2549"/>
<path d="M255.467 88.2026C255.198 88.2026 254.929 87.9337 254.929 87.6648C254.929 87.3959 255.198 87.127 255.467 87.127H268.554C268.823 87.127 269.091 87.3959 269.091 87.6648C269.091 87.9337 268.823 88.2026 268.554 88.2026H255.467Z" fill="#0E2549"/>
<path d="M243.366 60.8622C243.187 60.8622 243.008 60.7726 242.918 60.5933C242.739 60.3244 242.918 59.9658 243.097 59.8762L257.798 51.8985C258.067 51.7192 258.425 51.8985 258.515 52.0777C258.694 52.3467 258.515 52.7052 258.336 52.7949L243.635 60.7726C243.545 60.8622 243.456 60.8622 243.366 60.8622Z" fill="#0E2549"/>
<path d="M328.342 38.4538C323.322 38.1849 318.123 43.0253 319.288 50.286C320.274 56.2917 326.728 57.5466 329.866 60.5046C340.174 70.0959 343.58 101.379 358.55 109.626C370.561 116.17 391.716 113.66 402.562 98.8695C412.87 84.7964 413.766 64.8072 401.217 56.3813C389.923 48.7621 383.379 59.3394 371.457 52.3476C359.715 45.3559 362.045 37.4678 354.875 34.7787C345.104 31.0139 342.415 39.1709 328.342 38.4538Z" fill="#0E2549"/>
<path d="M310.234 116.438C304.945 148.708 304.318 149.246 303.601 152.562C303.601 152.562 301.539 162.064 300.912 171.207C300.374 179.185 301.898 226.961 326.548 237.449C335.422 241.214 338.022 234.222 357.025 235.029C376.476 235.835 380.42 242.737 388.936 240.317C407.311 235.029 413.317 195.678 412.331 171.296C411.524 151.487 401.664 132.752 381.854 95.2839C378.807 89.5471 374.056 80.8523 366.258 79.7766C362.672 79.2388 361.238 79.7766 346.985 83.7207C331.478 88.0233 327.534 83.4518 320.811 87.6647C314.088 91.9673 312.834 100.214 310.234 116.438Z" fill="#FEFEFE"/>
<path d="M354.246 234.491C355.143 234.491 356.129 234.491 357.115 234.581C367.154 234.939 373.249 237.09 377.642 238.525C381.944 240.048 384.813 240.945 388.846 239.869C406.415 234.85 412.869 196.754 411.794 171.386C410.987 151.666 401.127 132.932 381.407 95.5529C378.807 90.6229 373.967 81.3902 366.258 80.3146C363.12 79.8664 361.776 80.2249 350.93 83.2726L347.255 84.2586C339.277 86.4099 334.436 86.3203 330.582 86.2306C326.907 86.141 324.397 86.141 321.26 88.113C314.716 92.2363 313.461 100.035 310.951 115.542L310.772 116.528C306.38 143.419 305.215 148.26 304.498 151.128C304.318 151.666 304.229 152.204 304.139 152.742C304.139 152.831 302.077 162.333 301.45 171.386C301.181 175.958 301.629 189.852 304.856 203.387C307.814 215.757 313.999 231.623 326.817 237.09C331.12 238.973 333.899 238.166 338.022 237.001C341.608 235.836 346.448 234.491 354.246 234.491ZM385.44 241.393C382.751 241.393 380.331 240.586 377.283 239.511C372.712 237.897 366.975 236.015 357.025 235.567C347.703 235.208 342.504 236.642 338.291 237.897C334.078 239.062 331.03 239.959 326.369 237.987C315.882 233.505 308.083 221.583 303.78 203.566C300.553 189.941 300.105 175.868 300.374 171.297C300.912 162.154 303.063 152.652 303.063 152.562C303.153 152.025 303.332 151.487 303.422 150.949C304.139 148.08 305.215 143.33 309.607 116.438L309.786 115.452C312.386 99.6763 313.641 91.6985 320.632 87.3063C324.039 85.155 326.728 85.2446 330.492 85.2446C334.347 85.3343 339.098 85.4239 346.896 83.2726L350.571 82.2866C361.597 79.2389 363.031 78.8804 366.347 79.3285C374.594 80.4938 379.614 89.9954 382.303 95.1047C402.023 132.573 411.973 151.397 412.78 171.386C413.317 185.19 411.704 200.877 408.387 213.247C405.429 224.183 399.693 237.987 389.026 240.945C387.86 241.214 386.606 241.393 385.44 241.393Z" fill="#0E2549"/>
<path d="M338.561 303.512V319.109L346.09 318.66L347.524 303.512H338.561Z" fill="#FEFEFE"/>
<path d="M339.098 304.05V318.572L345.552 318.213L346.897 304.05H339.098ZM338.56 319.647C338.381 319.647 338.291 319.558 338.202 319.468C338.112 319.378 338.022 319.199 338.022 319.109V303.512C338.022 303.244 338.291 302.975 338.56 302.975H347.524C347.703 302.975 347.793 303.064 347.883 303.154C347.972 303.244 348.062 303.423 348.062 303.602L346.538 318.751C346.538 319.02 346.269 319.199 346 319.199L338.56 319.647Z" fill="#0E2549"/>
<path d="M347.165 338.56C344.118 338.919 339.098 339.098 333.272 338.112C331.389 337.753 330.134 335.871 330.672 333.989C332.106 328.79 335.064 319.109 337.305 314.448L338.65 316.957L339.726 314.268C339.905 313.91 340.263 313.73 340.622 313.73H344.656C345.821 313.73 345.911 314.358 346.09 314.896L346.897 316.957L347.972 314.179L350.034 335.064C350.303 336.767 348.958 338.381 347.165 338.56Z" fill="#FEFEFE"/>
<path d="M337.395 315.614C335.064 320.723 332.375 330.135 331.21 334.169C331.031 334.886 331.12 335.693 331.568 336.32C332.017 336.947 332.644 337.396 333.451 337.575C339.188 338.561 344.118 338.382 347.255 338.023C348.689 337.844 349.855 336.499 349.675 335.065L347.883 316.421L347.614 317.138C347.524 317.317 347.345 317.496 347.076 317.496C346.897 317.496 346.628 317.317 346.538 317.138L345.731 314.897C345.642 314.449 345.552 314.269 344.835 314.269H340.801C340.622 314.269 340.532 314.359 340.353 314.538L339.277 317.138C339.188 317.317 339.008 317.496 338.829 317.496C338.65 317.496 338.471 317.407 338.291 317.227L337.395 315.614ZM341.966 339.368C339.367 339.368 336.409 339.188 333.182 338.651C332.106 338.471 331.21 337.844 330.582 336.947C330.045 336.051 329.865 334.886 330.134 333.9C331.3 329.597 334.437 319.199 336.857 314.269C336.947 314.09 337.126 314 337.305 314C337.485 314 337.664 314.09 337.753 314.269L338.56 315.793L339.277 314.18V314.09C339.546 313.642 339.994 313.283 340.532 313.283H344.566C346 313.283 346.269 314.18 346.448 314.717V314.807L346.717 315.524L347.345 314C347.434 313.731 347.703 313.642 347.883 313.642C348.151 313.642 348.331 313.911 348.331 314.09L350.392 334.975C350.572 337.037 349.048 338.92 346.986 339.099C345.821 339.278 344.028 339.368 341.966 339.368Z" fill="#0E2549"/>
<path d="M341.07 335.871C339.009 335.871 336.678 335.691 334.168 334.974C333.899 334.885 333.72 334.616 333.809 334.347C333.899 334.078 334.168 333.899 334.437 333.988C341.518 335.871 347.434 333.988 347.524 333.988C347.793 333.899 348.151 334.078 348.151 334.347C348.241 334.616 348.062 334.974 347.793 335.064C347.703 335.064 345.014 335.871 341.07 335.871Z" fill="#0E2549"/>
<path d="M344.207 327.714H337.304C337.035 327.714 336.767 327.445 336.767 327.177C336.767 326.908 337.035 326.639 337.304 326.639H344.207C344.475 326.639 344.744 326.908 344.744 327.177C344.744 327.535 344.475 327.714 344.207 327.714Z" fill="#0E2549"/>
<path d="M393.866 295.176L396.107 314.089L403.099 313.82V295.176H393.866Z" fill="#FEFEFE"/>
<path d="M394.495 295.713L396.557 313.461L402.563 313.281V295.713H394.495ZM396.109 314.626C395.84 314.626 395.571 314.447 395.571 314.178L393.33 295.354C393.33 295.175 393.33 295.085 393.419 294.906C393.509 294.816 393.688 294.727 393.778 294.727H403.011C403.28 294.727 403.549 294.995 403.549 295.264V313.819C403.549 314.088 403.28 314.357 403.011 314.357L396.109 314.626Z" fill="#0E2549"/>
<path d="M394.405 309.517C394.405 309.517 393.509 317.853 393.778 321.259C393.957 323.68 397.274 330.94 399.156 334.884C399.963 336.498 401.397 337.573 403.011 337.573C404.983 337.663 407.761 337.753 409.913 337.753C412.96 337.753 415.022 334.257 413.946 331.03C412.96 328.072 411.347 324.307 408.837 320.363C406.955 317.405 404.176 309.248 404.176 309.248H398.439L397.274 313.999L394.405 309.517Z" fill="#FEFEFE"/>
<path d="M394.764 311.131C394.495 313.641 394.046 318.84 394.315 321.26C394.495 322.963 396.377 327.804 399.604 334.706C400.321 336.14 401.576 337.037 403.01 337.126C404.982 337.216 407.671 337.306 409.912 337.306C411.078 337.306 412.153 336.768 412.87 335.692C413.767 334.437 414.036 332.824 413.498 331.3C412.243 327.625 410.54 324.039 408.478 320.723C406.775 318.033 404.444 311.49 403.907 309.787H398.977L397.991 314.179C397.901 314.358 397.811 314.538 397.542 314.627C397.363 314.627 397.094 314.538 397.005 314.358L394.764 311.131ZM409.912 338.381C407.671 338.381 404.893 338.292 402.921 338.202C401.128 338.112 399.425 336.947 398.618 335.154C396.287 330.134 393.419 323.681 393.24 321.35C392.971 317.944 393.867 309.876 393.867 309.518C393.867 309.339 394.046 309.07 394.315 309.07C394.495 308.98 394.764 309.07 394.853 309.339L397.094 312.834L397.901 309.249C397.991 308.98 398.17 308.801 398.439 308.801H404.176C404.444 308.801 404.624 308.98 404.713 309.159C404.713 309.249 407.492 317.316 409.285 320.185C411.436 323.591 413.229 327.266 414.484 331.031C415.111 332.913 414.842 334.885 413.677 336.409C412.781 337.664 411.436 338.381 409.912 338.381Z" fill="#0E2549"/>
<path d="M405.519 334.795C403.01 334.795 400.769 331.21 400.679 331.12L397.452 324.756C397.273 324.487 397.452 324.129 397.721 324.039C397.99 323.86 398.348 324.039 398.438 324.308L401.665 330.583C402.203 331.479 403.906 333.72 405.519 333.72H410.449C410.718 333.72 410.987 333.989 410.987 334.258C410.987 334.527 410.718 334.795 410.449 334.795H405.519Z" fill="#0E2549"/>
<path d="M409.104 327.982H402.83C402.561 327.982 402.292 327.713 402.292 327.444C402.292 327.175 402.561 326.906 402.83 326.906H409.104C409.373 326.906 409.642 327.175 409.642 327.444C409.642 327.713 409.373 327.982 409.104 327.982Z" fill="#0E2549"/>
<path d="M326.459 147.273C326.459 147.273 327.176 204.731 329.596 242.199C332.017 279.668 336.767 308.262 336.767 308.262C336.767 308.262 344.924 311.22 350.392 309.696C350.392 309.696 354.874 276.889 355.86 265.774C356.846 254.659 354.157 249.191 353.978 240.048C353.709 230.995 357.922 190.837 357.922 190.837C357.922 190.837 388.847 281.46 392.342 301.539C392.342 301.539 399.872 302.794 405.071 299.926C405.071 299.926 405.25 264.25 404.444 258.782C403.099 248.563 395.121 238.524 393.687 227.678C392.253 216.832 391.446 189.672 387.502 173.358C383.558 157.044 375.849 138.668 375.849 138.668L326.459 147.273Z" fill="#0E2549"/>
<path d="M377.553 168.608C377.463 168.608 377.374 168.608 377.374 168.608C373.25 166.905 369.755 164.126 367.066 160.362C366.886 160.093 366.976 159.824 367.155 159.645C367.424 159.465 367.693 159.555 367.872 159.734C370.472 163.32 373.788 166.009 377.732 167.622C378.001 167.712 378.181 168.071 378.001 168.339C378.001 168.429 377.732 168.608 377.553 168.608Z" fill="#FEFEFE"/>
<path d="M330.939 168.34C330.76 168.34 330.67 168.25 330.581 168.161C330.401 167.982 330.401 167.623 330.581 167.444C333.897 164.306 334.435 162.424 335.152 159.466L335.332 158.659C335.421 158.39 335.69 158.211 335.959 158.301C336.228 158.39 336.407 158.659 336.318 158.928L336.138 159.735C335.421 162.693 334.883 164.844 331.298 168.161C331.208 168.34 331.029 168.34 330.939 168.34Z" fill="#FEFEFE"/>
<path d="M242.111 106.04C244.263 106.488 248.296 108.55 248.834 109.177C252.957 113.48 255.467 106.757 255.467 106.757C255.467 106.757 248.027 102.275 243.814 101.558C235.657 100.303 237.629 105.143 242.111 106.04Z" fill="#FEFEFE"/>
<path d="M241.393 101.917C239.69 101.917 238.883 102.365 238.794 102.903C238.614 103.71 239.959 105.144 242.29 105.592C244.531 106.04 248.744 108.192 249.371 108.819C250.357 109.805 251.253 110.253 252.06 110.074C253.405 109.805 254.48 108.012 254.928 107.026C253.315 106.13 247.399 102.724 243.814 102.186C242.828 102.007 242.021 101.917 241.393 101.917ZM251.612 111.15C250.626 111.15 249.55 110.612 248.564 109.536C248.206 109.088 244.172 107.026 242.11 106.578C239.511 106.04 237.539 104.248 237.808 102.634C237.897 101.917 238.794 100.214 243.993 101.021C248.295 101.648 255.556 106.04 255.915 106.22C256.094 106.309 256.273 106.578 256.183 106.847C256.094 107.026 254.839 110.433 252.419 110.971C251.971 111.15 251.791 111.15 251.612 111.15Z" fill="#0E2549"/>
<path d="M256.093 109.447C256.003 109.447 255.914 109.447 255.824 109.358L197.739 68.6621C197.47 68.4829 197.47 68.1243 197.649 67.945C197.829 67.6761 198.187 67.6761 198.367 67.8554L256.452 108.551C256.721 108.73 256.721 109.089 256.541 109.268C256.452 109.447 256.272 109.447 256.093 109.447Z" fill="#0E2549"/>
<path d="M248.923 99.7647C250.088 101.02 252.419 102.185 254.122 102.454C254.839 102.633 255.646 102.723 256.453 102.633C262.548 102.364 261.114 110.969 274.021 113.031C274.47 113.121 275.097 120.919 275.097 122.981C269.808 120.74 262.817 115.72 259.5 116.706C253.405 118.409 251.433 115.272 250.088 113.838C246.772 110.073 251.254 106.308 251.254 106.308C251.254 106.308 250.447 106.129 248.116 104.874C244.441 102.902 243.634 94.2968 248.923 99.7647Z" fill="#FEFEFE"/>
<path d="M260.396 116.081C262.906 116.081 266.312 117.963 269.988 119.845C271.511 120.652 273.125 121.459 274.559 122.176C274.469 119.666 274.021 114.646 273.663 113.571C266.223 112.316 263.444 108.91 261.382 106.4C259.859 104.517 258.783 103.173 256.452 103.263C255.735 103.263 254.928 103.173 254.032 102.994C252.15 102.635 249.819 101.38 248.564 100.125C247.22 98.691 246.323 98.3325 245.965 98.5117C245.785 98.6014 245.696 98.8703 245.606 99.3185C245.517 100.753 246.503 103.442 248.295 104.428C250.536 105.683 251.343 105.772 251.343 105.772C251.522 105.772 251.702 105.952 251.791 106.131C251.881 106.31 251.791 106.579 251.612 106.669C251.612 106.669 249.55 108.372 249.371 110.523C249.281 111.509 249.64 112.495 250.447 113.481C250.536 113.571 250.626 113.75 250.805 113.84C252.06 115.364 254.032 117.694 259.321 116.17C259.679 116.17 260.038 116.081 260.396 116.081ZM275.097 123.61C275.007 123.61 274.918 123.61 274.918 123.61C273.215 122.893 271.332 121.907 269.539 120.921C265.685 118.859 261.741 116.798 259.679 117.336C253.763 118.949 251.343 116.17 250.088 114.646C249.998 114.557 249.909 114.378 249.819 114.288C248.833 113.123 248.385 111.868 248.475 110.523C248.654 108.82 249.64 107.386 250.447 106.579C249.909 106.4 249.102 106.041 248.026 105.414C245.785 104.249 244.62 101.022 244.8 99.3185C244.889 98.1532 245.517 97.705 245.875 97.6154C246.771 97.2568 248.026 97.8843 249.55 99.4977C250.626 100.573 252.777 101.739 254.48 102.097C255.287 102.277 256.004 102.366 256.632 102.277C259.5 102.187 260.845 103.89 262.458 105.772C264.52 108.282 267.119 111.509 274.29 112.674C274.738 112.764 275.007 112.764 275.455 117.336C275.635 119.577 275.814 122.086 275.814 123.072C275.814 123.252 275.724 123.431 275.545 123.521C275.276 123.521 275.187 123.61 275.097 123.61Z" fill="#0E2549"/>
<path d="M255.914 113.124C255.646 113.124 255.466 112.944 255.377 112.765C255.287 112.496 255.466 112.227 255.735 112.138C256.452 111.958 256.9 111.6 257.08 110.972C257.349 109.986 256.9 108.462 256.004 107.297C255.287 106.401 254.48 105.863 253.584 105.953C251.881 105.953 250.536 107.745 250.536 107.745C250.357 108.014 249.998 108.014 249.819 107.835C249.55 107.656 249.55 107.297 249.729 107.118C249.819 107.028 251.432 104.967 253.584 104.877C254.839 104.877 255.914 105.415 256.9 106.67C257.886 107.925 258.693 109.807 258.245 111.331C258.066 111.958 257.528 112.855 256.183 113.213C256.094 113.124 256.004 113.124 255.914 113.124Z" fill="#0E2549"/>
<path d="M320.812 83.7193C320.812 83.7193 339.277 81.1199 357.384 80.582C357.384 80.582 381.227 144.314 381.227 148.348C381.227 152.382 369.754 161.435 358.46 154.174C339.546 142.073 327.714 146.197 318.392 148.438C304.498 151.665 320.812 83.7193 320.812 83.7193Z" fill="#FEFEFE"/>
<path d="M333.808 145.391C340.62 145.391 348.688 147.273 358.817 153.727C366.167 158.388 372.8 155.699 375.31 154.265C378.716 152.382 380.778 149.783 380.778 148.259C380.778 145.211 365.36 103.171 357.114 81.0309C340.71 81.5688 323.948 83.8097 321.348 84.1682C320.273 88.919 308.53 139.833 315.791 147.183C316.508 147.9 317.404 148.08 318.48 147.9C319.107 147.721 319.824 147.632 320.452 147.452C324.306 146.466 328.698 145.391 333.808 145.391ZM367.422 157.492C364.643 157.492 361.506 156.775 358.189 154.713C340.8 143.598 329.595 146.377 320.542 148.528C319.824 148.707 319.197 148.886 318.569 148.976C317.135 149.335 315.88 148.976 314.894 147.99C306.827 139.923 319.735 85.8714 320.273 83.6304C320.362 83.4511 320.542 83.2719 320.721 83.1822C320.9 83.1822 339.365 80.4931 357.383 80.0449C357.651 80.0449 357.831 80.1346 357.92 80.4035C358.906 83.003 381.854 144.315 381.854 148.349C381.854 150.5 379.344 153.368 375.848 155.251C374.324 156.147 371.276 157.492 367.422 157.492Z" fill="#0E2549"/>
<path d="M262.728 119.397C265.058 122.176 269.271 127.912 278.952 131.05C298.493 137.414 310.504 124.506 310.504 124.506L308.801 162.961C308.801 162.961 318.213 168.518 318.213 168.07C318.213 167.622 322.336 82.1973 322.336 82.1973C322.336 82.1973 314.717 82.2869 311.311 87.1273C307.905 91.9677 295.087 111.957 280.296 112.136C273.574 112.226 270.347 109.447 268.195 108.73L262.728 119.397Z" fill="#FEFEFE"/>
<path d="M309.698 142.524C309.339 142.524 309.16 142.255 309.16 141.986L309.877 125.762C306.56 128.63 295.176 136.877 278.773 131.499C269.45 128.451 265.058 123.073 262.638 120.204L262.279 119.756C262.1 119.577 262.1 119.398 262.19 119.129L267.747 108.552C267.837 108.283 268.106 108.193 268.375 108.283C268.912 108.462 269.45 108.731 270.167 109.089C272.319 110.165 275.277 111.689 280.296 111.689C293.921 111.51 306.112 93.7614 310.146 87.935C310.415 87.5764 310.684 87.2179 310.863 86.949C314.359 81.9293 321.978 81.75 322.336 81.75C322.426 81.75 322.605 81.8396 322.695 81.9293C322.785 82.0189 322.874 82.1982 322.874 82.2878C322.874 82.2878 321.261 116.171 320.006 141.359C320.006 141.628 319.737 141.897 319.468 141.897C319.199 141.897 318.93 141.628 318.93 141.359C320.006 118.143 321.53 87.4868 321.709 82.9153C319.916 83.0946 314.359 83.8117 311.67 87.5764C311.49 87.8453 311.221 88.2039 310.952 88.5624C306.829 94.4785 294.37 112.585 280.207 112.765C274.918 112.854 271.691 111.151 269.54 110.075C269.092 109.807 268.644 109.627 268.285 109.448L263.086 119.308L263.265 119.487C265.596 122.266 269.809 127.555 278.862 130.423C297.865 136.608 309.787 124.148 309.877 124.059C310.056 123.88 310.235 123.88 310.504 123.969C310.684 124.059 310.863 124.238 310.863 124.507L310.056 142.076C310.235 142.345 310.056 142.524 309.698 142.524Z" fill="#0E2549"/>
<path d="M297.775 96.2715H333.451C334.616 96.2715 335.602 97.2575 335.871 98.4228L343.938 148.44C344.118 149.606 343.4 150.592 342.235 150.592H306.56C305.394 150.592 304.408 149.606 304.139 148.44L296.072 98.4228C295.893 97.2575 296.699 96.2715 297.775 96.2715Z" fill="#FEFEFE"/>
<path d="M297.775 96.8079C297.417 96.8079 297.058 96.9871 296.879 97.1664C296.61 97.4353 296.52 97.7939 296.61 98.2421L304.677 148.26C304.857 149.156 305.663 149.873 306.56 149.873H342.235C342.594 149.873 342.953 149.694 343.132 149.515C343.401 149.246 343.49 148.887 343.401 148.439L335.333 98.4213C335.154 97.525 334.347 96.7182 333.451 96.7182H297.775V96.8079ZM342.235 151.039H306.56C305.126 151.039 303.871 149.873 303.691 148.439L295.624 98.4213C295.534 97.7042 295.714 96.9871 296.162 96.4493C296.61 95.9115 297.237 95.6426 297.865 95.6426H333.541C334.975 95.6426 336.23 96.8079 336.409 98.2421L344.476 148.26C344.566 148.977 344.387 149.694 343.939 150.232C343.58 150.77 342.953 151.039 342.235 151.039Z" fill="#0E2549"/>
<path d="M338.74 116.529L339.368 120.294C339.368 121.997 337.844 123.342 336.141 122.983L326.818 121.28C325.384 121.011 324.04 122.176 324.129 123.611C324.219 124.417 324.577 125.403 325.563 126.389C326.012 126.838 334.258 133.112 340.623 132.037C340.891 131.947 346.807 135.353 347.076 135.174C348.062 134.457 348.779 132.216 348.959 130.244C348.959 130.065 344.029 127.286 343.581 125.762C343.043 124.148 343.491 123.073 342.863 120.294C342.236 117.246 338.74 116.529 338.74 116.529Z" fill="#FEFEFE"/>
<path d="M340.711 131.496C340.98 131.496 341.338 131.675 343.758 132.93C344.834 133.468 346.448 134.364 346.985 134.543C347.613 133.916 348.24 132.213 348.509 130.42C348.33 130.33 348.061 130.151 347.882 129.972C345.73 128.538 343.579 127.014 343.221 125.848C342.952 125.042 342.952 124.325 342.862 123.518C342.862 122.711 342.772 121.725 342.504 120.381C342.055 118.498 340.531 117.512 339.545 117.154L339.994 120.112V120.201C339.994 121.187 339.635 122.084 338.828 122.711C338.111 123.339 337.125 123.607 336.139 123.428L326.817 121.725C326.279 121.635 325.741 121.815 325.383 122.173C325.024 122.532 324.755 122.98 324.845 123.518C324.935 124.325 325.293 125.131 326.1 125.938C326.817 126.655 334.795 132.482 340.711 131.406C340.621 131.496 340.711 131.496 340.711 131.496ZM347.165 135.709C346.806 135.709 345.999 135.35 343.31 133.916C342.324 133.378 341.069 132.75 340.711 132.571C333.898 133.736 325.383 126.834 325.293 126.834C324.307 125.848 323.769 124.773 323.68 123.697C323.59 122.89 323.949 122.084 324.576 121.456C325.203 120.918 326.1 120.649 326.996 120.829L336.319 122.532C336.946 122.621 337.663 122.442 338.111 122.084C338.559 121.635 338.918 121.098 338.828 120.381L338.201 116.616C338.201 116.436 338.201 116.257 338.38 116.168C338.47 116.078 338.649 115.988 338.828 115.988C339.008 115.988 342.593 116.795 343.4 120.291C343.758 121.725 343.758 122.801 343.848 123.607C343.848 124.414 343.938 124.952 344.117 125.669C344.386 126.566 347.165 128.448 348.42 129.165C349.495 129.882 349.675 129.972 349.585 130.33C349.406 132.213 348.688 134.723 347.434 135.619C347.344 135.709 347.254 135.709 347.165 135.709Z" fill="#0E2549"/>
<path d="M347.075 127.643C351.198 128.27 351.736 130.332 356.845 128.091C368.319 123.071 366.167 105.502 364.195 96.7178C363.837 94.9251 363.299 93.1323 362.761 91.5189C361.775 88.4712 374.055 85.6924 376.207 88.023C378.806 90.8914 381.585 94.4769 384.005 98.8691C391.176 111.956 393.507 141.178 369.574 146.467C357.024 149.245 346.985 138.937 343.399 134.545C342.593 133.469 345.909 127.374 347.075 127.643Z" fill="#FEFEFE"/>
<path d="M365.272 147.454C354.515 147.454 346.269 138.849 343.042 134.816C342.145 133.74 343.848 130.782 344.297 129.885C345.462 127.913 346.358 127.017 347.165 127.107C348.51 127.286 349.406 127.645 350.302 128.003C352.095 128.631 353.35 129.079 356.667 127.645C365.541 123.7 365.989 111.958 364.734 102.815C364.734 102.546 364.913 102.277 365.182 102.188C365.451 102.188 365.72 102.367 365.81 102.636C367.065 112.227 366.616 124.418 357.115 128.631C353.44 130.244 351.916 129.706 350.033 128.989C349.227 128.72 348.33 128.362 347.075 128.182C346.806 128.272 345.731 129.527 344.745 131.409C343.938 133.112 343.848 133.919 343.938 134.098C347.524 138.491 357.204 148.53 369.574 145.841C378.09 143.959 383.737 138.939 386.605 130.961C386.695 130.692 387.054 130.513 387.323 130.603C387.592 130.692 387.771 131.051 387.681 131.32C384.723 139.566 378.628 144.945 369.843 146.917C368.14 147.275 366.706 147.454 365.272 147.454Z" fill="#0E2549"/>
<path d="M337.754 58.6222C337.395 58.8015 336.947 58.7118 336.768 58.2636C336.05 56.4709 334.796 52.8854 332.375 52.3476C329.238 51.6305 324.218 50.7341 323.77 53.1543C323.412 55.3056 323.86 59.0704 321.529 61.7595C321.35 62.0284 321.529 62.4766 321.798 62.6559L323.232 63.8212C323.501 64.0901 323.77 64.8072 323.86 65.1657C323.949 66.331 325.204 70.3647 325.563 70.7233C326.37 71.3507 330.314 71.0818 330.314 71.0818L332.375 80.3145C332.465 80.7626 332.286 81.1212 331.837 81.3005L328.073 82.5554C328.073 82.5554 331.12 86.7684 340.532 86.1409C346.538 85.6927 350.93 81.4798 350.93 81.4798C350.93 81.4798 339.188 79.7766 337.664 65.9725C337.664 65.7036 337.754 65.345 338.023 65.1657C338.919 64.4486 341.429 62.387 341.07 60.3253C340.622 58.2636 338.919 57.9051 337.754 58.6222Z" fill="#FEFEFE"/>
<path d="M329.147 82.9149C330.312 83.9905 333.719 86.2315 340.621 85.6936C344.923 85.4247 348.419 83.0045 349.943 81.8392C346.895 81.0325 338.559 77.7159 337.304 66.1527C337.215 65.7045 337.483 65.1667 337.842 64.8977C338.828 64.1806 340.979 62.2983 340.621 60.5951C340.442 59.7884 340.083 59.1609 339.545 58.9817C339.097 58.8024 338.559 58.8024 338.111 59.1609C337.842 59.3402 337.484 59.3402 337.125 59.2506C336.766 59.1609 336.497 58.892 336.408 58.5335L336.229 57.9957C335.511 56.1133 334.436 53.3345 332.464 52.8863C328.52 51.9899 326.01 51.9003 325.024 52.5278C324.755 52.7071 324.576 52.976 324.576 53.2449C324.486 53.7827 324.486 54.4102 324.396 55.0376C324.217 57.1889 324.038 59.8781 322.335 62.0294C322.335 62.0294 322.424 62.119 322.424 62.2086L323.859 63.4635C324.307 63.8221 324.576 64.8081 324.665 65.1667C324.755 66.3319 325.92 69.9174 326.189 70.3656C326.637 70.6345 328.789 70.7242 330.492 70.6345C330.761 70.6345 331.03 70.8138 331.03 71.0827L333.091 80.3154C333.181 80.5843 333.181 80.9429 333.002 81.3014C332.822 81.5703 332.553 81.8392 332.195 81.9289L329.147 82.9149ZM338.649 86.8589C330.581 86.8589 327.803 83.1838 327.713 83.0045C327.623 82.8252 327.623 82.646 327.623 82.5563C327.713 82.377 327.803 82.2874 327.982 82.1978L331.747 80.9428C331.836 80.9428 331.926 80.8532 331.926 80.8532C331.926 80.8532 331.926 80.7636 331.926 80.6739L329.954 71.7998C328.699 71.8895 326.099 71.8895 325.293 71.262C324.665 70.7242 323.5 66.2423 323.41 65.3459C323.41 64.9874 323.141 64.4496 323.052 64.3599L321.618 63.105C321.349 62.9257 321.169 62.5672 321.08 62.2086C321.08 61.9397 321.169 61.6708 321.259 61.4915C322.873 59.6091 323.052 57.0993 323.142 55.1273C323.231 54.4102 323.231 53.7827 323.321 53.1552C323.41 52.5278 323.769 52.0796 324.217 51.721C325.92 50.5558 329.775 51.2729 332.553 51.9003C335.063 52.4381 336.318 55.5754 337.125 57.6371L337.304 58.1749C337.304 58.2646 337.394 58.2646 337.394 58.2646H337.484C338.29 57.8164 339.187 57.7267 339.904 58.0853C340.531 58.3542 341.248 58.9817 341.607 60.5055C342.055 62.7464 339.814 64.8977 338.38 65.8838C338.29 65.9734 338.201 66.063 338.29 66.1527C339.814 79.419 350.66 81.1221 351.108 81.2118C351.288 81.2118 351.467 81.391 351.557 81.5703C351.646 81.7496 351.557 82.0185 351.377 82.1081C351.198 82.2874 346.716 86.5004 340.621 86.9486C339.993 86.8589 339.276 86.8589 338.649 86.8589Z" fill="#0E2549"/>
</svg>
