<svg width="24" height="24" viewBox="0 0 24 24" fill="none" xmlns="http://www.w3.org/2000/svg">
<path d="M3.62562 3.62634C-0.791875 8.04384 -0.791875 15.2078 3.62562 19.6261C8.04312 24.0443 15.2056 24.0421 19.6231 19.6246C24.0406 15.2071 24.0429 8.04459 19.6246 3.62709C15.2071 -0.79041 8.04462 -0.79116 3.62562 3.62634ZM19.0944 4.15734C19.7013 4.77217 20.231 5.45874 20.6716 6.20184L17.6116 9.26184C17.2895 8.44132 16.8013 7.69623 16.1776 7.07334C15.5545 6.44906 14.8088 5.96056 13.9876 5.63859L17.0476 2.57859C17.7919 3.01942 18.4788 3.54961 19.0944 4.15734ZM7.60437 15.6473C6.53829 14.5805 5.93932 13.134 5.93904 11.6258C5.93876 10.1175 6.53719 8.67087 7.60287 7.60359C8.67035 6.53844 10.1168 5.94024 11.6247 5.94024C13.1327 5.94024 14.5792 6.53844 15.6466 7.60359C16.711 8.67132 17.3087 10.1175 17.3087 11.6251C17.3087 13.1327 16.711 14.5789 15.6466 15.6466C14.5796 16.7121 13.1334 17.3107 11.6254 17.3109C10.1175 17.3112 8.67107 16.7132 7.60362 15.6481L7.60437 15.6473ZM4.15512 19.0958C3.54762 18.48 3.01746 17.7925 2.57637 17.0483L5.63637 13.9883C5.96008 14.8084 6.44878 15.5532 7.07216 16.1765C7.69555 16.7999 8.44035 17.2886 9.26037 17.6123L6.19887 20.6723C5.47137 20.2373 4.78137 19.7198 4.15437 19.0951L4.15512 19.0958ZM6.20112 2.57634L9.26262 5.63784C8.4421 5.96049 7.69684 6.44872 7.07334 7.0721C6.44983 7.69548 5.96144 8.44063 5.63862 9.26109L2.57712 6.20109C3.01212 5.47359 3.52962 4.78359 4.15587 4.15509C4.7713 3.54779 5.45836 3.01764 6.20187 2.57634H6.20112ZM17.0491 20.6723L13.9876 17.6108C14.8083 17.2886 15.5537 16.8006 16.1772 16.1773C16.8008 15.5541 17.2891 14.8089 17.6116 13.9883L20.6731 17.0483C20.2381 17.7758 19.7206 18.4673 19.0944 19.0958C18.4789 19.7027 17.7919 20.2323 17.0484 20.6731L17.0491 20.6723Z" fill="#FEFEFE"/>
</svg>
