<svg width="15" height="21" viewBox="0 0 15 21" fill="none" xmlns="http://www.w3.org/2000/svg">
<path d="M12.5696 10.025C13.1002 10.025 13.6091 10.2357 13.9843 10.6109C14.3595 10.9861 14.5703 11.495 14.5703 12.0256V18.0277C14.5703 18.5583 14.3595 19.0672 13.9843 19.4424C13.6091 19.8176 13.1002 20.0284 12.5696 20.0284H2.56612C2.03551 20.0284 1.52662 19.8176 1.15142 19.4424C0.776216 19.0672 0.56543 18.5583 0.56543 18.0277V12.0256C0.56543 11.495 0.776216 10.9861 1.15142 10.6109C1.52662 10.2357 2.03551 10.025 2.56612 10.025V5.02322C2.56612 3.69668 3.09309 2.42447 4.0311 1.48646C4.9691 0.548451 6.24132 0.0214844 7.56786 0.0214844C8.8944 0.0214844 10.1666 0.548451 11.1046 1.48646C12.0426 2.42447 12.5696 3.69668 12.5696 5.02322V10.025ZM7.56786 17.0274C8.09847 17.0274 8.60736 16.8166 8.98256 16.4414C9.35776 16.0662 9.56855 15.5573 9.56855 15.0267C9.56855 14.4961 9.35776 13.9872 8.98256 13.612C8.60736 13.2368 8.09847 13.026 7.56786 13.026C7.03724 13.026 6.52836 13.2368 6.15315 13.612C5.77795 13.9872 5.56716 14.4961 5.56716 15.0267C5.56716 15.5573 5.77795 16.0662 6.15315 16.4414C6.52836 16.8166 7.03724 17.0274 7.56786 17.0274ZM10.5689 10.025V5.02322C10.5689 4.62912 10.4913 4.23887 10.3405 3.87477C10.1896 3.51067 9.96859 3.17983 9.68991 2.90116C9.41124 2.62249 9.08041 2.40144 8.71631 2.25062C8.3522 2.0998 7.96196 2.02218 7.56786 2.02218C7.17376 2.02218 6.78351 2.0998 6.41941 2.25062C6.05531 2.40144 5.72447 2.62249 5.4458 2.90116C5.16713 3.17983 4.94607 3.51067 4.79526 3.87477C4.64444 4.23887 4.56682 4.62912 4.56682 5.02322V10.025H10.5689Z" fill="#959595"/>
</svg>
